<svg width="352" height="88" viewBox="0 0 352 88" fill="none" xmlns="http://www.w3.org/2000/svg">
<rect width="106" height="40" rx="8" fill="white"/>
<path d="M9.65057 25H8.35795L12.0966 14.8182H13.3693L17.108 25H15.8153L12.7727 16.429H12.6932L9.65057 25ZM10.1278 21.0227H15.3381V22.1165H10.1278V21.0227ZM19.7081 14.8182V25H18.5348V14.8182H19.7081ZM23.0304 14.8182V25H21.8571V14.8182H23.0304ZM32.2191 25.1591C31.5032 25.1591 30.8867 24.9901 30.3697 24.652C29.8526 24.3139 29.4549 23.8482 29.1765 23.255C28.8981 22.6617 28.7589 21.9839 28.7589 21.2216C28.7589 20.446 28.9014 19.7616 29.1864 19.1683C29.4748 18.5717 29.8758 18.1061 30.3896 17.7713C30.9066 17.4332 31.5098 17.2642 32.1992 17.2642C32.7362 17.2642 33.2201 17.3636 33.6509 17.5625C34.0818 17.7614 34.4348 18.0398 34.7099 18.3977C34.985 18.7557 35.1557 19.1733 35.2219 19.6506H34.0487C33.9592 19.3026 33.7603 18.9943 33.4521 18.7259C33.1471 18.4541 32.7362 18.3182 32.2191 18.3182C31.7617 18.3182 31.3607 18.4375 31.016 18.6761C30.6746 18.9115 30.4078 19.2446 30.2156 19.6754C30.0266 20.103 29.9322 20.6051 29.9322 21.1818C29.9322 21.7718 30.025 22.2855 30.2106 22.723C30.3995 23.1605 30.6647 23.5002 31.006 23.7422C31.3507 23.9841 31.7551 24.1051 32.2191 24.1051C32.524 24.1051 32.8008 24.0521 33.0494 23.946C33.2979 23.84 33.5084 23.6875 33.6808 23.4886C33.8531 23.2898 33.9757 23.0511 34.0487 22.7727H35.2219C35.1557 23.2235 34.9916 23.6295 34.7298 23.9908C34.4712 24.3487 34.1282 24.6338 33.7006 24.8459C33.2764 25.0547 32.7826 25.1591 32.2191 25.1591ZM39.1843 25.179C38.7004 25.179 38.2612 25.0878 37.8668 24.9055C37.4724 24.7199 37.1592 24.4531 36.9272 24.1051C36.6952 23.7538 36.5792 23.3295 36.5792 22.8324C36.5792 22.3949 36.6654 22.0402 36.8377 21.7685C37.0101 21.4934 37.2404 21.2779 37.5288 21.1222C37.8171 20.9664 38.1353 20.8504 38.4833 20.7741C38.8346 20.6946 39.1876 20.6316 39.5423 20.5852C40.0063 20.5256 40.3825 20.4808 40.6708 20.451C40.9625 20.4179 41.1746 20.3632 41.3072 20.2869C41.4431 20.2107 41.511 20.0781 41.511 19.8892V19.8494C41.511 19.3589 41.3768 18.9777 41.1083 18.706C40.8432 18.4342 40.4405 18.2983 39.9002 18.2983C39.3401 18.2983 38.9009 18.4209 38.5827 18.6662C38.2646 18.9115 38.0408 19.1733 37.9116 19.4517L36.7979 19.054C36.9968 18.59 37.262 18.2287 37.5934 17.9702C37.9281 17.7083 38.2927 17.526 38.6871 17.4233C39.0849 17.3172 39.476 17.2642 39.8604 17.2642C40.1057 17.2642 40.3874 17.294 40.7056 17.3537C41.0271 17.41 41.337 17.5277 41.6353 17.7067C41.9369 17.8857 42.1871 18.1558 42.386 18.517C42.5849 18.8783 42.6843 19.3622 42.6843 19.9688V25H41.511V23.9659H41.4513C41.3718 24.1316 41.2392 24.3089 41.0536 24.4979C40.868 24.6868 40.6211 24.8475 40.3129 24.9801C40.0046 25.1127 39.6284 25.179 39.1843 25.179ZM39.3633 24.125C39.8273 24.125 40.2184 24.0339 40.5366 23.8516C40.8581 23.6693 41.1 23.4339 41.2624 23.1456C41.4281 22.8572 41.511 22.554 41.511 22.2358V21.1619C41.4613 21.2216 41.3519 21.2763 41.1829 21.326C41.0172 21.3724 40.8249 21.4138 40.6062 21.4503C40.3907 21.4834 40.1803 21.5133 39.9748 21.5398C39.7726 21.563 39.6085 21.5829 39.4826 21.5994C39.1777 21.6392 38.8926 21.7038 38.6275 21.7933C38.3656 21.8795 38.1535 22.0104 37.9911 22.1861C37.832 22.3584 37.7525 22.5937 37.7525 22.892C37.7525 23.2997 37.9033 23.608 38.2049 23.8168C38.5098 24.0223 38.896 24.125 39.3633 24.125ZM48.1468 17.3636V18.358H44.1895V17.3636H48.1468ZM45.3429 15.5341H46.5162V22.8125C46.5162 23.1439 46.5642 23.3925 46.6603 23.5582C46.7598 23.7206 46.8857 23.83 47.0382 23.8864C47.194 23.9394 47.358 23.9659 47.5304 23.9659C47.6596 23.9659 47.7657 23.9593 47.8485 23.946C47.9314 23.9295 47.9977 23.9162 48.0474 23.9062L48.286 24.9602C48.2065 24.9901 48.0955 25.0199 47.9529 25.0497C47.8104 25.0829 47.6298 25.0994 47.411 25.0994C47.0796 25.0994 46.7548 25.0282 46.4366 24.8857C46.1217 24.7431 45.8599 24.526 45.6511 24.2344C45.4456 23.9427 45.3429 23.5748 45.3429 23.1307V15.5341ZM53.0314 25.1591C52.2956 25.1591 51.6609 24.9967 51.1273 24.6719C50.597 24.3438 50.1877 23.8864 49.8993 23.2997C49.6143 22.7098 49.4718 22.0237 49.4718 21.2415C49.4718 20.4593 49.6143 19.7699 49.8993 19.1733C50.1877 18.5734 50.5887 18.1061 51.1025 17.7713C51.6195 17.4332 52.2227 17.2642 52.9121 17.2642C53.3098 17.2642 53.7026 17.3305 54.0904 17.4631C54.4782 17.5956 54.8311 17.8111 55.1493 18.1094C55.4675 18.4044 55.7211 18.7955 55.91 19.2827C56.0989 19.7699 56.1934 20.3698 56.1934 21.0824V21.5795H50.307V20.5653H55.0002C55.0002 20.1345 54.914 19.75 54.7417 19.4119C54.5726 19.0739 54.3307 18.8071 54.0158 18.6115C53.7042 18.416 53.3364 18.3182 52.9121 18.3182C52.4448 18.3182 52.0404 18.4342 51.699 18.6662C51.361 18.8949 51.1008 19.1932 50.9185 19.5611C50.7362 19.929 50.6451 20.3234 50.6451 20.7443V21.4205C50.6451 21.9972 50.7445 22.486 50.9434 22.8871C51.1455 23.2848 51.4256 23.5881 51.7836 23.7969C52.1415 24.0024 52.5575 24.1051 53.0314 24.1051C53.3397 24.1051 53.6181 24.062 53.8667 23.9759C54.1185 23.8864 54.3356 23.7538 54.5179 23.5781C54.7002 23.3991 54.8411 23.1771 54.9405 22.9119L56.074 23.2301C55.9547 23.6146 55.7542 23.9527 55.4725 24.2443C55.1908 24.5327 54.8427 24.758 54.4284 24.9205C54.0141 25.0795 53.5485 25.1591 53.0314 25.1591ZM61.0605 28.0227C60.4938 28.0227 60.0066 27.9498 59.5989 27.804C59.1912 27.6615 58.8515 27.4725 58.5797 27.2372C58.3113 27.0052 58.0975 26.7566 57.9384 26.4915L58.873 25.8352C58.9791 25.9744 59.1133 26.1335 59.2757 26.3125C59.4382 26.4948 59.6602 26.6522 59.9419 26.7848C60.227 26.9207 60.5998 26.9886 61.0605 26.9886C61.677 26.9886 62.1858 26.8395 62.5868 26.5412C62.9879 26.2429 63.1884 25.7756 63.1884 25.1392V23.5881H63.089C63.0028 23.7273 62.8801 23.8996 62.7211 24.1051C62.5653 24.3073 62.3399 24.4879 62.0449 24.647C61.7533 24.8028 61.3588 24.8807 60.8617 24.8807C60.2452 24.8807 59.6917 24.7348 59.2012 24.4432C58.714 24.1515 58.3278 23.7273 58.0428 23.1705C57.7611 22.6136 57.6202 21.9375 57.6202 21.142C57.6202 20.3598 57.7578 19.6787 58.0328 19.0987C58.3079 18.5154 58.6908 18.0646 59.1813 17.7464C59.6718 17.425 60.2386 17.2642 60.8816 17.2642C61.3787 17.2642 61.7731 17.3471 62.0648 17.5128C62.3598 17.6752 62.5852 17.8608 62.7409 18.0696C62.9 18.2751 63.0227 18.4441 63.1088 18.5767H63.2282V17.3636H64.3617V25.2188C64.3617 25.875 64.2125 26.4086 63.9142 26.8196C63.6193 27.2339 63.2215 27.5372 62.7211 27.7294C62.2239 27.925 61.6704 28.0227 61.0605 28.0227ZM61.0208 23.8267C61.4914 23.8267 61.8891 23.719 62.214 23.5036C62.5388 23.2881 62.7857 22.9782 62.9547 22.5739C63.1238 22.1695 63.2083 21.6856 63.2083 21.1222C63.2083 20.572 63.1254 20.0864 62.9597 19.6655C62.794 19.2446 62.5487 18.9148 62.2239 18.6761C61.8991 18.4375 61.498 18.3182 61.0208 18.3182C60.5236 18.3182 60.1093 18.4441 59.7779 18.696C59.4498 18.9479 59.2028 19.286 59.0371 19.7102C58.8747 20.1345 58.7935 20.6051 58.7935 21.1222C58.7935 21.6525 58.8764 22.1214 59.0421 22.5291C59.2111 22.9335 59.4597 23.2517 59.7878 23.4837C60.1193 23.7124 60.5302 23.8267 61.0208 23.8267ZM69.6117 25.1591C68.9223 25.1591 68.3174 24.995 67.7971 24.6669C67.28 24.3388 66.8757 23.8797 66.584 23.2898C66.2956 22.6998 66.1515 22.0104 66.1515 21.2216C66.1515 20.4261 66.2956 19.7318 66.584 19.1385C66.8757 18.5452 67.28 18.0845 67.7971 17.7564C68.3174 17.4283 68.9223 17.2642 69.6117 17.2642C70.3011 17.2642 70.9043 17.4283 71.4213 17.7564C71.9417 18.0845 72.3461 18.5452 72.6344 19.1385C72.9261 19.7318 73.0719 20.4261 73.0719 21.2216C73.0719 22.0104 72.9261 22.6998 72.6344 23.2898C72.3461 23.8797 71.9417 24.3388 71.4213 24.6669C70.9043 24.995 70.3011 25.1591 69.6117 25.1591ZM69.6117 24.1051C70.1354 24.1051 70.5662 23.9709 70.9043 23.7024C71.2424 23.4339 71.4926 23.081 71.655 22.6435C71.8174 22.206 71.8986 21.732 71.8986 21.2216C71.8986 20.7112 71.8174 20.2356 71.655 19.7947C71.4926 19.3539 71.2424 18.9976 70.9043 18.7259C70.5662 18.4541 70.1354 18.3182 69.6117 18.3182C69.088 18.3182 68.6571 18.4541 68.3191 18.7259C67.981 18.9976 67.7308 19.3539 67.5684 19.7947C67.406 20.2356 67.3248 20.7112 67.3248 21.2216C67.3248 21.732 67.406 22.206 67.5684 22.6435C67.7308 23.081 67.981 23.4339 68.3191 23.7024C68.6571 23.9709 69.088 24.1051 69.6117 24.1051ZM74.8629 25V17.3636H75.9964V18.517H76.076C76.2152 18.1392 76.4671 17.8326 76.8317 17.5973C77.1963 17.362 77.6072 17.2443 78.0646 17.2443C78.1508 17.2443 78.2585 17.246 78.3878 17.2493C78.517 17.2526 78.6148 17.2576 78.6811 17.2642V18.4574C78.6413 18.4474 78.5502 18.4325 78.4077 18.4126C78.2685 18.3894 78.121 18.3778 77.9652 18.3778C77.594 18.3778 77.2625 18.4557 76.9709 18.6115C76.6825 18.764 76.4538 18.9761 76.2848 19.2479C76.1191 19.5163 76.0362 19.8229 76.0362 20.1676V25H74.8629ZM80.0719 25V17.3636H81.2452V25H80.0719ZM80.6685 16.0909C80.4398 16.0909 80.2426 16.013 80.0769 15.8572C79.9145 15.7015 79.8333 15.5142 79.8333 15.2955C79.8333 15.0767 79.9145 14.8894 80.0769 14.7337C80.2426 14.5779 80.4398 14.5 80.6685 14.5C80.8972 14.5 81.0927 14.5779 81.2551 14.7337C81.4209 14.8894 81.5037 15.0767 81.5037 15.2955C81.5037 15.5142 81.4209 15.7015 81.2551 15.8572C81.0927 16.013 80.8972 16.0909 80.6685 16.0909ZM86.5959 25.1591C85.8601 25.1591 85.2254 24.9967 84.6918 24.6719C84.1615 24.3438 83.7521 23.8864 83.4638 23.2997C83.1787 22.7098 83.0362 22.0237 83.0362 21.2415C83.0362 20.4593 83.1787 19.7699 83.4638 19.1733C83.7521 18.5734 84.1532 18.1061 84.6669 17.7713C85.1839 17.4332 85.7872 17.2642 86.4766 17.2642C86.8743 17.2642 87.267 17.3305 87.6548 17.4631C88.0426 17.5956 88.3956 17.8111 88.7138 18.1094C89.032 18.4044 89.2855 18.7955 89.4744 19.2827C89.6634 19.7699 89.7578 20.3698 89.7578 21.0824V21.5795H83.8714V20.5653H88.5646C88.5646 20.1345 88.4785 19.75 88.3061 19.4119C88.1371 19.0739 87.8951 18.8071 87.5803 18.6115C87.2687 18.416 86.9008 18.3182 86.4766 18.3182C86.0092 18.3182 85.6049 18.4342 85.2635 18.6662C84.9254 18.8949 84.6652 19.1932 84.483 19.5611C84.3007 19.929 84.2095 20.3234 84.2095 20.7443V21.4205C84.2095 21.9972 84.3089 22.486 84.5078 22.8871C84.71 23.2848 84.9901 23.5881 85.348 23.7969C85.706 24.0024 86.1219 24.1051 86.5959 24.1051C86.9041 24.1051 87.1825 24.062 87.4311 23.9759C87.683 23.8864 87.9001 23.7538 88.0824 23.5781C88.2647 23.3991 88.4055 23.1771 88.505 22.9119L89.6385 23.2301C89.5192 23.6146 89.3187 23.9527 89.0369 24.2443C88.7552 24.5327 88.4072 24.758 87.9929 24.9205C87.5786 25.0795 87.1129 25.1591 86.5959 25.1591ZM96.9517 19.0739L95.8977 19.3722C95.8314 19.1965 95.7337 19.0258 95.6044 18.8601C95.4785 18.6911 95.3061 18.5518 95.0874 18.4425C94.8686 18.3331 94.5885 18.2784 94.2472 18.2784C93.7798 18.2784 93.3904 18.3861 93.0788 18.6016C92.7706 18.8137 92.6165 19.0838 92.6165 19.4119C92.6165 19.7036 92.7225 19.9339 92.9347 20.103C93.1468 20.272 93.4782 20.4129 93.929 20.5256L95.0625 20.804C95.7453 20.9697 96.254 21.2232 96.5888 21.5646C96.9235 21.9027 97.0909 22.3385 97.0909 22.8722C97.0909 23.3097 96.965 23.7008 96.7131 24.0455C96.4645 24.3902 96.1165 24.6619 95.669 24.8608C95.2216 25.0597 94.7012 25.1591 94.108 25.1591C93.3291 25.1591 92.6844 24.9901 92.174 24.652C91.6636 24.3139 91.3404 23.8201 91.2045 23.1705L92.3182 22.892C92.4242 23.303 92.6248 23.6113 92.9197 23.8168C93.218 24.0223 93.6075 24.125 94.0881 24.125C94.6349 24.125 95.0691 24.009 95.3906 23.777C95.7154 23.5417 95.8778 23.2599 95.8778 22.9318C95.8778 22.6667 95.785 22.4446 95.5994 22.2656C95.4138 22.0833 95.1288 21.9474 94.7443 21.858L93.4716 21.5597C92.7723 21.3939 92.2585 21.1371 91.9304 20.7891C91.6056 20.4377 91.4432 19.9986 91.4432 19.4716C91.4432 19.0407 91.5642 18.6596 91.8061 18.3281C92.0514 17.9967 92.3845 17.7365 92.8054 17.5476C93.2296 17.3587 93.7102 17.2642 94.2472 17.2642C95.0028 17.2642 95.5961 17.4299 96.027 17.7614C96.4612 18.0928 96.7694 18.5303 96.9517 19.0739Z" fill="black"/>
<rect x="0.5" y="0.5" width="105" height="39" rx="7.5" stroke="black" stroke-opacity="0.1"/>
<rect x="114" width="126" height="40" rx="8" fill="white"/>
<path d="M132.5 11.5H136.5C136.776 11.5 137 11.7239 137 12V14C137 14.2761 136.776 14.5 136.5 14.5H132.5V11.5Z" fill="#8D33FF"/>
<path fill-rule="evenodd" clip-rule="evenodd" d="M132.5 11C132.638 11 132.75 11.112 132.75 11.2501L132.749 17.2105C132.749 17.3486 132.637 17.4605 132.499 17.4605C132.361 17.4605 132.249 17.3485 132.249 17.2104L132.25 11.2499C132.25 11.1119 132.362 11 132.5 11Z" fill="#8D33FF"/>
<path fill-rule="evenodd" clip-rule="evenodd" d="M125.067 28.2519L132.057 16.0193C132.25 15.6803 132.74 15.6842 132.929 16.026L136.338 22.2127L137.772 19.6778C137.965 19.3364 138.458 19.3402 138.646 19.6846L143.323 28.2601C143.505 28.5933 143.264 28.9996 142.884 28.9996H139.251C139.244 28.9998 139.238 28.9999 139.231 28.9999H125.501C125.117 28.9999 124.876 28.5852 125.067 28.2519Z" fill="#FF8833"/>
<mask id="mask0_1_1765" style="mask-type:alpha" maskUnits="userSpaceOnUse" x="125" y="15" width="19" height="14">
<path fill-rule="evenodd" clip-rule="evenodd" d="M125.067 28.2519L132.057 16.0193C132.25 15.6803 132.74 15.6842 132.929 16.026L136.338 22.2127L137.772 19.6778C137.965 19.3364 138.458 19.3402 138.646 19.6846L143.323 28.2601C143.505 28.5933 143.264 28.9996 142.884 28.9996H139.251C139.244 28.9998 139.238 28.9999 139.231 28.9999H125.501C125.117 28.9999 124.876 28.5852 125.067 28.2519Z" fill="#731DE0"/>
</mask>
<g mask="url(#mask0_1_1765)">
<path d="M136 18.4998H129.5V15.4998H136V18.4998Z" fill="#8D33FF"/>
</g>
<path d="M158.801 17.3636C158.741 16.8598 158.5 16.4688 158.075 16.1903C157.651 15.9119 157.131 15.7727 156.514 15.7727C156.063 15.7727 155.669 15.8456 155.331 15.9915C154.996 16.1373 154.734 16.3378 154.545 16.593C154.36 16.8482 154.267 17.1383 154.267 17.4631C154.267 17.7348 154.332 17.9685 154.461 18.1641C154.594 18.3563 154.763 18.517 154.968 18.6463C155.174 18.7723 155.389 18.8767 155.614 18.9595C155.84 19.0391 156.047 19.1037 156.236 19.1534L157.27 19.4318C157.535 19.5014 157.83 19.5975 158.155 19.7202C158.483 19.8428 158.796 20.0102 159.094 20.2223C159.396 20.4311 159.645 20.6996 159.84 21.0277C160.036 21.3558 160.134 21.7585 160.134 22.2358C160.134 22.786 159.989 23.2831 159.701 23.7273C159.416 24.1714 158.998 24.5244 158.448 24.7862C157.901 25.0481 157.237 25.179 156.455 25.179C155.725 25.179 155.094 25.0613 154.56 24.826C154.03 24.5907 153.612 24.2625 153.308 23.8416C153.006 23.4207 152.835 22.9318 152.795 22.375H154.068C154.101 22.7595 154.231 23.0777 154.456 23.3295C154.685 23.5781 154.973 23.7637 155.321 23.8864C155.672 24.0057 156.05 24.0653 156.455 24.0653C156.925 24.0653 157.348 23.9891 157.722 23.8366C158.097 23.6809 158.393 23.4654 158.612 23.1903C158.831 22.9119 158.94 22.5871 158.94 22.2159C158.94 21.8778 158.846 21.6027 158.657 21.3906C158.468 21.1785 158.219 21.0062 157.911 20.8736C157.603 20.741 157.27 20.625 156.912 20.5256L155.659 20.1676C154.864 19.9389 154.234 19.6125 153.77 19.1882C153.306 18.764 153.074 18.2088 153.074 17.5227C153.074 16.9527 153.228 16.4555 153.536 16.0312C153.848 15.6037 154.265 15.2723 154.789 15.0369C155.316 14.7983 155.904 14.679 156.554 14.679C157.21 14.679 157.794 14.7966 158.304 15.032C158.814 15.264 159.219 15.5821 159.517 15.9865C159.819 16.3909 159.978 16.8499 159.994 17.3636H158.801ZM165.203 25.1591C164.468 25.1591 163.833 24.9967 163.299 24.6719C162.769 24.3438 162.36 23.8864 162.071 23.2997C161.786 22.7098 161.644 22.0237 161.644 21.2415C161.644 20.4593 161.786 19.7699 162.071 19.1733C162.36 18.5734 162.761 18.1061 163.274 17.7713C163.791 17.4332 164.395 17.2642 165.084 17.2642C165.482 17.2642 165.874 17.3305 166.262 17.4631C166.65 17.5956 167.003 17.8111 167.321 18.1094C167.639 18.4044 167.893 18.7955 168.082 19.2827C168.271 19.7699 168.365 20.3698 168.365 21.0824V21.5795H162.479V20.5653H167.172C167.172 20.1345 167.086 19.75 166.914 19.4119C166.744 19.0739 166.503 18.8071 166.188 18.6115C165.876 18.416 165.508 18.3182 165.084 18.3182C164.617 18.3182 164.212 18.4342 163.871 18.6662C163.533 18.8949 163.273 19.1932 163.09 19.5611C162.908 19.929 162.817 20.3234 162.817 20.7443V21.4205C162.817 21.9972 162.916 22.486 163.115 22.8871C163.317 23.2848 163.597 23.5881 163.955 23.7969C164.313 24.0024 164.729 24.1051 165.203 24.1051C165.512 24.1051 165.79 24.062 166.039 23.9759C166.29 23.8864 166.508 23.7538 166.69 23.5781C166.872 23.3991 167.013 23.1771 167.112 22.9119L168.246 23.2301C168.127 23.6146 167.926 23.9527 167.644 24.2443C167.363 24.5327 167.015 24.758 166.6 24.9205C166.186 25.0795 165.72 25.1591 165.203 25.1591ZM171.323 14.8182V25H170.15V14.8182H171.323ZM176.873 17.3636V18.358H172.756V17.3636H176.873ZM173.989 25V16.3097C173.989 15.8722 174.092 15.5076 174.298 15.2159C174.503 14.9242 174.77 14.7055 175.098 14.5597C175.426 14.4138 175.772 14.3409 176.137 14.3409C176.425 14.3409 176.661 14.3641 176.843 14.4105C177.025 14.4569 177.161 14.5 177.251 14.5398L176.913 15.554C176.853 15.5341 176.77 15.5092 176.664 15.4794C176.561 15.4496 176.425 15.4347 176.256 15.4347C175.869 15.4347 175.589 15.5324 175.416 15.728C175.247 15.9235 175.163 16.2102 175.163 16.5881V25H173.989ZM182.496 20.0881V21.1818H178.041V20.0881H182.496ZM191.68 18C191.57 17.6652 191.426 17.3653 191.247 17.1001C191.071 16.8317 190.861 16.603 190.616 16.4141C190.374 16.2251 190.099 16.081 189.79 15.9815C189.482 15.8821 189.144 15.8324 188.776 15.8324C188.173 15.8324 187.624 15.9882 187.131 16.2997C186.637 16.6113 186.244 17.0703 185.952 17.6768C185.661 18.2834 185.515 19.0275 185.515 19.9091C185.515 20.7907 185.662 21.5348 185.957 22.1413C186.252 22.7479 186.652 23.2069 187.155 23.5185C187.659 23.83 188.226 23.9858 188.856 23.9858C189.439 23.9858 189.953 23.8615 190.397 23.6129C190.844 23.361 191.192 23.0064 191.441 22.549C191.693 22.0883 191.819 21.5464 191.819 20.9233L192.197 21.0028H189.134V19.9091H193.012V21.0028C193.012 21.8414 192.833 22.5705 192.475 23.1903C192.12 23.8101 191.63 24.2907 191.003 24.6321C190.38 24.9702 189.664 25.1392 188.856 25.1392C187.954 25.1392 187.162 24.9271 186.479 24.5028C185.8 24.0786 185.269 23.4754 184.888 22.6932C184.51 21.911 184.322 20.983 184.322 19.9091C184.322 19.1037 184.429 18.3795 184.645 17.7365C184.863 17.0902 185.172 16.54 185.569 16.0859C185.967 15.6319 186.438 15.2839 186.981 15.0419C187.525 14.8 188.123 14.679 188.776 14.679C189.313 14.679 189.814 14.7602 190.278 14.9226C190.745 15.0817 191.161 15.3087 191.525 15.6037C191.893 15.8954 192.2 16.245 192.445 16.6527C192.69 17.0571 192.859 17.5062 192.952 18H191.68ZM194.964 25V17.3636H196.098V18.517H196.178C196.317 18.1392 196.569 17.8326 196.933 17.5973C197.298 17.362 197.709 17.2443 198.166 17.2443C198.252 17.2443 198.36 17.246 198.489 17.2493C198.619 17.2526 198.716 17.2576 198.783 17.2642V18.4574C198.743 18.4474 198.652 18.4325 198.509 18.4126C198.37 18.3894 198.223 18.3778 198.067 18.3778C197.696 18.3778 197.364 18.4557 197.072 18.6115C196.784 18.764 196.555 18.9761 196.386 19.2479C196.221 19.5163 196.138 19.8229 196.138 20.1676V25H194.964ZM203.043 25.1591C202.354 25.1591 201.749 24.995 201.229 24.6669C200.712 24.3388 200.307 23.8797 200.016 23.2898C199.727 22.6998 199.583 22.0104 199.583 21.2216C199.583 20.4261 199.727 19.7318 200.016 19.1385C200.307 18.5452 200.712 18.0845 201.229 17.7564C201.749 17.4283 202.354 17.2642 203.043 17.2642C203.733 17.2642 204.336 17.4283 204.853 17.7564C205.373 18.0845 205.778 18.5452 206.066 19.1385C206.358 19.7318 206.504 20.4261 206.504 21.2216C206.504 22.0104 206.358 22.6998 206.066 23.2898C205.778 23.8797 205.373 24.3388 204.853 24.6669C204.336 24.995 203.733 25.1591 203.043 25.1591ZM203.043 24.1051C203.567 24.1051 203.998 23.9709 204.336 23.7024C204.674 23.4339 204.924 23.081 205.087 22.6435C205.249 22.206 205.33 21.732 205.33 21.2216C205.33 20.7112 205.249 20.2356 205.087 19.7947C204.924 19.3539 204.674 18.9976 204.336 18.7259C203.998 18.4541 203.567 18.3182 203.043 18.3182C202.52 18.3182 202.089 18.4541 201.751 18.7259C201.413 18.9976 201.162 19.3539 201 19.7947C200.838 20.2356 200.756 20.7112 200.756 21.2216C200.756 21.732 200.838 22.206 201 22.6435C201.162 23.081 201.413 23.4339 201.751 23.7024C202.089 23.9709 202.52 24.1051 203.043 24.1051ZM209.765 25L207.438 17.3636H208.671L210.322 23.2102H210.401L212.032 17.3636H213.285L214.896 23.1903H214.975L216.626 17.3636H217.859L215.532 25H214.379L212.708 19.1335H212.589L210.918 25H209.765ZM222.731 17.3636V18.358H218.773V17.3636H222.731ZM219.927 15.5341H221.1V22.8125C221.1 23.1439 221.148 23.3925 221.244 23.5582C221.344 23.7206 221.47 23.83 221.622 23.8864C221.778 23.9394 221.942 23.9659 222.114 23.9659C222.244 23.9659 222.35 23.9593 222.433 23.946C222.515 23.9295 222.582 23.9162 222.631 23.9062L222.87 24.9602C222.79 24.9901 222.679 25.0199 222.537 25.0497C222.394 25.0829 222.214 25.0994 221.995 25.0994C221.664 25.0994 221.339 25.0282 221.021 24.8857C220.706 24.7431 220.444 24.526 220.235 24.2344C220.03 23.9427 219.927 23.5748 219.927 23.1307V15.5341ZM225.833 20.4062V25H224.66V14.8182H225.833V18.5568H225.933C226.112 18.1624 226.38 17.8492 226.738 17.6172C227.099 17.3819 227.58 17.2642 228.18 17.2642C228.7 17.2642 229.156 17.3686 229.547 17.5774C229.938 17.7829 230.241 18.0994 230.457 18.527C230.675 18.9512 230.785 19.4915 230.785 20.1477V25H229.612V20.2273C229.612 19.6207 229.454 19.1518 229.139 18.8203C228.828 18.4856 228.395 18.3182 227.842 18.3182C227.457 18.3182 227.112 18.3994 226.808 18.5618C226.506 18.7242 226.267 18.9612 226.092 19.2727C225.919 19.5843 225.833 19.9621 225.833 20.4062Z" fill="black"/>
<rect x="114.5" y="0.5" width="125" height="39" rx="7.5" stroke="black" stroke-opacity="0.1"/>
<rect x="248" width="116" height="40" rx="8" fill="white"/>
<path d="M274.5 21C274.5 25.4183 270.918 29 266.5 29C262.082 29 258.5 25.4183 258.5 21C258.5 16.5817 262.082 13 266.5 13C270.918 13 274.5 16.5817 274.5 21Z" fill="#FF8833"/>
<path d="M261.493 21.5094C261.412 21.5532 261.349 21.587 261.287 21.6207C261.186 21.6746 261.098 21.651 261.036 21.5532C260.973 21.4588 260.993 21.3509 261.091 21.2801C261.379 21.0643 261.703 21.0272 262.043 21.0643C262.092 21.071 262.144 21.0778 262.193 21.0913C262.317 21.1182 262.392 21.2194 262.373 21.3307C262.353 21.4453 262.252 21.5162 262.124 21.4959C262.072 21.4892 262.016 21.4757 261.928 21.4588C261.958 21.678 261.967 21.8837 262.013 22.0827C262.412 23.8868 263.53 25.0098 265.214 25.5257C266.735 25.9911 268.177 25.7449 269.481 24.8041C270.469 24.0892 271.07 23.1045 271.257 21.8635C271.279 21.7185 271.279 21.5701 271.292 21.4049C271.204 21.4217 271.129 21.4386 271.057 21.4487C270.952 21.4622 270.858 21.3914 270.835 21.2801C270.815 21.1722 270.851 21.0811 270.959 21.0575C271.342 20.9631 271.714 20.9699 272.058 21.1924C272.201 21.2835 272.234 21.388 272.165 21.506C272.107 21.6106 271.992 21.6241 271.855 21.5431C271.819 21.5229 271.783 21.5027 271.747 21.4858C271.708 21.7556 271.678 22.0152 271.626 22.2749C271.394 23.4147 270.802 24.3252 269.923 25.0334C268.847 25.9001 267.611 26.2879 266.257 26.1833C264.577 26.0552 263.21 25.3099 262.252 23.8497C261.81 23.1787 261.572 22.4267 261.51 21.6173C261.5 21.5836 261.497 21.5566 261.493 21.5094Z" fill="#8D33FF"/>
<path fill-rule="evenodd" clip-rule="evenodd" d="M271.032 21.2456C271.033 21.2474 271.034 21.2487 271.034 21.2496C271.035 21.2512 271.036 21.2517 271.036 21.2516C271.036 21.2514 271.035 21.251 271.034 21.2506C271.032 21.2503 271.032 21.2503 271.032 21.2503C271.031 21.2503 271.032 21.2503 271.032 21.2503L271.057 21.4487L271.029 21.2507C271.074 21.2444 271.117 21.2357 271.171 21.225C271.196 21.2199 271.224 21.2144 271.255 21.2084L271.267 21.2061C271.191 21.2133 271.113 21.2267 271.032 21.2456ZM271.509 21.2057L271.492 21.4206C271.488 21.4664 271.486 21.5157 271.483 21.5666C271.477 21.6744 271.471 21.7895 271.454 21.8939C271.26 23.1871 270.63 24.2195 269.598 24.9661C268.244 25.9428 266.737 26.201 265.156 25.717C263.407 25.1811 262.234 24.0043 261.818 22.1267C261.785 21.9823 261.768 21.8253 261.752 21.6778C261.745 21.611 261.738 21.5462 261.73 21.4854L261.699 21.2572C261.692 21.2579 261.684 21.2587 261.677 21.2595L261.693 21.4956C261.696 21.5383 261.698 21.5484 261.702 21.5615L261.708 21.5814L261.709 21.602C261.769 22.3809 261.998 23.0997 262.419 23.7398C263.341 25.145 264.65 25.8602 266.272 25.9839C267.574 26.0844 268.76 25.713 269.797 24.8777C270.643 24.1966 271.208 23.326 271.43 22.2352C271.467 22.0521 271.492 21.8714 271.518 21.68C271.528 21.6074 271.538 21.5334 271.549 21.457L271.584 21.2161C271.559 21.2117 271.534 21.2082 271.509 21.2057ZM271.705 21.2454L271.832 21.3047C271.875 21.3247 271.916 21.3481 271.95 21.3673L271.956 21.3708C271.967 21.3767 271.975 21.3813 271.983 21.3848C271.975 21.3782 271.965 21.3703 271.951 21.3614L271.949 21.3602C271.87 21.3092 271.789 21.2714 271.705 21.2454ZM261.416 21.3241C261.356 21.3482 261.299 21.3789 261.243 21.4172C261.29 21.392 261.339 21.3653 261.399 21.3332L261.416 21.3241ZM261.927 21.255L261.966 21.2624C262.006 21.27 262.036 21.2762 262.061 21.2813C262.098 21.289 262.123 21.2941 262.15 21.2976L262.156 21.2983C262.166 21.2999 262.172 21.2993 262.175 21.2987C262.175 21.2986 262.175 21.2986 262.175 21.2986C262.175 21.2983 262.176 21.2981 262.176 21.2979C262.173 21.2954 262.166 21.29 262.151 21.2867L262.145 21.2855L262.14 21.2841C262.107 21.275 262.07 21.2699 262.018 21.2628C261.987 21.2595 261.957 21.2568 261.927 21.255ZM272.166 21.024C271.761 20.7622 271.327 20.7611 270.913 20.8628C270.808 20.8867 270.72 20.9499 270.671 21.0462C270.625 21.1363 270.623 21.2339 270.638 21.3159L270.639 21.3204C270.68 21.5229 270.862 21.6728 271.077 21.6477C271.074 21.7112 271.069 21.77 271.059 21.8323L271.059 21.8338C270.88 23.0222 270.307 23.9589 269.364 24.6419C268.109 25.5468 266.732 25.7812 265.273 25.3345C263.654 24.8386 262.591 23.7697 262.209 22.0395L262.208 22.0378C262.182 21.926 262.17 21.8188 262.157 21.6991C262.357 21.703 262.534 21.5751 262.57 21.3644L262.373 21.3307L262.57 21.3654C262.611 21.1322 262.449 20.9448 262.241 20.8971C262.183 20.8816 262.124 20.8735 262.08 20.8676C262.077 20.8671 262.073 20.8666 262.07 20.8661L262.064 20.8654C261.697 20.8253 261.315 20.8625 260.972 21.1191C260.89 21.1794 260.828 21.2651 260.807 21.3691C260.786 21.4737 260.812 21.5765 260.868 21.6618C260.917 21.7398 260.992 21.8094 261.095 21.8371C261.178 21.8591 261.257 21.8487 261.328 21.8216C261.413 22.5904 261.658 23.3106 262.085 23.9596C263.079 25.4746 264.503 26.2501 266.242 26.3827C267.647 26.4913 268.933 26.0871 270.048 25.1891C270.961 24.4539 271.58 23.5036 271.822 22.3148C271.858 22.1377 271.883 21.9581 271.908 21.7811C271.958 21.7939 272.01 21.7991 272.063 21.7927C272.185 21.7783 272.281 21.7075 272.339 21.6054C272.394 21.5111 272.421 21.3957 272.381 21.2754C272.343 21.1626 272.257 21.082 272.166 21.024Z" fill="#8D33FF"/>
<path d="M265.3 19.0467C265.29 19.7775 265.24 20.341 265.014 20.8737C264.957 21.0103 264.877 21.14 264.783 21.2493C264.608 21.4542 264.389 21.4474 264.211 21.2459C263.996 21.0034 263.895 20.6995 263.832 20.3888C263.65 19.5351 263.647 18.6814 263.882 17.8379C263.939 17.6262 264.037 17.4145 264.157 17.2301C264.356 16.9227 264.638 16.9262 264.853 17.2232C265.071 17.5272 265.166 17.8823 265.219 18.2443C265.263 18.5618 265.283 18.8863 265.3 19.0467Z" fill="#8D33FF"/>
<path fill-rule="evenodd" clip-rule="evenodd" d="M268.177 19.2215C267.989 19.3693 267.887 19.5191 267.855 19.6135C267.79 19.8098 267.577 19.9155 267.381 19.8495C267.184 19.7836 267.079 19.5709 267.145 19.3746C267.238 19.0969 267.455 18.8357 267.712 18.6325C267.976 18.4245 268.315 18.2519 268.692 18.173C269.072 18.0935 269.496 18.1088 269.916 18.284C270.336 18.4594 270.728 18.7847 271.062 19.286C271.177 19.4584 271.13 19.6912 270.958 19.8061C270.786 19.921 270.553 19.8744 270.438 19.7021C270.172 19.3034 269.889 19.0857 269.627 18.9761C269.364 18.8663 269.096 18.8546 268.846 18.9071C268.592 18.9602 268.358 19.0785 268.177 19.2215Z" fill="#8D33FF"/>
<path d="M274.156 10.7471C273.234 10.3943 272.738 9.5686 272.517 9.08609C272.505 9.06061 272.485 9.03883 272.46 9.02351C272.434 9.00818 272.404 9 272.373 9C272.342 9 272.312 9.00818 272.287 9.02351C272.261 9.03883 272.241 9.06061 272.229 9.08609C272.008 9.5686 271.509 10.3969 270.594 10.7471C270.566 10.7579 270.542 10.7758 270.526 10.7985C270.509 10.8212 270.5 10.8478 270.5 10.875C270.5 10.9022 270.509 10.9288 270.526 10.9515C270.542 10.9742 270.566 10.9921 270.594 11.0029C271.515 11.3557 272.012 12.1823 272.231 12.6639C272.243 12.6894 272.263 12.7112 272.289 12.7265C272.314 12.7418 272.344 12.75 272.375 12.75C272.406 12.75 272.436 12.7418 272.462 12.7265C272.487 12.7112 272.507 12.6894 272.519 12.6639C272.742 12.1823 273.24 11.3549 274.158 11.002C274.186 10.9909 274.209 10.9729 274.225 10.9502C274.242 10.9275 274.25 10.901 274.25 10.874C274.25 10.847 274.241 10.8206 274.224 10.7981C274.208 10.7756 274.184 10.7578 274.156 10.7471Z" fill="#8D33FF"/>
<path d="M277.112 13.7479C276.453 13.4959 276.098 12.9061 275.941 12.5615C275.932 12.5433 275.918 12.5277 275.9 12.5168C275.881 12.5058 275.86 12.5 275.838 12.5C275.816 12.5 275.794 12.5058 275.776 12.5168C275.758 12.5277 275.744 12.5433 275.735 12.5615C275.577 12.9061 275.221 13.4978 274.567 13.7479C274.547 13.7556 274.53 13.7684 274.518 13.7846C274.506 13.8009 274.5 13.8199 274.5 13.8393C274.5 13.8587 274.506 13.8777 274.518 13.8939C274.53 13.9102 274.547 13.9229 274.567 13.9306C275.225 14.1827 275.58 14.7731 275.737 15.1171C275.745 15.1353 275.759 15.1508 275.778 15.1618C275.796 15.1727 275.817 15.1786 275.839 15.1786C275.861 15.1786 275.883 15.1727 275.901 15.1618C275.919 15.1508 275.934 15.1353 275.942 15.1171C276.101 14.7731 276.457 14.182 277.113 13.93C277.133 13.9221 277.149 13.9092 277.161 13.893C277.173 13.8768 277.179 13.8578 277.179 13.8386C277.178 13.8193 277.172 13.8004 277.16 13.7843C277.148 13.7683 277.131 13.7556 277.112 13.7479Z" fill="#8D33FF"/>
<path d="M287.233 25V14.8182H288.466V19.3523H293.895V14.8182H295.128V25H293.895V20.446H288.466V25H287.233ZM299.684 25.179C299.2 25.179 298.761 25.0878 298.367 24.9055C297.972 24.7199 297.659 24.4531 297.427 24.1051C297.195 23.7538 297.079 23.3295 297.079 22.8324C297.079 22.3949 297.165 22.0402 297.338 21.7685C297.51 21.4934 297.74 21.2779 298.029 21.1222C298.317 20.9664 298.635 20.8504 298.983 20.7741C299.335 20.6946 299.688 20.6316 300.042 20.5852C300.506 20.5256 300.882 20.4808 301.171 20.451C301.462 20.4179 301.675 20.3632 301.807 20.2869C301.943 20.2107 302.011 20.0781 302.011 19.8892V19.8494C302.011 19.3589 301.877 18.9777 301.608 18.706C301.343 18.4342 300.94 18.2983 300.4 18.2983C299.84 18.2983 299.401 18.4209 299.083 18.6662C298.765 18.9115 298.541 19.1733 298.412 19.4517L297.298 19.054C297.497 18.59 297.762 18.2287 298.093 17.9702C298.428 17.7083 298.793 17.526 299.187 17.4233C299.585 17.3172 299.976 17.2642 300.36 17.2642C300.606 17.2642 300.887 17.294 301.206 17.3537C301.527 17.41 301.837 17.5277 302.135 17.7067C302.437 17.8857 302.687 18.1558 302.886 18.517C303.085 18.8783 303.184 19.3622 303.184 19.9688V25H302.011V23.9659H301.951C301.872 24.1316 301.739 24.3089 301.554 24.4979C301.368 24.6868 301.121 24.8475 300.813 24.9801C300.505 25.1127 300.128 25.179 299.684 25.179ZM299.863 24.125C300.327 24.125 300.718 24.0339 301.037 23.8516C301.358 23.6693 301.6 23.4339 301.762 23.1456C301.928 22.8572 302.011 22.554 302.011 22.2358V21.1619C301.961 21.2216 301.852 21.2763 301.683 21.326C301.517 21.3724 301.325 21.4138 301.106 21.4503C300.891 21.4834 300.68 21.5133 300.475 21.5398C300.273 21.563 300.109 21.5829 299.983 21.5994C299.678 21.6392 299.393 21.7038 299.127 21.7933C298.866 21.8795 298.654 22.0104 298.491 22.1861C298.332 22.3584 298.252 22.5937 298.252 22.892C298.252 23.2997 298.403 23.608 298.705 23.8168C299.01 24.0223 299.396 24.125 299.863 24.125ZM305.326 27.8636V17.3636H306.459V18.5767H306.599C306.685 18.4441 306.804 18.2751 306.956 18.0696C307.112 17.8608 307.334 17.6752 307.623 17.5128C307.914 17.3471 308.309 17.2642 308.806 17.2642C309.449 17.2642 310.016 17.425 310.506 17.7464C310.997 18.0679 311.38 18.5237 311.655 19.1136C311.93 19.7036 312.067 20.3996 312.067 21.2017C312.067 22.0104 311.93 22.7114 311.655 23.3047C311.38 23.8946 310.998 24.352 310.511 24.6768C310.024 24.9983 309.462 25.1591 308.826 25.1591C308.335 25.1591 307.943 25.0779 307.648 24.9155C307.353 24.7498 307.126 24.5625 306.966 24.3537C306.807 24.1416 306.685 23.9659 306.599 23.8267H306.499V27.8636H305.326ZM306.479 21.1818C306.479 21.7585 306.564 22.2673 306.733 22.7081C306.902 23.1456 307.149 23.4886 307.474 23.7372C307.798 23.9825 308.196 24.1051 308.667 24.1051C309.157 24.1051 309.567 23.9759 309.895 23.7173C310.226 23.4555 310.475 23.1042 310.64 22.6634C310.809 22.2192 310.894 21.7254 310.894 21.1818C310.894 20.6449 310.811 20.161 310.645 19.7301C310.483 19.2959 310.236 18.9529 309.905 18.701C309.577 18.4458 309.164 18.3182 308.667 18.3182C308.189 18.3182 307.788 18.4392 307.464 18.6811C307.139 18.9197 306.894 19.2545 306.728 19.6854C306.562 20.1129 306.479 20.6117 306.479 21.1818ZM313.857 27.8636V17.3636H314.991V18.5767H315.13C315.216 18.4441 315.335 18.2751 315.488 18.0696C315.644 17.8608 315.866 17.6752 316.154 17.5128C316.446 17.3471 316.84 17.2642 317.337 17.2642C317.98 17.2642 318.547 17.425 319.037 17.7464C319.528 18.0679 319.911 18.5237 320.186 19.1136C320.461 19.7036 320.599 20.3996 320.599 21.2017C320.599 22.0104 320.461 22.7114 320.186 23.3047C319.911 23.8946 319.53 24.352 319.042 24.6768C318.555 24.9983 317.993 25.1591 317.357 25.1591C316.867 25.1591 316.474 25.0779 316.179 24.9155C315.884 24.7498 315.657 24.5625 315.498 24.3537C315.339 24.1416 315.216 23.9659 315.13 23.8267H315.03V27.8636H313.857ZM315.01 21.1818C315.01 21.7585 315.095 22.2673 315.264 22.7081C315.433 23.1456 315.68 23.4886 316.005 23.7372C316.33 23.9825 316.727 24.1051 317.198 24.1051C317.689 24.1051 318.098 23.9759 318.426 23.7173C318.757 23.4555 319.006 23.1042 319.172 22.6634C319.341 22.2192 319.425 21.7254 319.425 21.1818C319.425 20.6449 319.342 20.161 319.177 19.7301C319.014 19.2959 318.767 18.9529 318.436 18.701C318.108 18.4458 317.695 18.3182 317.198 18.3182C316.721 18.3182 316.32 18.4392 315.995 18.6811C315.67 18.9197 315.425 19.2545 315.259 19.6854C315.093 20.1129 315.01 20.6117 315.01 21.1818ZM322.388 25V17.3636H323.562V25H322.388ZM322.985 16.0909C322.756 16.0909 322.559 16.013 322.393 15.8572C322.231 15.7015 322.15 15.5142 322.15 15.2955C322.15 15.0767 322.231 14.8894 322.393 14.7337C322.559 14.5779 322.756 14.5 322.985 14.5C323.214 14.5 323.409 14.5779 323.572 14.7337C323.737 14.8894 323.82 15.0767 323.82 15.2955C323.82 15.5142 323.737 15.7015 323.572 15.8572C323.409 16.013 323.214 16.0909 322.985 16.0909ZM326.884 20.4062V25H325.711V17.3636H326.844V18.5568H326.944C327.123 18.169 327.394 17.8575 327.759 17.6222C328.123 17.3835 328.594 17.2642 329.171 17.2642C329.688 17.2642 330.14 17.3703 330.528 17.5824C330.916 17.7912 331.217 18.1094 331.433 18.5369C331.648 18.9612 331.756 19.4981 331.756 20.1477V25H330.583V20.2273C330.583 19.6274 330.427 19.16 330.115 18.8253C329.804 18.4872 329.376 18.3182 328.833 18.3182C328.458 18.3182 328.123 18.3994 327.828 18.5618C327.537 18.7242 327.306 18.9612 327.137 19.2727C326.968 19.5843 326.884 19.9621 326.884 20.4062ZM337.102 25.1591C336.366 25.1591 335.731 24.9967 335.198 24.6719C334.667 24.3438 334.258 23.8864 333.97 23.2997C333.685 22.7098 333.542 22.0237 333.542 21.2415C333.542 20.4593 333.685 19.7699 333.97 19.1733C334.258 18.5734 334.659 18.1061 335.173 17.7713C335.69 17.4332 336.293 17.2642 336.982 17.2642C337.38 17.2642 337.773 17.3305 338.161 17.4631C338.548 17.5956 338.901 17.8111 339.22 18.1094C339.538 18.4044 339.791 18.7955 339.98 19.2827C340.169 19.7699 340.264 20.3698 340.264 21.0824V21.5795H334.377V20.5653H339.07C339.07 20.1345 338.984 19.75 338.812 19.4119C338.643 19.0739 338.401 18.8071 338.086 18.6115C337.775 18.416 337.407 18.3182 336.982 18.3182C336.515 18.3182 336.111 18.4342 335.769 18.6662C335.431 18.8949 335.171 19.1932 334.989 19.5611C334.807 19.929 334.715 20.3234 334.715 20.7443V21.4205C334.715 21.9972 334.815 22.486 335.014 22.8871C335.216 23.2848 335.496 23.5881 335.854 23.7969C336.212 24.0024 336.628 24.1051 337.102 24.1051C337.41 24.1051 337.688 24.062 337.937 23.9759C338.189 23.8864 338.406 23.7538 338.588 23.5781C338.771 23.3991 338.911 23.1771 339.011 22.9119L340.144 23.2301C340.025 23.6146 339.825 23.9527 339.543 24.2443C339.261 24.5327 338.913 24.758 338.499 24.9205C338.084 25.0795 337.619 25.1591 337.102 25.1591ZM347.458 19.0739L346.404 19.3722C346.337 19.1965 346.24 19.0258 346.11 18.8601C345.984 18.6911 345.812 18.5518 345.593 18.4425C345.374 18.3331 345.094 18.2784 344.753 18.2784C344.286 18.2784 343.896 18.3861 343.585 18.6016C343.276 18.8137 343.122 19.0838 343.122 19.4119C343.122 19.7036 343.228 19.9339 343.441 20.103C343.653 20.272 343.984 20.4129 344.435 20.5256L345.568 20.804C346.251 20.9697 346.76 21.2232 347.095 21.5646C347.429 21.9027 347.597 22.3385 347.597 22.8722C347.597 23.3097 347.471 23.7008 347.219 24.0455C346.97 24.3902 346.622 24.6619 346.175 24.8608C345.727 25.0597 345.207 25.1591 344.614 25.1591C343.835 25.1591 343.19 24.9901 342.68 24.652C342.169 24.3139 341.846 23.8201 341.71 23.1705L342.824 22.892C342.93 23.303 343.131 23.6113 343.426 23.8168C343.724 24.0223 344.113 24.125 344.594 24.125C345.141 24.125 345.575 24.009 345.896 23.777C346.221 23.5417 346.384 23.2599 346.384 22.9318C346.384 22.6667 346.291 22.4446 346.105 22.2656C345.92 22.0833 345.635 21.9474 345.25 21.858L343.977 21.5597C343.278 21.3939 342.764 21.1371 342.436 20.7891C342.111 20.4377 341.949 19.9986 341.949 19.4716C341.949 19.0407 342.07 18.6596 342.312 18.3281C342.557 17.9967 342.89 17.7365 343.311 17.5476C343.735 17.3587 344.216 17.2642 344.753 17.2642C345.509 17.2642 346.102 17.4299 346.533 17.7614C346.967 18.0928 347.275 18.5303 347.458 19.0739ZM354.772 19.0739L353.718 19.3722C353.652 19.1965 353.554 19.0258 353.425 18.8601C353.299 18.6911 353.126 18.5518 352.908 18.4425C352.689 18.3331 352.409 18.2784 352.067 18.2784C351.6 18.2784 351.211 18.3861 350.899 18.6016C350.591 18.8137 350.437 19.0838 350.437 19.4119C350.437 19.7036 350.543 19.9339 350.755 20.103C350.967 20.272 351.299 20.4129 351.749 20.5256L352.883 20.804C353.566 20.9697 354.074 21.2232 354.409 21.5646C354.744 21.9027 354.911 22.3385 354.911 22.8722C354.911 23.3097 354.785 23.7008 354.533 24.0455C354.285 24.3902 353.937 24.6619 353.489 24.8608C353.042 25.0597 352.522 25.1591 351.928 25.1591C351.149 25.1591 350.505 24.9901 349.994 24.652C349.484 24.3139 349.161 23.8201 349.025 23.1705L350.138 22.892C350.245 23.303 350.445 23.6113 350.74 23.8168C351.038 24.0223 351.428 24.125 351.908 24.125C352.455 24.125 352.889 24.009 353.211 23.777C353.536 23.5417 353.698 23.2599 353.698 22.9318C353.698 22.6667 353.605 22.4446 353.42 22.2656C353.234 22.0833 352.949 21.9474 352.565 21.858L351.292 21.5597C350.593 21.3939 350.079 21.1371 349.751 20.7891C349.426 20.4377 349.263 19.9986 349.263 19.4716C349.263 19.0407 349.384 18.6596 349.626 18.3281C349.872 17.9967 350.205 17.7365 350.626 17.5476C351.05 17.3587 351.531 17.2642 352.067 17.2642C352.823 17.2642 353.416 17.4299 353.847 17.7614C354.281 18.0928 354.59 18.5303 354.772 19.0739Z" fill="black"/>
<rect x="248.5" y="0.5" width="115" height="39" rx="7.5" stroke="black" stroke-opacity="0.1"/>
<rect y="48" width="116" height="40" rx="8" fill="white"/>
<g clip-path="url(#clip0_1_1765)">
<path d="M22.2499 73.9467C25.6571 72.5949 27.3232 68.7371 25.9714 65.3299C24.6196 61.9228 20.7617 60.2567 17.3546 61.6085C13.9475 62.9603 12.2813 66.8182 13.6331 70.2253C14.985 73.6324 18.8428 75.2986 22.2499 73.9467Z" fill="#FF8833"/>
<path d="M25.3645 64.1475C24.445 65.5914 22.6141 67.0525 19.956 68.1072C17.2979 69.1618 14.9431 69.4762 13.2838 69.0554C10.9459 70.3963 9.3218 71.5687 9.57365 72.2035C9.99077 73.2548 15.2779 73.0398 20.9908 70.7731C26.7037 68.5065 30.7 65.0382 30.2829 63.9869C30.031 63.3521 27.9857 63.5208 25.3645 64.1475Z" fill="#8D33FF"/>
<path d="M14.8 76.3977C14.0623 76.1154 13.6651 75.4549 13.4885 75.0689C13.4791 75.0485 13.4632 75.0311 13.4427 75.0188C13.4222 75.0065 13.3981 75 13.3735 75C13.3488 75 13.3248 75.0065 13.3043 75.0188C13.2838 75.0311 13.2678 75.0485 13.2584 75.0689C13.0811 75.4549 12.6823 76.1175 11.9501 76.3977C11.9278 76.4063 11.9088 76.4206 11.8954 76.4388C11.8821 76.457 11.875 76.4782 11.875 76.5C11.875 76.5218 11.8821 76.543 11.8954 76.5612C11.9088 76.5794 11.9278 76.5937 11.9501 76.6023C12.687 76.8846 13.0842 77.5458 13.26 77.9311C13.2694 77.9515 13.2854 77.9689 13.3058 77.9812C13.3263 77.9935 13.3504 78 13.3751 78C13.3997 78 13.4238 77.9935 13.4443 77.9812C13.4647 77.9689 13.4807 77.9515 13.4901 77.9311C13.6682 77.5458 14.0671 76.8839 14.8016 76.6016C14.8236 76.5927 14.8423 76.5783 14.8553 76.5602C14.8683 76.542 14.8752 76.5208 14.875 76.4992C14.8748 76.4776 14.8677 76.4565 14.8544 76.4385C14.841 76.4204 14.8222 76.4063 14.8 76.3977Z" fill="#8D33FF"/>
<path d="M25.2281 58.5425C24.4139 58.231 23.9756 57.502 23.7807 57.076C23.7703 57.0535 23.7527 57.0343 23.7301 57.0208C23.7075 57.0072 23.6809 57 23.6537 57C23.6265 57 23.6 57.0072 23.5773 57.0208C23.5547 57.0343 23.5371 57.0535 23.5267 57.076C23.331 57.502 22.8909 58.2333 22.0828 58.5425C22.0582 58.552 22.0373 58.5678 22.0226 58.5879C22.0078 58.6079 22 58.6314 22 58.6554C22 58.6794 22.0078 58.7029 22.0226 58.723C22.0373 58.743 22.0582 58.7588 22.0828 58.7683C22.8961 59.0798 23.3345 59.8096 23.5285 60.2348C23.5389 60.2573 23.5565 60.2765 23.5791 60.2901C23.6017 60.3036 23.6283 60.3108 23.6555 60.3108C23.6827 60.3108 23.7092 60.3036 23.7318 60.2901C23.7544 60.2765 23.7721 60.2573 23.7825 60.2348C23.979 59.8096 24.4192 59.0791 25.2298 58.7676C25.2541 58.7578 25.2747 58.7419 25.2891 58.7218C25.3034 58.7017 25.311 58.6784 25.3108 58.6545C25.3106 58.6307 25.3027 58.6074 25.288 58.5875C25.2733 58.5676 25.2525 58.552 25.2281 58.5425Z" fill="#8D33FF"/>
<path d="M28.9409 60.7505C28.3594 60.5279 28.0462 60.0073 27.9071 59.703C27.8996 59.6869 27.8871 59.6732 27.8709 59.6635C27.8548 59.6538 27.8358 59.6487 27.8164 59.6487C27.7969 59.6487 27.778 59.6538 27.7618 59.6635C27.7457 59.6732 27.7331 59.6869 27.7257 59.703C27.5859 60.0073 27.2715 60.5296 26.6943 60.7505C26.6767 60.7573 26.6618 60.7685 26.6512 60.7829C26.6407 60.7972 26.6351 60.814 26.6351 60.8311C26.6351 60.8483 26.6407 60.865 26.6512 60.8794C26.6618 60.8937 26.6767 60.905 26.6943 60.9118C27.2752 61.1343 27.5883 61.6555 27.7269 61.9593C27.7343 61.9753 27.7469 61.9891 27.7631 61.9987C27.7792 62.0084 27.7982 62.0135 27.8176 62.0135C27.837 62.0135 27.856 62.0084 27.8722 61.9987C27.8883 61.9891 27.9009 61.9753 27.9083 61.9593C28.0487 61.6555 28.3631 61.1337 28.9422 60.9112C28.9595 60.9042 28.9742 60.8929 28.9845 60.8785C28.9947 60.8642 29.0001 60.8475 29 60.8305C28.9999 60.8134 28.9942 60.7968 28.9837 60.7826C28.9732 60.7684 28.9584 60.7572 28.9409 60.7505Z" fill="#8D33FF"/>
</g>
<path d="M44.8011 65.3636C44.7415 64.8598 44.4995 64.4688 44.0753 64.1903C43.651 63.9119 43.1307 63.7727 42.5142 63.7727C42.0634 63.7727 41.669 63.8456 41.331 63.9915C40.9962 64.1373 40.7344 64.3378 40.5455 64.593C40.3598 64.8482 40.267 65.1383 40.267 65.4631C40.267 65.7348 40.3317 65.9685 40.4609 66.1641C40.5935 66.3563 40.7625 66.517 40.968 66.6463C41.1735 66.7723 41.389 66.8767 41.6143 66.9595C41.8397 67.0391 42.0469 67.1037 42.2358 67.1534L43.2699 67.4318C43.535 67.5014 43.83 67.5975 44.1548 67.7202C44.483 67.8428 44.7962 68.0102 45.0945 68.2223C45.3961 68.4311 45.6446 68.6996 45.8402 69.0277C46.0357 69.3558 46.1335 69.7585 46.1335 70.2358C46.1335 70.786 45.9893 71.2831 45.701 71.7273C45.416 72.1714 44.9983 72.5244 44.4482 72.7862C43.9013 73.0481 43.2367 73.179 42.4545 73.179C41.7254 73.179 41.094 73.0613 40.5604 72.826C40.0301 72.5907 39.6125 72.2625 39.3075 71.8416C39.0059 71.4207 38.8352 70.9318 38.7955 70.375H40.0682C40.1013 70.7595 40.2306 71.0777 40.456 71.3295C40.6847 71.5781 40.973 71.7637 41.321 71.8864C41.6723 72.0057 42.0502 72.0653 42.4545 72.0653C42.9252 72.0653 43.3478 71.9891 43.7223 71.8366C44.0968 71.6809 44.3935 71.4654 44.6122 71.1903C44.831 70.9119 44.9403 70.5871 44.9403 70.2159C44.9403 69.8778 44.8459 69.6027 44.657 69.3906C44.468 69.1785 44.2195 69.0062 43.9112 68.8736C43.603 68.741 43.2699 68.625 42.9119 68.5256L41.6591 68.1676C40.8636 67.9389 40.2339 67.6125 39.7699 67.1882C39.3059 66.764 39.0739 66.2088 39.0739 65.5227C39.0739 64.9527 39.228 64.4555 39.5362 64.0312C39.8478 63.6037 40.2654 63.2723 40.7891 63.0369C41.3161 62.7983 41.9044 62.679 42.554 62.679C43.2102 62.679 43.7936 62.7966 44.304 63.032C44.8144 63.264 45.2188 63.5821 45.517 63.9865C45.8187 64.3909 45.9777 64.8499 45.9943 65.3636H44.8011ZM48.0016 75.8636V65.3636H49.1351V66.5767H49.2743C49.3605 66.4441 49.4798 66.2751 49.6323 66.0696C49.7881 65.8608 50.0101 65.6752 50.2985 65.5128C50.5901 65.3471 50.9846 65.2642 51.4817 65.2642C52.1247 65.2642 52.6915 65.425 53.182 65.7464C53.6725 66.0679 54.0553 66.5237 54.3304 67.1136C54.6055 67.7036 54.7431 68.3996 54.7431 69.2017C54.7431 70.0104 54.6055 70.7114 54.3304 71.3047C54.0553 71.8946 53.6742 72.352 53.187 72.6768C52.6998 72.9983 52.138 73.1591 51.5016 73.1591C51.0111 73.1591 50.6183 73.0779 50.3233 72.9155C50.0283 72.7498 49.8013 72.5625 49.6422 72.3537C49.4831 72.1416 49.3605 71.9659 49.2743 71.8267H49.1749V75.8636H48.0016ZM49.155 69.1818C49.155 69.7585 49.2395 70.2673 49.4086 70.7081C49.5776 71.1456 49.8245 71.4886 50.1493 71.7372C50.4741 71.9825 50.8719 72.1051 51.3425 72.1051C51.833 72.1051 52.2424 71.9759 52.5705 71.7173C52.9019 71.4555 53.1505 71.1042 53.3162 70.6634C53.4853 70.2192 53.5698 69.7254 53.5698 69.1818C53.5698 68.6449 53.4869 68.161 53.3212 67.7301C53.1588 67.2959 52.9119 66.9529 52.5804 66.701C52.2523 66.4458 51.8397 66.3182 51.3425 66.3182C50.8652 66.3182 50.4642 66.4392 50.1394 66.6811C49.8146 66.9197 49.5693 67.2545 49.4036 67.6854C49.2379 68.1129 49.155 68.6117 49.155 69.1818ZM56.5328 73V65.3636H57.7061V73H56.5328ZM57.1294 64.0909C56.9007 64.0909 56.7035 64.013 56.5378 63.8572C56.3754 63.7015 56.2942 63.5142 56.2942 63.2955C56.2942 63.0767 56.3754 62.8894 56.5378 62.7337C56.7035 62.5779 56.9007 62.5 57.1294 62.5C57.3581 62.5 57.5537 62.5779 57.7161 62.7337C57.8818 62.8894 57.9647 63.0767 57.9647 63.2955C57.9647 63.5142 57.8818 63.7015 57.7161 63.8572C57.5537 64.013 57.3581 64.0909 57.1294 64.0909ZM59.8551 73V65.3636H60.9886V66.517H61.0682C61.2074 66.1392 61.4593 65.8326 61.8239 65.5973C62.1884 65.362 62.5994 65.2443 63.0568 65.2443C63.143 65.2443 63.2507 65.246 63.38 65.2493C63.5092 65.2526 63.607 65.2576 63.6733 65.2642V66.4574C63.6335 66.4474 63.5424 66.4325 63.3999 66.4126C63.2607 66.3894 63.1132 66.3778 62.9574 66.3778C62.5862 66.3778 62.2547 66.4557 61.9631 66.6115C61.6747 66.764 61.446 66.9761 61.277 67.2479C61.1113 67.5163 61.0284 67.8229 61.0284 68.1676V73H59.8551ZM65.0641 73V65.3636H66.2374V73H65.0641ZM65.6607 64.0909C65.432 64.0909 65.2348 64.013 65.0691 63.8572C64.9067 63.7015 64.8255 63.5142 64.8255 63.2955C64.8255 63.0767 64.9067 62.8894 65.0691 62.7337C65.2348 62.5779 65.432 62.5 65.6607 62.5C65.8894 62.5 66.0849 62.5779 66.2473 62.7337C66.4131 62.8894 66.4959 63.0767 66.4959 63.2955C66.4959 63.5142 66.4131 63.7015 66.2473 63.8572C66.0849 64.013 65.8894 64.0909 65.6607 64.0909ZM71.7074 65.3636V66.358H67.75V65.3636H71.7074ZM68.9034 63.5341H70.0767V70.8125C70.0767 71.1439 70.1248 71.3925 70.2209 71.5582C70.3203 71.7206 70.4463 71.83 70.5987 71.8864C70.7545 71.9394 70.9186 71.9659 71.0909 71.9659C71.2202 71.9659 71.3262 71.9593 71.4091 71.946C71.492 71.9295 71.5582 71.9162 71.608 71.9062L71.8466 72.9602C71.767 72.9901 71.656 73.0199 71.5135 73.0497C71.371 73.0829 71.1903 73.0994 70.9716 73.0994C70.6402 73.0994 70.3153 73.0282 69.9972 72.8857C69.6823 72.7431 69.4205 72.526 69.2116 72.2344C69.0062 71.9427 68.9034 71.5748 68.9034 71.1307V63.5341ZM78.2848 69.8778V65.3636H79.4581V73H78.2848V71.7074H78.2053C78.0263 72.0952 77.7479 72.425 77.37 72.6967C76.9922 72.9652 76.5149 73.0994 75.9382 73.0994C75.4609 73.0994 75.0367 72.995 74.6655 72.7862C74.2943 72.5741 74.0026 72.2559 73.7905 71.8317C73.5784 71.4041 73.4723 70.8655 73.4723 70.2159V65.3636H74.6456V70.1364C74.6456 70.6932 74.8014 71.1373 75.1129 71.4688C75.4278 71.8002 75.8288 71.9659 76.3161 71.9659C76.6077 71.9659 76.9044 71.8913 77.206 71.7422C77.5109 71.593 77.7661 71.3643 77.9716 71.0561C78.1804 70.7479 78.2848 70.3551 78.2848 69.8778ZM83.8542 73.179C83.3703 73.179 82.9312 73.0878 82.5368 72.9055C82.1423 72.7199 81.8291 72.4531 81.5971 72.1051C81.3651 71.7538 81.2491 71.3295 81.2491 70.8324C81.2491 70.3949 81.3353 70.0402 81.5076 69.7685C81.68 69.4934 81.9103 69.2779 82.1987 69.1222C82.487 68.9664 82.8052 68.8504 83.1532 68.7741C83.5046 68.6946 83.8575 68.6316 84.2122 68.5852C84.6762 68.5256 85.0524 68.4808 85.3407 68.451C85.6324 68.4179 85.8445 68.3632 85.9771 68.2869C86.113 68.2107 86.1809 68.0781 86.1809 67.8892V67.8494C86.1809 67.3589 86.0467 66.9777 85.7782 66.706C85.5131 66.4342 85.1104 66.2983 84.5701 66.2983C84.01 66.2983 83.5708 66.4209 83.2527 66.6662C82.9345 66.9115 82.7108 67.1733 82.5815 67.4517L81.4679 67.054C81.6667 66.59 81.9319 66.2287 82.2633 65.9702C82.5981 65.7083 82.9627 65.526 83.3571 65.4233C83.7548 65.3172 84.1459 65.2642 84.5304 65.2642C84.7756 65.2642 85.0574 65.294 85.3755 65.3537C85.697 65.41 86.0069 65.5277 86.3052 65.7067C86.6068 65.8857 86.8571 66.1558 87.0559 66.517C87.2548 66.8783 87.3542 67.3622 87.3542 67.9688V73H86.1809V71.9659H86.1213C86.0417 72.1316 85.9092 72.3089 85.7235 72.4979C85.5379 72.6868 85.291 72.8475 84.9828 72.9801C84.6745 73.1127 84.2984 73.179 83.8542 73.179ZM84.0332 72.125C84.4972 72.125 84.8883 72.0339 85.2065 71.8516C85.528 71.6693 85.7699 71.4339 85.9324 71.1456C86.0981 70.8572 86.1809 70.554 86.1809 70.2358V69.1619C86.1312 69.2216 86.0218 69.2763 85.8528 69.326C85.6871 69.3724 85.4949 69.4138 85.2761 69.4503C85.0607 69.4834 84.8502 69.5133 84.6447 69.5398C84.4425 69.563 84.2785 69.5829 84.1525 69.5994C83.8476 69.6392 83.5626 69.7038 83.2974 69.7933C83.0356 69.8795 82.8234 70.0104 82.661 70.1861C82.502 70.3584 82.4224 70.5937 82.4224 70.892C82.4224 71.2997 82.5732 71.608 82.8748 71.8168C83.1797 72.0223 83.5659 72.125 84.0332 72.125ZM90.669 62.8182V73H89.4957V62.8182H90.669ZM92.818 73V65.3636H93.9913V73H92.818ZM93.4146 64.0909C93.1859 64.0909 92.9887 64.013 92.823 63.8572C92.6606 63.7015 92.5794 63.5142 92.5794 63.2955C92.5794 63.0767 92.6606 62.8894 92.823 62.7337C92.9887 62.5779 93.1859 62.5 93.4146 62.5C93.6433 62.5 93.8388 62.5779 94.0012 62.7337C94.167 62.8894 94.2498 63.0767 94.2498 63.2955C94.2498 63.5142 94.167 63.7015 94.0012 63.8572C93.8388 64.013 93.6433 64.0909 93.4146 64.0909ZM99.4613 65.3636V66.358H95.5039V65.3636H99.4613ZM96.6573 63.5341H97.8306V70.8125C97.8306 71.1439 97.8787 71.3925 97.9748 71.5582C98.0742 71.7206 98.2002 71.83 98.3526 71.8864C98.5084 71.9394 98.6725 71.9659 98.8448 71.9659C98.9741 71.9659 99.0801 71.9593 99.163 71.946C99.2459 71.9295 99.3121 71.9162 99.3619 71.9062L99.6005 72.9602C99.521 72.9901 99.4099 73.0199 99.2674 73.0497C99.1249 73.0829 98.9442 73.0994 98.7255 73.0994C98.3941 73.0994 98.0692 73.0282 97.7511 72.8857C97.4362 72.7431 97.1744 72.526 96.9656 72.2344C96.7601 71.9427 96.6573 71.5748 96.6573 71.1307V63.5341ZM101.982 75.8636C101.783 75.8636 101.606 75.8471 101.45 75.8139C101.294 75.7841 101.186 75.7543 101.127 75.7244L101.425 74.6903C101.71 74.7633 101.962 74.7898 102.181 74.7699C102.4 74.75 102.593 74.6522 102.762 74.4766C102.935 74.3042 103.092 74.0241 103.235 73.6364L103.453 73.0398L100.63 65.3636H101.902L104.01 71.4489H104.09L106.198 65.3636H107.471L104.229 74.1136C104.083 74.508 103.903 74.8345 103.687 75.093C103.472 75.3549 103.221 75.5488 102.936 75.6747C102.655 75.8007 102.337 75.8636 101.982 75.8636Z" fill="black"/>
<rect x="0.5" y="48.5" width="115" height="39" rx="7.5" stroke="black" stroke-opacity="0.1"/>
<rect x="124.5" y="48.5" width="125" height="39" rx="7.5" fill="#E6E9F5"/>
<path fill-rule="evenodd" clip-rule="evenodd" d="M148.9 57.5H138.767V62.5667C138.767 64.4743 139.821 66.1357 141.379 67C139.821 67.8643 138.767 69.5257 138.767 71.4333L138.767 76.5H148.9V71.4333C148.9 69.5257 147.846 67.8643 146.288 67C147.846 66.1357 148.9 64.4743 148.9 62.5667V57.5Z" fill="#8D33FF"/>
<mask id="mask1_1_1765" style="mask-type:alpha" maskUnits="userSpaceOnUse" x="138" y="57" width="11" height="20">
<path fill-rule="evenodd" clip-rule="evenodd" d="M148.9 57.5H138.767V62.5667C138.767 64.4743 139.821 66.1357 141.379 67C139.821 67.8643 138.767 69.5257 138.767 71.4333L138.767 76.5H148.9V71.4333C148.9 69.5257 147.846 67.8643 146.288 67C147.846 66.1357 148.9 64.4743 148.9 62.5667V57.5Z" fill="#731DE0"/>
</mask>
<g mask="url(#mask1_1_1765)">
<path d="M147.633 67.0002H140.667L139.4 66.5779C139.048 65.5927 138.429 63.749 138.767 64.2557C139.189 64.889 141.511 65.1002 144.467 64.0447C146.831 63.2002 148.548 63.9743 149.111 64.4669L147.633 67.0002Z" fill="#FF8833"/>
<path d="M138.325 75.6557H148.184L149.977 75.0669C150.475 73.6933 151.351 71.1229 150.873 71.8293C150.275 72.7122 146.989 73.0067 142.806 71.5351C139.46 70.3577 137.03 71.437 136.233 72.1237L138.325 75.6557Z" fill="#FF8833"/>
<path d="M143.411 68.2666C143.411 68.6164 143.127 68.9 142.778 68.9C142.428 68.9 142.144 68.6164 142.144 68.2666C142.144 67.9169 142.428 67.6333 142.778 67.6333C143.127 67.6333 143.411 67.9169 143.411 68.2666Z" fill="#FF8833"/>
<path d="M145.522 70.3777C145.522 70.7275 145.239 71.0111 144.889 71.0111C144.539 71.0111 144.255 70.7275 144.255 70.3777C144.255 70.0279 144.539 69.7444 144.889 69.7444C145.239 69.7444 145.522 70.0279 145.522 70.3777Z" fill="#FF8833"/>
<path d="M143.833 71.6446C143.833 71.9943 143.55 72.2779 143.2 72.2779C142.85 72.2779 142.567 71.9943 142.567 71.6446C142.567 71.2948 142.85 71.0112 143.2 71.0112C143.55 71.0112 143.833 71.2948 143.833 71.6446Z" fill="#FF8833"/>
</g>
<path d="M137.5 58.5C137.5 57.9477 137.948 57.5 138.5 57.5H149.167C149.719 57.5 150.167 57.9477 150.167 58.5V59.4556C150.167 60.0078 149.719 60.4556 149.167 60.4556H138.5C137.948 60.4556 137.5 60.0078 137.5 59.4556V58.5Z" fill="#FF8833"/>
<path d="M137.5 74.5447C137.5 73.9924 137.948 73.5447 138.5 73.5447H149.167C149.719 73.5447 150.167 73.9924 150.167 74.5447V75.5002C150.167 76.0525 149.719 76.5002 149.167 76.5002H138.5C137.948 76.5002 137.5 76.0525 137.5 75.5002V74.5447Z" fill="#FF8833"/>
<path d="M163.233 73V62.8182H166.673C167.472 62.8182 168.125 62.9624 168.632 63.2507C169.143 63.5357 169.52 63.9219 169.766 64.4091C170.011 64.8963 170.134 65.4399 170.134 66.0398C170.134 66.6397 170.011 67.1849 169.766 67.6754C169.524 68.166 169.149 68.5571 168.642 68.8487C168.135 69.1371 167.485 69.2812 166.693 69.2812H164.227V68.1875H166.653C167.2 68.1875 167.639 68.093 167.971 67.9041C168.302 67.7152 168.543 67.46 168.692 67.1385C168.844 66.8137 168.92 66.4474 168.92 66.0398C168.92 65.6321 168.844 65.2675 168.692 64.946C168.543 64.6245 168.301 64.3726 167.966 64.1903C167.631 64.0047 167.187 63.9119 166.634 63.9119H164.466V73H163.233ZM171.961 73V65.3636H173.094V66.517H173.174C173.313 66.1392 173.565 65.8326 173.929 65.5973C174.294 65.362 174.705 65.2443 175.162 65.2443C175.248 65.2443 175.356 65.246 175.485 65.2493C175.615 65.2526 175.712 65.2576 175.779 65.2642V66.4574C175.739 66.4474 175.648 66.4325 175.505 66.4126C175.366 66.3894 175.219 66.3778 175.063 66.3778C174.692 66.3778 174.36 66.4557 174.069 66.6115C173.78 66.764 173.551 66.9761 173.382 67.2479C173.217 67.5163 173.134 67.8229 173.134 68.1676V73H171.961ZM180.039 73.1591C179.35 73.1591 178.745 72.995 178.225 72.6669C177.708 72.3388 177.303 71.8797 177.012 71.2898C176.723 70.6998 176.579 70.0104 176.579 69.2216C176.579 68.4261 176.723 67.7318 177.012 67.1385C177.303 66.5452 177.708 66.0845 178.225 65.7564C178.745 65.4283 179.35 65.2642 180.039 65.2642C180.729 65.2642 181.332 65.4283 181.849 65.7564C182.369 66.0845 182.774 66.5452 183.062 67.1385C183.354 67.7318 183.5 68.4261 183.5 69.2216C183.5 70.0104 183.354 70.6998 183.062 71.2898C182.774 71.8797 182.369 72.3388 181.849 72.6669C181.332 72.995 180.729 73.1591 180.039 73.1591ZM180.039 72.1051C180.563 72.1051 180.994 71.9709 181.332 71.7024C181.67 71.4339 181.92 71.081 182.083 70.6435C182.245 70.206 182.326 69.732 182.326 69.2216C182.326 68.7112 182.245 68.2356 182.083 67.7947C181.92 67.3539 181.67 66.9976 181.332 66.7259C180.994 66.4541 180.563 66.3182 180.039 66.3182C179.516 66.3182 179.085 66.4541 178.747 66.7259C178.409 66.9976 178.158 67.3539 177.996 67.7947C177.834 68.2356 177.752 68.7112 177.752 69.2216C177.752 69.732 177.834 70.206 177.996 70.6435C178.158 71.081 178.409 71.4339 178.747 71.7024C179.085 71.9709 179.516 72.1051 180.039 72.1051ZM188.174 73.1591C187.538 73.1591 186.976 72.9983 186.489 72.6768C186.002 72.352 185.62 71.8946 185.345 71.3047C185.07 70.7114 184.933 70.0104 184.933 69.2017C184.933 68.3996 185.07 67.7036 185.345 67.1136C185.62 66.5237 186.003 66.0679 186.494 65.7464C186.984 65.425 187.551 65.2642 188.194 65.2642C188.691 65.2642 189.084 65.3471 189.372 65.5128C189.664 65.6752 189.886 65.8608 190.039 66.0696C190.194 66.2751 190.315 66.4441 190.401 66.5767H190.501V62.8182H191.674V73H190.541V71.8267H190.401C190.315 71.9659 190.193 72.1416 190.034 72.3537C189.874 72.5625 189.647 72.7498 189.352 72.9155C189.057 73.0779 188.665 73.1591 188.174 73.1591ZM188.333 72.1051C188.804 72.1051 189.202 71.9825 189.526 71.7372C189.851 71.4886 190.098 71.1456 190.267 70.7081C190.436 70.2673 190.521 69.7585 190.521 69.1818C190.521 68.6117 190.438 68.1129 190.272 67.6854C190.106 67.2545 189.861 66.9197 189.536 66.6811C189.212 66.4392 188.811 66.3182 188.333 66.3182C187.836 66.3182 187.422 66.4458 187.09 66.701C186.762 66.9529 186.515 67.2959 186.35 67.7301C186.187 68.161 186.106 68.6449 186.106 69.1818C186.106 69.7254 186.189 70.2192 186.355 70.6634C186.524 71.1042 186.772 71.4555 187.1 71.7173C187.432 71.9759 187.843 72.1051 188.333 72.1051ZM198.798 69.8778V65.3636H199.972V73H198.798V71.7074H198.719C198.54 72.0952 198.262 72.425 197.884 72.6967C197.506 72.9652 197.029 73.0994 196.452 73.0994C195.975 73.0994 195.55 72.995 195.179 72.7862C194.808 72.5741 194.516 72.2559 194.304 71.8317C194.092 71.4041 193.986 70.8655 193.986 70.2159V65.3636H195.159V70.1364C195.159 70.6932 195.315 71.1373 195.627 71.4688C195.941 71.8002 196.343 71.9659 196.83 71.9659C197.121 71.9659 197.418 71.8913 197.72 71.7422C198.025 71.593 198.28 71.3643 198.485 71.0561C198.694 70.7479 198.798 70.3551 198.798 69.8778ZM205.223 73.1591C204.507 73.1591 203.891 72.9901 203.374 72.652C202.857 72.3139 202.459 71.8482 202.18 71.255C201.902 70.6617 201.763 69.9839 201.763 69.2216C201.763 68.446 201.905 67.7616 202.19 67.1683C202.479 66.5717 202.88 66.1061 203.393 65.7713C203.911 65.4332 204.514 65.2642 205.203 65.2642C205.74 65.2642 206.224 65.3636 206.655 65.5625C207.086 65.7614 207.439 66.0398 207.714 66.3977C207.989 66.7557 208.16 67.1733 208.226 67.6506H207.053C206.963 67.3026 206.764 66.9943 206.456 66.7259C206.151 66.4541 205.74 66.3182 205.223 66.3182C204.766 66.3182 204.365 66.4375 204.02 66.6761C203.679 66.9115 203.412 67.2446 203.219 67.6754C203.031 68.103 202.936 68.6051 202.936 69.1818C202.936 69.7718 203.029 70.2855 203.214 70.723C203.403 71.1605 203.669 71.5002 204.01 71.7422C204.355 71.9841 204.759 72.1051 205.223 72.1051C205.528 72.1051 205.805 72.0521 206.053 71.946C206.302 71.84 206.512 71.6875 206.685 71.4886C206.857 71.2898 206.98 71.0511 207.053 70.7727H208.226C208.16 71.2235 207.996 71.6295 207.734 71.9908C207.475 72.3487 207.132 72.6338 206.705 72.8459C206.28 73.0547 205.786 73.1591 205.223 73.1591ZM213.262 65.3636V66.358H209.305V65.3636H213.262ZM210.458 63.5341H211.631V70.8125C211.631 71.1439 211.679 71.3925 211.776 71.5582C211.875 71.7206 212.001 71.83 212.153 71.8864C212.309 71.9394 212.473 71.9659 212.646 71.9659C212.775 71.9659 212.881 71.9593 212.964 71.946C213.047 71.9295 213.113 71.9162 213.163 71.9062L213.401 72.9602C213.322 72.9901 213.211 73.0199 213.068 73.0497C212.926 73.0829 212.745 73.0994 212.526 73.0994C212.195 73.0994 211.87 73.0282 211.552 72.8857C211.237 72.7431 210.975 72.526 210.766 72.2344C210.561 71.9427 210.458 71.5748 210.458 71.1307V63.5341ZM215.027 73V65.3636H216.2V73H215.027ZM215.624 64.0909C215.395 64.0909 215.198 64.013 215.032 63.8572C214.87 63.7015 214.788 63.5142 214.788 63.2955C214.788 63.0767 214.87 62.8894 215.032 62.7337C215.198 62.5779 215.395 62.5 215.624 62.5C215.852 62.5 216.048 62.5779 216.21 62.7337C216.376 62.8894 216.459 63.0767 216.459 63.2955C216.459 63.5142 216.376 63.7015 216.21 63.8572C216.048 64.013 215.852 64.0909 215.624 64.0909ZM224.594 65.3636L221.77 73H220.577L217.753 65.3636H219.025L221.133 71.4489H221.213L223.321 65.3636H224.594ZM226.142 73V65.3636H227.316V73H226.142ZM226.739 64.0909C226.51 64.0909 226.313 64.013 226.147 63.8572C225.985 63.7015 225.904 63.5142 225.904 63.2955C225.904 63.0767 225.985 62.8894 226.147 62.7337C226.313 62.5779 226.51 62.5 226.739 62.5C226.968 62.5 227.163 62.5779 227.325 62.7337C227.491 62.8894 227.574 63.0767 227.574 63.2955C227.574 63.5142 227.491 63.7015 227.325 63.8572C227.163 64.013 226.968 64.0909 226.739 64.0909ZM232.786 65.3636V66.358H228.828V65.3636H232.786ZM229.982 63.5341H231.155V70.8125C231.155 71.1439 231.203 71.3925 231.299 71.5582C231.398 71.7206 231.524 71.83 231.677 71.8864C231.833 71.9394 231.997 71.9659 232.169 71.9659C232.298 71.9659 232.404 71.9593 232.487 71.946C232.57 71.9295 232.636 71.9162 232.686 71.9062L232.925 72.9602C232.845 72.9901 232.734 73.0199 232.592 73.0497C232.449 73.0829 232.268 73.0994 232.05 73.0994C231.718 73.0994 231.393 73.0282 231.075 72.8857C230.76 72.7431 230.499 72.526 230.29 72.2344C230.084 71.9427 229.982 71.5748 229.982 71.1307V63.5341ZM235.306 75.8636C235.107 75.8636 234.93 75.8471 234.774 75.8139C234.618 75.7841 234.511 75.7543 234.451 75.7244L234.749 74.6903C235.034 74.7633 235.286 74.7898 235.505 74.7699C235.724 74.75 235.918 74.6522 236.087 74.4766C236.259 74.3042 236.416 74.0241 236.559 73.6364L236.778 73.0398L233.954 65.3636H235.227L237.335 71.4489H237.414L239.522 65.3636H240.795L237.553 74.1136C237.407 74.508 237.227 74.8345 237.011 75.093C236.796 75.3549 236.546 75.5488 236.261 75.6747C235.979 75.8007 235.661 75.8636 235.306 75.8636Z" fill="black"/>
<rect x="124.5" y="48.5" width="125" height="39" rx="7.5" stroke="#0066FF"/>
<rect x="258.5" y="48.5" width="166" height="39" rx="7.5" fill="#E6E9F5"/>
<path d="M277.968 76.2846H267.952C267.424 76.2846 267 75.8607 267 75.3328V65.3165C267 64.7886 267.424 64.3647 267.952 64.3647H277.968C278.496 64.3647 278.92 64.7886 278.92 65.3165V75.3328C278.92 75.8607 278.496 76.2846 277.968 76.2846Z" fill="#FF8833"/>
<path fill-rule="evenodd" clip-rule="evenodd" d="M270.748 61.3313C270.724 61.3552 270.714 61.3829 270.714 61.4088V65.7514H269.227V61.4088C269.227 60.5296 269.946 59.8101 270.825 59.8101H274.997C275.876 59.8101 276.596 60.5296 276.596 61.4088V65.6621H275.109V61.4088C275.109 61.3829 275.098 61.3552 275.074 61.3313C275.051 61.3075 275.023 61.2972 274.997 61.2972H270.825C270.8 61.2972 270.772 61.3075 270.748 61.3313Z" fill="#FF8833"/>
<path d="M274.57 68.6922C274.57 67.7999 273.849 67.0786 272.956 67.0786C272.064 67.0786 271.343 67.7999 271.343 68.6922C271.343 69.2945 271.677 69.8225 272.168 70.0976L271.343 73.4884H272.956H274.57L273.744 70.0976C274.235 69.8225 274.57 69.2945 274.57 68.6922Z" fill="#8D33FF"/>
<path fill-rule="evenodd" clip-rule="evenodd" d="M287.954 72.9376C287.704 72.2416 286.936 71.8805 286.24 72.1311C285.544 72.3817 285.183 73.149 285.434 73.8451C285.684 74.5411 286.452 74.9021 287.148 74.6515C287.844 74.4009 288.205 73.6336 287.954 72.9376ZM285.901 71.1902C287.117 70.7525 288.457 71.3832 288.895 72.5988C289.333 73.8144 288.702 75.1547 287.486 75.5924C286.271 76.0301 284.931 75.3994 284.493 74.1838C284.055 72.9682 284.686 71.6279 285.901 71.1902Z" fill="#8D33FF" stroke="#8D33FF" stroke-width="0.5" stroke-miterlimit="10"/>
<path fill-rule="evenodd" clip-rule="evenodd" d="M281.562 59.7192C281.822 59.6256 282.108 59.7604 282.202 60.0202L286.304 71.4136C286.398 71.6734 286.263 71.9598 286.003 72.0534C285.743 72.1469 285.457 72.0121 285.363 71.7523L281.261 60.359C281.168 60.0992 281.302 59.8127 281.562 59.7192Z" fill="#8D33FF" stroke="#8D33FF" stroke-width="0.5" stroke-miterlimit="10" stroke-linecap="round" stroke-linejoin="round"/>
<path d="M281.778 61.0537L283.128 64.8035L281.291 65.4649C281.031 65.5585 280.745 65.4237 280.651 65.1639L279.64 62.355C279.546 62.0952 279.681 61.8087 279.941 61.7152L281.778 61.0537Z" fill="#8D33FF"/>
<path d="M297.233 73V62.8182H300.793C301.502 62.8182 302.087 62.9408 302.548 63.1861C303.008 63.428 303.351 63.7545 303.577 64.1655C303.802 64.5732 303.915 65.0256 303.915 65.5227C303.915 65.9602 303.837 66.3215 303.681 66.6065C303.529 66.8916 303.326 67.117 303.075 67.2827C302.826 67.4484 302.556 67.571 302.264 67.6506V67.75C302.576 67.7699 302.889 67.8793 303.204 68.0781C303.519 68.277 303.782 68.562 303.994 68.9332C304.206 69.3045 304.312 69.7585 304.312 70.2955C304.312 70.8059 304.196 71.2649 303.964 71.6726C303.732 72.0803 303.366 72.4034 302.866 72.642C302.365 72.8807 301.714 73 300.912 73H297.233ZM298.466 71.9062H300.912C301.717 71.9062 302.289 71.7505 302.627 71.4389C302.969 71.1241 303.139 70.7429 303.139 70.2955C303.139 69.9508 303.051 69.6326 302.876 69.3409C302.7 69.0459 302.45 68.8106 302.125 68.6349C301.8 68.456 301.416 68.3665 300.972 68.3665H298.466V71.9062ZM298.466 67.2926H300.753C301.124 67.2926 301.459 67.2197 301.757 67.0739C302.059 66.928 302.297 66.7225 302.473 66.4574C302.652 66.1922 302.741 65.8807 302.741 65.5227C302.741 65.0753 302.586 64.6958 302.274 64.3842C301.963 64.0694 301.469 63.9119 300.793 63.9119H298.466V67.2926ZM310.992 69.8778V65.3636H312.165V73H310.992V71.7074H310.912C310.733 72.0952 310.455 72.425 310.077 72.6967C309.699 72.9652 309.222 73.0994 308.645 73.0994C308.168 73.0994 307.744 72.995 307.373 72.7862C307.001 72.5741 306.71 72.2559 306.498 71.8317C306.285 71.4041 306.179 70.8655 306.179 70.2159V65.3636H307.353V70.1364C307.353 70.6932 307.508 71.1373 307.82 71.4688C308.135 71.8002 308.536 71.9659 309.023 71.9659C309.315 71.9659 309.611 71.8913 309.913 71.7422C310.218 71.593 310.473 71.3643 310.679 71.0561C310.887 70.7479 310.992 70.3551 310.992 69.8778ZM319.723 67.0739L318.669 67.3722C318.603 67.1965 318.505 67.0258 318.376 66.8601C318.25 66.6911 318.078 66.5518 317.859 66.4425C317.64 66.3331 317.36 66.2784 317.019 66.2784C316.551 66.2784 316.162 66.3861 315.85 66.6016C315.542 66.8137 315.388 67.0838 315.388 67.4119C315.388 67.7036 315.494 67.9339 315.706 68.103C315.918 68.272 316.25 68.4129 316.7 68.5256L317.834 68.804C318.517 68.9697 319.026 69.2232 319.36 69.5646C319.695 69.9027 319.862 70.3385 319.862 70.8722C319.862 71.3097 319.736 71.7008 319.485 72.0455C319.236 72.3902 318.888 72.6619 318.441 72.8608C317.993 73.0597 317.473 73.1591 316.879 73.1591C316.101 73.1591 315.456 72.9901 314.945 72.652C314.435 72.3139 314.112 71.8201 313.976 71.1705L315.09 70.892C315.196 71.303 315.396 71.6113 315.691 71.8168C315.99 72.0223 316.379 72.125 316.86 72.125C317.406 72.125 317.841 72.009 318.162 71.777C318.487 71.5417 318.649 71.2599 318.649 70.9318C318.649 70.6667 318.557 70.4446 318.371 70.2656C318.185 70.0833 317.9 69.9474 317.516 69.858L316.243 69.5597C315.544 69.3939 315.03 69.1371 314.702 68.7891C314.377 68.4377 314.215 67.9986 314.215 67.4716C314.215 67.0407 314.336 66.6596 314.578 66.3281C314.823 65.9967 315.156 65.7365 315.577 65.5476C316.001 65.3587 316.482 65.2642 317.019 65.2642C317.774 65.2642 318.368 65.4299 318.798 65.7614C319.233 66.0928 319.541 66.5303 319.723 67.0739ZM321.629 73V65.3636H322.802V73H321.629ZM322.225 64.0909C321.996 64.0909 321.799 64.013 321.634 63.8572C321.471 63.7015 321.39 63.5142 321.39 63.2955C321.39 63.0767 321.471 62.8894 321.634 62.7337C321.799 62.5779 321.996 62.5 322.225 62.5C322.454 62.5 322.649 62.5779 322.812 62.7337C322.978 62.8894 323.06 63.0767 323.06 63.2955C323.06 63.5142 322.978 63.7015 322.812 63.8572C322.649 64.013 322.454 64.0909 322.225 64.0909ZM326.124 68.4062V73H324.951V65.3636H326.084V66.5568H326.184C326.363 66.169 326.635 65.8575 326.999 65.6222C327.364 65.3835 327.834 65.2642 328.411 65.2642C328.928 65.2642 329.381 65.3703 329.768 65.5824C330.156 65.7912 330.458 66.1094 330.673 66.5369C330.889 66.9612 330.996 67.4981 330.996 68.1477V73H329.823V68.2273C329.823 67.6274 329.667 67.16 329.356 66.8253C329.044 66.4872 328.617 66.3182 328.073 66.3182C327.698 66.3182 327.364 66.3994 327.069 66.5618C326.777 66.7242 326.547 66.9612 326.378 67.2727C326.209 67.5843 326.124 67.9621 326.124 68.4062ZM336.342 73.1591C335.606 73.1591 334.971 72.9967 334.438 72.6719C333.908 72.3438 333.498 71.8864 333.21 71.2997C332.925 70.7098 332.782 70.0237 332.782 69.2415C332.782 68.4593 332.925 67.7699 333.21 67.1733C333.498 66.5734 333.899 66.1061 334.413 65.7713C334.93 65.4332 335.533 65.2642 336.223 65.2642C336.62 65.2642 337.013 65.3305 337.401 65.4631C337.789 65.5956 338.142 65.8111 338.46 66.1094C338.778 66.4044 339.032 66.7955 339.221 67.2827C339.409 67.7699 339.504 68.3698 339.504 69.0824V69.5795H333.618V68.5653H338.311C338.311 68.1345 338.225 67.75 338.052 67.4119C337.883 67.0739 337.641 66.8071 337.326 66.6115C337.015 66.416 336.647 66.3182 336.223 66.3182C335.755 66.3182 335.351 66.4342 335.01 66.6662C334.672 66.8949 334.411 67.1932 334.229 67.5611C334.047 67.929 333.956 68.3234 333.956 68.7443V69.4205C333.956 69.9972 334.055 70.486 334.254 70.8871C334.456 71.2848 334.736 71.5881 335.094 71.7969C335.452 72.0024 335.868 72.1051 336.342 72.1051C336.65 72.1051 336.929 72.062 337.177 71.9759C337.429 71.8864 337.646 71.7538 337.828 71.5781C338.011 71.3991 338.152 71.1771 338.251 70.9119L339.385 71.2301C339.265 71.6146 339.065 71.9527 338.783 72.2443C338.501 72.5327 338.153 72.758 337.739 72.9205C337.325 73.0795 336.859 73.1591 336.342 73.1591ZM346.698 67.0739L345.644 67.3722C345.578 67.1965 345.48 67.0258 345.35 66.8601C345.225 66.6911 345.052 66.5518 344.833 66.4425C344.615 66.3331 344.335 66.2784 343.993 66.2784C343.526 66.2784 343.136 66.3861 342.825 66.6016C342.517 66.8137 342.363 67.0838 342.363 67.4119C342.363 67.7036 342.469 67.9339 342.681 68.103C342.893 68.272 343.224 68.4129 343.675 68.5256L344.809 68.804C345.491 68.9697 346 69.2232 346.335 69.5646C346.67 69.9027 346.837 70.3385 346.837 70.8722C346.837 71.3097 346.711 71.7008 346.459 72.0455C346.211 72.3902 345.863 72.6619 345.415 72.8608C344.968 73.0597 344.447 73.1591 343.854 73.1591C343.075 73.1591 342.431 72.9901 341.92 72.652C341.41 72.3139 341.087 71.8201 340.951 71.1705L342.064 70.892C342.17 71.303 342.371 71.6113 342.666 71.8168C342.964 72.0223 343.354 72.125 343.834 72.125C344.381 72.125 344.815 72.009 345.137 71.777C345.462 71.5417 345.624 71.2599 345.624 70.9318C345.624 70.6667 345.531 70.4446 345.346 70.2656C345.16 70.0833 344.875 69.9474 344.49 69.858L343.218 69.5597C342.518 69.3939 342.005 69.1371 341.676 68.7891C341.352 68.4377 341.189 67.9986 341.189 67.4716C341.189 67.0407 341.31 66.6596 341.552 66.3281C341.797 65.9967 342.131 65.7365 342.551 65.5476C342.976 65.3587 343.456 65.2642 343.993 65.2642C344.749 65.2642 345.342 65.4299 345.773 65.7614C346.207 66.0928 346.516 66.5303 346.698 67.0739ZM354.012 67.0739L352.958 67.3722C352.892 67.1965 352.794 67.0258 352.665 66.8601C352.539 66.6911 352.367 66.5518 352.148 66.4425C351.929 66.3331 351.649 66.2784 351.308 66.2784C350.84 66.2784 350.451 66.3861 350.139 66.6016C349.831 66.8137 349.677 67.0838 349.677 67.4119C349.677 67.7036 349.783 67.9339 349.995 68.103C350.207 68.272 350.539 68.4129 350.99 68.5256L352.123 68.804C352.806 68.9697 353.315 69.2232 353.649 69.5646C353.984 69.9027 354.151 70.3385 354.151 70.8722C354.151 71.3097 354.026 71.7008 353.774 72.0455C353.525 72.3902 353.177 72.6619 352.73 72.8608C352.282 73.0597 351.762 73.1591 351.169 73.1591C350.39 73.1591 349.745 72.9901 349.235 72.652C348.724 72.3139 348.401 71.8201 348.265 71.1705L349.379 70.892C349.485 71.303 349.685 71.6113 349.98 71.8168C350.279 72.0223 350.668 72.125 351.149 72.125C351.695 72.125 352.13 72.009 352.451 71.777C352.776 71.5417 352.938 71.2599 352.938 70.9318C352.938 70.6667 352.846 70.4446 352.66 70.2656C352.474 70.0833 352.189 69.9474 351.805 69.858L350.532 69.5597C349.833 69.3939 349.319 69.1371 348.991 68.7891C348.666 68.4377 348.504 67.9986 348.504 67.4716C348.504 67.0407 348.625 66.6596 348.867 66.3281C349.112 65.9967 349.445 65.7365 349.866 65.5476C350.29 65.3587 350.771 65.2642 351.308 65.2642C352.063 65.2642 352.657 65.4299 353.088 65.7614C353.522 66.0928 353.83 66.5303 354.012 67.0739ZM362.739 73.1392C362.069 73.1392 361.492 73.0166 361.009 72.7713C360.525 72.526 360.152 72.1896 359.89 71.7621C359.628 71.3345 359.497 70.8456 359.497 70.2955C359.497 69.8712 359.587 69.495 359.766 69.1669C359.948 68.8355 360.198 68.5289 360.516 68.2472C360.838 67.9621 361.207 67.6771 361.625 67.392L363.097 66.2983C363.385 66.1094 363.615 65.9072 363.788 65.6918C363.963 65.4763 364.051 65.1946 364.051 64.8466C364.051 64.5881 363.937 64.3378 363.708 64.0959C363.483 63.8539 363.186 63.733 362.818 63.733C362.56 63.733 362.331 63.7992 362.132 63.9318C361.937 64.0611 361.782 64.2268 361.67 64.429C361.56 64.6278 361.506 64.8333 361.506 65.0455C361.506 65.2841 361.57 65.526 361.7 65.7713C361.832 66.0133 362 66.2618 362.202 66.517C362.407 66.7689 362.619 67.0275 362.838 67.2926L367.511 73H366.099L362.241 68.3466C361.884 67.9157 361.559 67.5246 361.267 67.1733C360.975 66.822 360.743 66.4756 360.571 66.1342C360.399 65.7929 360.312 65.4233 360.312 65.0256C360.312 64.5682 360.414 64.1671 360.616 63.8224C360.821 63.4744 361.108 63.2043 361.476 63.0121C361.847 62.8165 362.281 62.7188 362.778 62.7188C363.289 62.7188 363.728 62.8182 364.096 63.017C364.464 63.2126 364.747 63.4728 364.946 63.7976C365.145 64.1191 365.244 64.4688 365.244 64.8466C365.244 65.3338 365.123 65.7564 364.881 66.1143C364.639 66.4723 364.31 66.8054 363.892 67.1136L361.864 68.625C361.406 68.9631 361.096 69.2912 360.934 69.6094C360.772 69.9276 360.69 70.1562 360.69 70.2955C360.69 70.6136 360.773 70.9103 360.939 71.1854C361.105 71.4605 361.338 71.6825 361.64 71.8516C361.942 72.0206 362.295 72.1051 362.699 72.1051C363.083 72.1051 363.458 72.0239 363.822 71.8615C364.187 71.6958 364.517 71.4571 364.812 71.1456C365.11 70.834 365.345 70.4595 365.518 70.022C365.693 69.5845 365.781 69.0923 365.781 68.5455H366.915C366.915 69.2216 366.837 69.7734 366.681 70.201C366.525 70.6286 366.35 70.9633 366.154 71.2053C365.959 71.4472 365.801 71.6278 365.682 71.7472C365.642 71.7969 365.606 71.8466 365.572 71.8963C365.539 71.946 365.503 71.9957 365.463 72.0455C365.135 72.4134 364.721 72.6884 364.22 72.8707C363.72 73.0497 363.226 73.1392 362.739 73.1392ZM381.1 66H379.867C379.794 65.6454 379.666 65.3338 379.484 65.0653C379.305 64.7969 379.086 64.5715 378.828 64.3892C378.573 64.2036 378.289 64.0644 377.978 63.9716C377.666 63.8788 377.341 63.8324 377.003 63.8324C376.387 63.8324 375.828 63.9882 375.328 64.2997C374.831 64.6113 374.435 65.0703 374.14 65.6768C373.848 66.2834 373.702 67.0275 373.702 67.9091C373.702 68.7907 373.848 69.5348 374.14 70.1413C374.435 70.7479 374.831 71.2069 375.328 71.5185C375.828 71.83 376.387 71.9858 377.003 71.9858C377.341 71.9858 377.666 71.9394 377.978 71.8466C378.289 71.7538 378.573 71.6162 378.828 71.4339C379.086 71.2483 379.305 71.0213 379.484 70.7528C379.666 70.4811 379.794 70.1695 379.867 69.8182H381.1C381.007 70.3385 380.838 70.8042 380.593 71.2152C380.348 71.6262 380.043 71.9759 379.678 72.2642C379.314 72.5492 378.904 72.7663 378.45 72.9155C377.999 73.0646 377.517 73.1392 377.003 73.1392C376.135 73.1392 375.363 72.9271 374.687 72.5028C374.01 72.0786 373.479 71.4754 373.091 70.6932C372.703 69.911 372.509 68.983 372.509 67.9091C372.509 66.8352 372.703 65.9072 373.091 65.125C373.479 64.3428 374.01 63.7396 374.687 63.3153C375.363 62.8911 376.135 62.679 377.003 62.679C377.517 62.679 377.999 62.7536 378.45 62.9027C378.904 63.0518 379.314 63.2706 379.678 63.5589C380.043 63.844 380.348 64.192 380.593 64.603C380.838 65.0107 381.007 65.4763 381.1 66ZM385.18 73.179C384.696 73.179 384.257 73.0878 383.863 72.9055C383.469 72.7199 383.155 72.4531 382.923 72.1051C382.691 71.7538 382.575 71.3295 382.575 70.8324C382.575 70.3949 382.661 70.0402 382.834 69.7685C383.006 69.4934 383.237 69.2779 383.525 69.1222C383.813 68.9664 384.131 68.8504 384.479 68.7741C384.831 68.6946 385.184 68.6316 385.538 68.5852C386.002 68.5256 386.379 68.4808 386.667 68.451C386.959 68.4179 387.171 68.3632 387.303 68.2869C387.439 68.2107 387.507 68.0781 387.507 67.8892V67.8494C387.507 67.3589 387.373 66.9777 387.104 66.706C386.839 66.4342 386.437 66.2983 385.896 66.2983C385.336 66.2983 384.897 66.4209 384.579 66.6662C384.261 66.9115 384.037 67.1733 383.908 67.4517L382.794 67.054C382.993 66.59 383.258 66.2287 383.589 65.9702C383.924 65.7083 384.289 65.526 384.683 65.4233C385.081 65.3172 385.472 65.2642 385.857 65.2642C386.102 65.2642 386.384 65.294 386.702 65.3537C387.023 65.41 387.333 65.5277 387.631 65.7067C387.933 65.8857 388.183 66.1558 388.382 66.517C388.581 66.8783 388.68 67.3622 388.68 67.9688V73H387.507V71.9659H387.447C387.368 72.1316 387.235 72.3089 387.05 72.4979C386.864 72.6868 386.617 72.8475 386.309 72.9801C386.001 73.1127 385.625 73.179 385.18 73.179ZM385.359 72.125C385.823 72.125 386.214 72.0339 386.533 71.8516C386.854 71.6693 387.096 71.4339 387.259 71.1456C387.424 70.8572 387.507 70.554 387.507 70.2358V69.1619C387.457 69.2216 387.348 69.2763 387.179 69.326C387.013 69.3724 386.821 69.4138 386.602 69.4503C386.387 69.4834 386.176 69.5133 385.971 69.5398C385.769 69.563 385.605 69.5829 385.479 69.5994C385.174 69.6392 384.889 69.7038 384.624 69.7933C384.362 69.8795 384.15 70.0104 383.987 70.1861C383.828 70.3584 383.749 70.5937 383.749 70.892C383.749 71.2997 383.899 71.608 384.201 71.8168C384.506 72.0223 384.892 72.125 385.359 72.125ZM390.822 73V65.3636H391.955V66.517H392.035C392.174 66.1392 392.426 65.8326 392.791 65.5973C393.155 65.362 393.566 65.2443 394.024 65.2443C394.11 65.2443 394.218 65.246 394.347 65.2493C394.476 65.2526 394.574 65.2576 394.64 65.2642V66.4574C394.6 66.4474 394.509 66.4325 394.367 66.4126C394.227 66.3894 394.08 66.3778 393.924 66.3778C393.553 66.3778 393.222 66.4557 392.93 66.6115C392.642 66.764 392.413 66.9761 392.244 67.2479C392.078 67.5163 391.995 67.8229 391.995 68.1676V73H390.822ZM399 73.1591C398.264 73.1591 397.63 72.9967 397.096 72.6719C396.566 72.3438 396.156 71.8864 395.868 71.2997C395.583 70.7098 395.441 70.0237 395.441 69.2415C395.441 68.4593 395.583 67.7699 395.868 67.1733C396.156 66.5734 396.557 66.1061 397.071 65.7713C397.588 65.4332 398.191 65.2642 398.881 65.2642C399.279 65.2642 399.671 65.3305 400.059 65.4631C400.447 65.5956 400.8 65.8111 401.118 66.1094C401.436 66.4044 401.69 66.7955 401.879 67.2827C402.068 67.7699 402.162 68.3698 402.162 69.0824V69.5795H396.276V68.5653H400.969C400.969 68.1345 400.883 67.75 400.71 67.4119C400.541 67.0739 400.299 66.8071 399.985 66.6115C399.673 66.416 399.305 66.3182 398.881 66.3182C398.414 66.3182 398.009 66.4342 397.668 66.6662C397.33 66.8949 397.07 67.1932 396.887 67.5611C396.705 67.929 396.614 68.3234 396.614 68.7443V69.4205C396.614 69.9972 396.713 70.486 396.912 70.8871C397.114 71.2848 397.394 71.5881 397.752 71.7969C398.11 72.0024 398.526 72.1051 399 72.1051C399.308 72.1051 399.587 72.062 399.835 71.9759C400.087 71.8864 400.304 71.7538 400.487 71.5781C400.669 71.3991 400.81 71.1771 400.909 70.9119L402.043 71.2301C401.923 71.6146 401.723 71.9527 401.441 72.2443C401.16 72.5327 400.811 72.758 400.397 72.9205C399.983 73.0795 399.517 73.1591 399 73.1591ZM407.149 73.1591C406.413 73.1591 405.778 72.9967 405.244 72.6719C404.714 72.3438 404.305 71.8864 404.017 71.2997C403.731 70.7098 403.589 70.0237 403.589 69.2415C403.589 68.4593 403.731 67.7699 404.017 67.1733C404.305 66.5734 404.706 66.1061 405.22 65.7713C405.737 65.4332 406.34 65.2642 407.029 65.2642C407.427 65.2642 407.82 65.3305 408.208 65.4631C408.595 65.5956 408.948 65.8111 409.267 66.1094C409.585 66.4044 409.838 66.7955 410.027 67.2827C410.216 67.7699 410.311 68.3698 410.311 69.0824V69.5795H404.424V68.5653H409.117C409.117 68.1345 409.031 67.75 408.859 67.4119C408.69 67.0739 408.448 66.8071 408.133 66.6115C407.821 66.416 407.454 66.3182 407.029 66.3182C406.562 66.3182 406.158 66.4342 405.816 66.6662C405.478 66.8949 405.218 67.1932 405.036 67.5611C404.853 67.929 404.762 68.3234 404.762 68.7443V69.4205C404.762 69.9972 404.862 70.486 405.061 70.8871C405.263 71.2848 405.543 71.5881 405.901 71.7969C406.259 72.0024 406.675 72.1051 407.149 72.1051C407.457 72.1051 407.735 72.062 407.984 71.9759C408.236 71.8864 408.453 71.7538 408.635 71.5781C408.817 71.3991 408.958 71.1771 409.058 70.9119L410.191 71.2301C410.072 71.6146 409.871 71.9527 409.59 72.2443C409.308 72.5327 408.96 72.758 408.546 72.9205C408.131 73.0795 407.666 73.1591 407.149 73.1591ZM412.095 73V65.3636H413.229V66.517H413.308C413.448 66.1392 413.7 65.8326 414.064 65.5973C414.429 65.362 414.84 65.2443 415.297 65.2443C415.383 65.2443 415.491 65.246 415.62 65.2493C415.749 65.2526 415.847 65.2576 415.914 65.2642V66.4574C415.874 66.4474 415.783 66.4325 415.64 66.4126C415.501 66.3894 415.353 66.3778 415.198 66.3778C414.826 66.3778 414.495 66.4557 414.203 66.6115C413.915 66.764 413.686 66.9761 413.517 67.2479C413.352 67.5163 413.269 67.8229 413.269 68.1676V73H412.095Z" fill="black"/>
<rect x="258.5" y="48.5" width="166" height="39" rx="7.5" stroke="#0066FF"/>
<defs>
<clipPath id="clip0_1_1765">
<rect width="24" height="24" fill="white" transform="translate(8 56)"/>
</clipPath>
</defs>
</svg>
