<svg width="352" height="40" viewBox="0 0 352 40" fill="none" xmlns="http://www.w3.org/2000/svg">
<rect width="116" height="40" rx="8" fill="white"/>
<g clip-path="url(#clip0_1_1790)">
<path d="M22.2499 25.9467C25.6571 24.5949 27.3232 20.7371 25.9714 17.3299C24.6196 13.9228 20.7617 12.2567 17.3546 13.6085C13.9475 14.9603 12.2813 18.8182 13.6331 22.2253C14.985 25.6324 18.8428 27.2986 22.2499 25.9467Z" fill="#FF8833"/>
<path d="M25.3645 16.1475C24.445 17.5914 22.6141 19.0525 19.956 20.1072C17.2979 21.1618 14.9431 21.4762 13.2838 21.0554C10.9459 22.3963 9.3218 23.5687 9.57365 24.2035C9.99077 25.2548 15.2779 25.0398 20.9908 22.7731C26.7037 20.5065 30.7 17.0382 30.2829 15.9869C30.031 15.3521 27.9857 15.5208 25.3645 16.1475Z" fill="#8D33FF"/>
<path d="M14.8 28.3977C14.0623 28.1154 13.6651 27.4549 13.4885 27.0689C13.4791 27.0485 13.4632 27.0311 13.4427 27.0188C13.4222 27.0065 13.3981 27 13.3735 27C13.3488 27 13.3248 27.0065 13.3043 27.0188C13.2838 27.0311 13.2678 27.0485 13.2584 27.0689C13.0811 27.4549 12.6823 28.1175 11.9501 28.3977C11.9278 28.4063 11.9088 28.4206 11.8954 28.4388C11.8821 28.457 11.875 28.4782 11.875 28.5C11.875 28.5218 11.8821 28.543 11.8954 28.5612C11.9088 28.5794 11.9278 28.5937 11.9501 28.6023C12.687 28.8846 13.0842 29.5458 13.26 29.9311C13.2694 29.9515 13.2854 29.9689 13.3058 29.9812C13.3263 29.9935 13.3504 30 13.3751 30C13.3997 30 13.4238 29.9935 13.4443 29.9812C13.4647 29.9689 13.4807 29.9515 13.4901 29.9311C13.6682 29.5458 14.0671 28.8839 14.8016 28.6016C14.8236 28.5927 14.8423 28.5783 14.8553 28.5602C14.8683 28.542 14.8752 28.5208 14.875 28.4992C14.8748 28.4776 14.8677 28.4565 14.8544 28.4385C14.841 28.4204 14.8222 28.4063 14.8 28.3977Z" fill="#8D33FF"/>
<path d="M25.2281 10.5425C24.4139 10.231 23.9756 9.50201 23.7807 9.07601C23.7703 9.05351 23.7527 9.03428 23.7301 9.02075C23.7075 9.00722 23.6809 9 23.6537 9C23.6265 9 23.6 9.00722 23.5773 9.02075C23.5547 9.03428 23.5371 9.05351 23.5267 9.07601C23.331 9.50201 22.8909 10.2333 22.0828 10.5425C22.0582 10.552 22.0373 10.5678 22.0226 10.5879C22.0078 10.6079 22 10.6314 22 10.6554C22 10.6794 22.0078 10.7029 22.0226 10.723C22.0373 10.743 22.0582 10.7588 22.0828 10.7683C22.8961 11.0798 23.3345 11.8096 23.5285 12.2348C23.5389 12.2573 23.5565 12.2765 23.5791 12.2901C23.6017 12.3036 23.6283 12.3108 23.6555 12.3108C23.6827 12.3108 23.7092 12.3036 23.7318 12.2901C23.7544 12.2765 23.7721 12.2573 23.7825 12.2348C23.979 11.8096 24.4192 11.0791 25.2298 10.7676C25.2541 10.7578 25.2747 10.7419 25.2891 10.7218C25.3034 10.7017 25.311 10.6784 25.3108 10.6545C25.3106 10.6307 25.3027 10.6074 25.288 10.5875C25.2733 10.5676 25.2525 10.552 25.2281 10.5425Z" fill="#8D33FF"/>
<path d="M28.9409 12.7505C28.3594 12.5279 28.0462 12.0073 27.9071 11.703C27.8996 11.6869 27.8871 11.6732 27.8709 11.6635C27.8548 11.6538 27.8358 11.6487 27.8164 11.6487C27.7969 11.6487 27.778 11.6538 27.7618 11.6635C27.7457 11.6732 27.7331 11.6869 27.7257 11.703C27.5859 12.0073 27.2715 12.5296 26.6943 12.7505C26.6767 12.7573 26.6618 12.7685 26.6512 12.7829C26.6407 12.7972 26.6351 12.814 26.6351 12.8311C26.6351 12.8483 26.6407 12.865 26.6512 12.8794C26.6618 12.8937 26.6767 12.905 26.6943 12.9118C27.2752 13.1343 27.5883 13.6555 27.7269 13.9593C27.7343 13.9753 27.7469 13.9891 27.7631 13.9987C27.7792 14.0084 27.7982 14.0135 27.8176 14.0135C27.837 14.0135 27.856 14.0084 27.8722 13.9987C27.8883 13.9891 27.9009 13.9753 27.9083 13.9593C28.0487 13.6555 28.3631 13.1337 28.9422 12.9112C28.9595 12.9042 28.9742 12.8929 28.9845 12.8785C28.9947 12.8642 29.0001 12.8475 29 12.8305C28.9999 12.8134 28.9942 12.7968 28.9837 12.7826C28.9732 12.7684 28.9584 12.7572 28.9409 12.7505V12.7505Z" fill="#8D33FF"/>
</g>
<path d="M44.8011 17.3636C44.7415 16.8598 44.4995 16.4688 44.0753 16.1903C43.651 15.9119 43.1307 15.7727 42.5142 15.7727C42.0634 15.7727 41.669 15.8456 41.331 15.9915C40.9962 16.1373 40.7344 16.3378 40.5455 16.593C40.3598 16.8482 40.267 17.1383 40.267 17.4631C40.267 17.7348 40.3317 17.9685 40.4609 18.1641C40.5935 18.3563 40.7625 18.517 40.968 18.6463C41.1735 18.7723 41.389 18.8767 41.6143 18.9595C41.8397 19.0391 42.0469 19.1037 42.2358 19.1534L43.2699 19.4318C43.535 19.5014 43.83 19.5975 44.1548 19.7202C44.483 19.8428 44.7962 20.0102 45.0945 20.2223C45.3961 20.4311 45.6446 20.6996 45.8402 21.0277C46.0357 21.3558 46.1335 21.7585 46.1335 22.2358C46.1335 22.786 45.9893 23.2831 45.701 23.7273C45.416 24.1714 44.9983 24.5244 44.4482 24.7862C43.9013 25.0481 43.2367 25.179 42.4545 25.179C41.7254 25.179 41.094 25.0613 40.5604 24.826C40.0301 24.5907 39.6125 24.2625 39.3075 23.8416C39.0059 23.4207 38.8352 22.9318 38.7955 22.375H40.0682C40.1013 22.7595 40.2306 23.0777 40.456 23.3295C40.6847 23.5781 40.973 23.7637 41.321 23.8864C41.6723 24.0057 42.0502 24.0653 42.4545 24.0653C42.9252 24.0653 43.3478 23.9891 43.7223 23.8366C44.0968 23.6809 44.3935 23.4654 44.6122 23.1903C44.831 22.9119 44.9403 22.5871 44.9403 22.2159C44.9403 21.8778 44.8459 21.6027 44.657 21.3906C44.468 21.1785 44.2195 21.0062 43.9112 20.8736C43.603 20.741 43.2699 20.625 42.9119 20.5256L41.6591 20.1676C40.8636 19.9389 40.2339 19.6125 39.7699 19.1882C39.3059 18.764 39.0739 18.2088 39.0739 17.5227C39.0739 16.9527 39.228 16.4555 39.5362 16.0312C39.8478 15.6037 40.2654 15.2723 40.7891 15.0369C41.3161 14.7983 41.9044 14.679 42.554 14.679C43.2102 14.679 43.7936 14.7966 44.304 15.032C44.8144 15.264 45.2188 15.5821 45.517 15.9865C45.8187 16.3909 45.9777 16.8499 45.9943 17.3636H44.8011ZM48.0016 27.8636V17.3636H49.1351V18.5767H49.2743C49.3605 18.4441 49.4798 18.2751 49.6323 18.0696C49.7881 17.8608 50.0101 17.6752 50.2985 17.5128C50.5901 17.3471 50.9846 17.2642 51.4817 17.2642C52.1247 17.2642 52.6915 17.425 53.182 17.7464C53.6725 18.0679 54.0553 18.5237 54.3304 19.1136C54.6055 19.7036 54.7431 20.3996 54.7431 21.2017C54.7431 22.0104 54.6055 22.7114 54.3304 23.3047C54.0553 23.8946 53.6742 24.352 53.187 24.6768C52.6998 24.9983 52.138 25.1591 51.5016 25.1591C51.0111 25.1591 50.6183 25.0779 50.3233 24.9155C50.0283 24.7498 49.8013 24.5625 49.6422 24.3537C49.4831 24.1416 49.3605 23.9659 49.2743 23.8267H49.1749V27.8636H48.0016ZM49.155 21.1818C49.155 21.7585 49.2395 22.2673 49.4086 22.7081C49.5776 23.1456 49.8245 23.4886 50.1493 23.7372C50.4741 23.9825 50.8719 24.1051 51.3425 24.1051C51.833 24.1051 52.2424 23.9759 52.5705 23.7173C52.9019 23.4555 53.1505 23.1042 53.3162 22.6634C53.4853 22.2192 53.5698 21.7254 53.5698 21.1818C53.5698 20.6449 53.4869 20.161 53.3212 19.7301C53.1588 19.2959 52.9119 18.9529 52.5804 18.701C52.2523 18.4458 51.8397 18.3182 51.3425 18.3182C50.8652 18.3182 50.4642 18.4392 50.1394 18.6811C49.8146 18.9197 49.5693 19.2545 49.4036 19.6854C49.2379 20.1129 49.155 20.6117 49.155 21.1818ZM56.5328 25V17.3636H57.7061V25H56.5328ZM57.1294 16.0909C56.9007 16.0909 56.7035 16.013 56.5378 15.8572C56.3754 15.7015 56.2942 15.5142 56.2942 15.2955C56.2942 15.0767 56.3754 14.8894 56.5378 14.7337C56.7035 14.5779 56.9007 14.5 57.1294 14.5C57.3581 14.5 57.5537 14.5779 57.7161 14.7337C57.8818 14.8894 57.9647 15.0767 57.9647 15.2955C57.9647 15.5142 57.8818 15.7015 57.7161 15.8572C57.5537 16.013 57.3581 16.0909 57.1294 16.0909ZM59.8551 25V17.3636H60.9886V18.517H61.0682C61.2074 18.1392 61.4593 17.8326 61.8239 17.5973C62.1884 17.362 62.5994 17.2443 63.0568 17.2443C63.143 17.2443 63.2507 17.246 63.38 17.2493C63.5092 17.2526 63.607 17.2576 63.6733 17.2642V18.4574C63.6335 18.4474 63.5424 18.4325 63.3999 18.4126C63.2607 18.3894 63.1132 18.3778 62.9574 18.3778C62.5862 18.3778 62.2547 18.4557 61.9631 18.6115C61.6747 18.764 61.446 18.9761 61.277 19.2479C61.1113 19.5163 61.0284 19.8229 61.0284 20.1676V25H59.8551ZM65.0641 25V17.3636H66.2374V25H65.0641ZM65.6607 16.0909C65.432 16.0909 65.2348 16.013 65.0691 15.8572C64.9067 15.7015 64.8255 15.5142 64.8255 15.2955C64.8255 15.0767 64.9067 14.8894 65.0691 14.7337C65.2348 14.5779 65.432 14.5 65.6607 14.5C65.8894 14.5 66.0849 14.5779 66.2473 14.7337C66.4131 14.8894 66.4959 15.0767 66.4959 15.2955C66.4959 15.5142 66.4131 15.7015 66.2473 15.8572C66.0849 16.013 65.8894 16.0909 65.6607 16.0909ZM71.7074 17.3636V18.358H67.75V17.3636H71.7074ZM68.9034 15.5341H70.0767V22.8125C70.0767 23.1439 70.1248 23.3925 70.2209 23.5582C70.3203 23.7206 70.4463 23.83 70.5987 23.8864C70.7545 23.9394 70.9186 23.9659 71.0909 23.9659C71.2202 23.9659 71.3262 23.9593 71.4091 23.946C71.492 23.9295 71.5582 23.9162 71.608 23.9062L71.8466 24.9602C71.767 24.9901 71.656 25.0199 71.5135 25.0497C71.371 25.0829 71.1903 25.0994 70.9716 25.0994C70.6402 25.0994 70.3153 25.0282 69.9972 24.8857C69.6823 24.7431 69.4205 24.526 69.2116 24.2344C69.0062 23.9427 68.9034 23.5748 68.9034 23.1307V15.5341ZM78.2848 21.8778V17.3636H79.4581V25H78.2848V23.7074H78.2053C78.0263 24.0952 77.7479 24.425 77.37 24.6967C76.9922 24.9652 76.5149 25.0994 75.9382 25.0994C75.4609 25.0994 75.0367 24.995 74.6655 24.7862C74.2943 24.5741 74.0026 24.2559 73.7905 23.8317C73.5784 23.4041 73.4723 22.8655 73.4723 22.2159V17.3636H74.6456V22.1364C74.6456 22.6932 74.8014 23.1373 75.1129 23.4688C75.4278 23.8002 75.8288 23.9659 76.3161 23.9659C76.6077 23.9659 76.9044 23.8913 77.206 23.7422C77.5109 23.593 77.7661 23.3643 77.9716 23.0561C78.1804 22.7479 78.2848 22.3551 78.2848 21.8778ZM83.8542 25.179C83.3703 25.179 82.9312 25.0878 82.5368 24.9055C82.1423 24.7199 81.8291 24.4531 81.5971 24.1051C81.3651 23.7538 81.2491 23.3295 81.2491 22.8324C81.2491 22.3949 81.3353 22.0402 81.5076 21.7685C81.68 21.4934 81.9103 21.2779 82.1987 21.1222C82.487 20.9664 82.8052 20.8504 83.1532 20.7741C83.5046 20.6946 83.8575 20.6316 84.2122 20.5852C84.6762 20.5256 85.0524 20.4808 85.3407 20.451C85.6324 20.4179 85.8445 20.3632 85.9771 20.2869C86.113 20.2107 86.1809 20.0781 86.1809 19.8892V19.8494C86.1809 19.3589 86.0467 18.9777 85.7782 18.706C85.5131 18.4342 85.1104 18.2983 84.5701 18.2983C84.01 18.2983 83.5708 18.4209 83.2527 18.6662C82.9345 18.9115 82.7108 19.1733 82.5815 19.4517L81.4679 19.054C81.6667 18.59 81.9319 18.2287 82.2633 17.9702C82.5981 17.7083 82.9627 17.526 83.3571 17.4233C83.7548 17.3172 84.1459 17.2642 84.5304 17.2642C84.7756 17.2642 85.0574 17.294 85.3755 17.3537C85.697 17.41 86.0069 17.5277 86.3052 17.7067C86.6068 17.8857 86.8571 18.1558 87.0559 18.517C87.2548 18.8783 87.3542 19.3622 87.3542 19.9688V25H86.1809V23.9659H86.1213C86.0417 24.1316 85.9092 24.3089 85.7235 24.4979C85.5379 24.6868 85.291 24.8475 84.9828 24.9801C84.6745 25.1127 84.2984 25.179 83.8542 25.179ZM84.0332 24.125C84.4972 24.125 84.8883 24.0339 85.2065 23.8516C85.528 23.6693 85.7699 23.4339 85.9324 23.1456C86.0981 22.8572 86.1809 22.554 86.1809 22.2358V21.1619C86.1312 21.2216 86.0218 21.2763 85.8528 21.326C85.6871 21.3724 85.4949 21.4138 85.2761 21.4503C85.0607 21.4834 84.8502 21.5133 84.6447 21.5398C84.4425 21.563 84.2785 21.5829 84.1525 21.5994C83.8476 21.6392 83.5626 21.7038 83.2974 21.7933C83.0356 21.8795 82.8234 22.0104 82.661 22.1861C82.502 22.3584 82.4224 22.5937 82.4224 22.892C82.4224 23.2997 82.5732 23.608 82.8748 23.8168C83.1797 24.0223 83.5659 24.125 84.0332 24.125ZM90.669 14.8182V25H89.4957V14.8182H90.669ZM92.818 25V17.3636H93.9913V25H92.818ZM93.4146 16.0909C93.1859 16.0909 92.9887 16.013 92.823 15.8572C92.6606 15.7015 92.5794 15.5142 92.5794 15.2955C92.5794 15.0767 92.6606 14.8894 92.823 14.7337C92.9887 14.5779 93.1859 14.5 93.4146 14.5C93.6433 14.5 93.8388 14.5779 94.0012 14.7337C94.167 14.8894 94.2498 15.0767 94.2498 15.2955C94.2498 15.5142 94.167 15.7015 94.0012 15.8572C93.8388 16.013 93.6433 16.0909 93.4146 16.0909ZM99.4613 17.3636V18.358H95.5039V17.3636H99.4613ZM96.6573 15.5341H97.8306V22.8125C97.8306 23.1439 97.8787 23.3925 97.9748 23.5582C98.0742 23.7206 98.2002 23.83 98.3526 23.8864C98.5084 23.9394 98.6725 23.9659 98.8448 23.9659C98.9741 23.9659 99.0801 23.9593 99.163 23.946C99.2459 23.9295 99.3121 23.9162 99.3619 23.9062L99.6005 24.9602C99.521 24.9901 99.4099 25.0199 99.2674 25.0497C99.1249 25.0829 98.9442 25.0994 98.7255 25.0994C98.3941 25.0994 98.0692 25.0282 97.7511 24.8857C97.4362 24.7431 97.1744 24.526 96.9656 24.2344C96.7601 23.9427 96.6573 23.5748 96.6573 23.1307V15.5341ZM101.982 27.8636C101.783 27.8636 101.606 27.8471 101.45 27.8139C101.294 27.7841 101.186 27.7543 101.127 27.7244L101.425 26.6903C101.71 26.7633 101.962 26.7898 102.181 26.7699C102.4 26.75 102.593 26.6522 102.762 26.4766C102.935 26.3042 103.092 26.0241 103.235 25.6364L103.453 25.0398L100.63 17.3636H101.902L104.01 23.4489H104.09L106.198 17.3636H107.471L104.229 26.1136C104.083 26.508 103.903 26.8345 103.687 27.093C103.472 27.3549 103.221 27.5488 102.936 27.6747C102.655 27.8007 102.337 27.8636 101.982 27.8636Z" fill="black"/>
<rect x="0.5" y="0.5" width="115" height="39" rx="7.5" stroke="black" stroke-opacity="0.1"/>
<rect x="124.5" y="0.5" width="125" height="39" rx="7.5" fill="#E6E9F5"/>
<path fill-rule="evenodd" clip-rule="evenodd" d="M148.9 9.5H138.767V14.5667C138.767 16.4743 139.821 18.1357 141.379 19C139.821 19.8643 138.767 21.5257 138.767 23.4333L138.767 28.5H148.9V23.4333C148.9 21.5257 147.846 19.8643 146.288 19C147.846 18.1357 148.9 16.4743 148.9 14.5667V9.5Z" fill="#8D33FF"/>
<mask id="mask0_1_1790" style="mask-type:alpha" maskUnits="userSpaceOnUse" x="138" y="9" width="11" height="20">
<path fill-rule="evenodd" clip-rule="evenodd" d="M148.9 9.5H138.767V14.5667C138.767 16.4743 139.821 18.1357 141.379 19C139.821 19.8643 138.767 21.5257 138.767 23.4333L138.767 28.5H148.9V23.4333C148.9 21.5257 147.846 19.8643 146.288 19C147.846 18.1357 148.9 16.4743 148.9 14.5667V9.5Z" fill="#731DE0"/>
</mask>
<g mask="url(#mask0_1_1790)">
<path d="M147.633 19.0002H140.667L139.4 18.5779C139.048 17.5927 138.429 15.749 138.767 16.2557C139.189 16.889 141.511 17.1002 144.467 16.0447C146.831 15.2002 148.548 15.9743 149.111 16.4669L147.633 19.0002Z" fill="#FF8833"/>
<path d="M138.325 27.6557H148.184L149.977 27.0669C150.475 25.6933 151.351 23.1229 150.873 23.8293C150.275 24.7122 146.989 25.0067 142.806 23.5351C139.46 22.3577 137.03 23.437 136.233 24.1237L138.325 27.6557Z" fill="#FF8833"/>
<path d="M143.411 20.2666C143.411 20.6164 143.127 20.9 142.778 20.9C142.428 20.9 142.144 20.6164 142.144 20.2666C142.144 19.9169 142.428 19.6333 142.778 19.6333C143.127 19.6333 143.411 19.9169 143.411 20.2666Z" fill="#FF8833"/>
<path d="M145.522 22.3777C145.522 22.7275 145.239 23.0111 144.889 23.0111C144.539 23.0111 144.255 22.7275 144.255 22.3777C144.255 22.0279 144.539 21.7444 144.889 21.7444C145.239 21.7444 145.522 22.0279 145.522 22.3777Z" fill="#FF8833"/>
<path d="M143.833 23.6446C143.833 23.9943 143.55 24.2779 143.2 24.2779C142.85 24.2779 142.567 23.9943 142.567 23.6446C142.567 23.2948 142.85 23.0112 143.2 23.0112C143.55 23.0112 143.833 23.2948 143.833 23.6446Z" fill="#FF8833"/>
</g>
<path d="M137.5 10.5C137.5 9.94771 137.948 9.5 138.5 9.5H149.167C149.719 9.5 150.167 9.94772 150.167 10.5V11.4556C150.167 12.0078 149.719 12.4556 149.167 12.4556H138.5C137.948 12.4556 137.5 12.0078 137.5 11.4556V10.5Z" fill="#FF8833"/>
<path d="M137.5 26.5447C137.5 25.9924 137.948 25.5447 138.5 25.5447H149.167C149.719 25.5447 150.167 25.9924 150.167 26.5447V27.5002C150.167 28.0525 149.719 28.5002 149.167 28.5002H138.5C137.948 28.5002 137.5 28.0525 137.5 27.5002V26.5447Z" fill="#FF8833"/>
<path d="M163.233 25V14.8182H166.673C167.472 14.8182 168.125 14.9624 168.632 15.2507C169.143 15.5357 169.52 15.9219 169.766 16.4091C170.011 16.8963 170.134 17.4399 170.134 18.0398C170.134 18.6397 170.011 19.1849 169.766 19.6754C169.524 20.166 169.149 20.5571 168.642 20.8487C168.135 21.1371 167.485 21.2812 166.693 21.2812H164.227V20.1875H166.653C167.2 20.1875 167.639 20.093 167.971 19.9041C168.302 19.7152 168.543 19.46 168.692 19.1385C168.844 18.8137 168.92 18.4474 168.92 18.0398C168.92 17.6321 168.844 17.2675 168.692 16.946C168.543 16.6245 168.301 16.3726 167.966 16.1903C167.631 16.0047 167.187 15.9119 166.634 15.9119H164.466V25H163.233ZM171.961 25V17.3636H173.094V18.517H173.174C173.313 18.1392 173.565 17.8326 173.929 17.5973C174.294 17.362 174.705 17.2443 175.162 17.2443C175.248 17.2443 175.356 17.246 175.485 17.2493C175.615 17.2526 175.712 17.2576 175.779 17.2642V18.4574C175.739 18.4474 175.648 18.4325 175.505 18.4126C175.366 18.3894 175.219 18.3778 175.063 18.3778C174.692 18.3778 174.36 18.4557 174.069 18.6115C173.78 18.764 173.551 18.9761 173.382 19.2479C173.217 19.5163 173.134 19.8229 173.134 20.1676V25H171.961ZM180.039 25.1591C179.35 25.1591 178.745 24.995 178.225 24.6669C177.708 24.3388 177.303 23.8797 177.012 23.2898C176.723 22.6998 176.579 22.0104 176.579 21.2216C176.579 20.4261 176.723 19.7318 177.012 19.1385C177.303 18.5452 177.708 18.0845 178.225 17.7564C178.745 17.4283 179.35 17.2642 180.039 17.2642C180.729 17.2642 181.332 17.4283 181.849 17.7564C182.369 18.0845 182.774 18.5452 183.062 19.1385C183.354 19.7318 183.5 20.4261 183.5 21.2216C183.5 22.0104 183.354 22.6998 183.062 23.2898C182.774 23.8797 182.369 24.3388 181.849 24.6669C181.332 24.995 180.729 25.1591 180.039 25.1591ZM180.039 24.1051C180.563 24.1051 180.994 23.9709 181.332 23.7024C181.67 23.4339 181.92 23.081 182.083 22.6435C182.245 22.206 182.326 21.732 182.326 21.2216C182.326 20.7112 182.245 20.2356 182.083 19.7947C181.92 19.3539 181.67 18.9976 181.332 18.7259C180.994 18.4541 180.563 18.3182 180.039 18.3182C179.516 18.3182 179.085 18.4541 178.747 18.7259C178.409 18.9976 178.158 19.3539 177.996 19.7947C177.834 20.2356 177.752 20.7112 177.752 21.2216C177.752 21.732 177.834 22.206 177.996 22.6435C178.158 23.081 178.409 23.4339 178.747 23.7024C179.085 23.9709 179.516 24.1051 180.039 24.1051ZM188.174 25.1591C187.538 25.1591 186.976 24.9983 186.489 24.6768C186.002 24.352 185.62 23.8946 185.345 23.3047C185.07 22.7114 184.933 22.0104 184.933 21.2017C184.933 20.3996 185.07 19.7036 185.345 19.1136C185.62 18.5237 186.003 18.0679 186.494 17.7464C186.984 17.425 187.551 17.2642 188.194 17.2642C188.691 17.2642 189.084 17.3471 189.372 17.5128C189.664 17.6752 189.886 17.8608 190.039 18.0696C190.194 18.2751 190.315 18.4441 190.401 18.5767H190.501V14.8182H191.674V25H190.541V23.8267H190.401C190.315 23.9659 190.193 24.1416 190.034 24.3537C189.874 24.5625 189.647 24.7498 189.352 24.9155C189.057 25.0779 188.665 25.1591 188.174 25.1591ZM188.333 24.1051C188.804 24.1051 189.202 23.9825 189.526 23.7372C189.851 23.4886 190.098 23.1456 190.267 22.7081C190.436 22.2673 190.521 21.7585 190.521 21.1818C190.521 20.6117 190.438 20.1129 190.272 19.6854C190.106 19.2545 189.861 18.9197 189.536 18.6811C189.212 18.4392 188.811 18.3182 188.333 18.3182C187.836 18.3182 187.422 18.4458 187.09 18.701C186.762 18.9529 186.515 19.2959 186.35 19.7301C186.187 20.161 186.106 20.6449 186.106 21.1818C186.106 21.7254 186.189 22.2192 186.355 22.6634C186.524 23.1042 186.772 23.4555 187.1 23.7173C187.432 23.9759 187.843 24.1051 188.333 24.1051ZM198.798 21.8778V17.3636H199.972V25H198.798V23.7074H198.719C198.54 24.0952 198.262 24.425 197.884 24.6967C197.506 24.9652 197.029 25.0994 196.452 25.0994C195.975 25.0994 195.55 24.995 195.179 24.7862C194.808 24.5741 194.516 24.2559 194.304 23.8317C194.092 23.4041 193.986 22.8655 193.986 22.2159V17.3636H195.159V22.1364C195.159 22.6932 195.315 23.1373 195.627 23.4688C195.941 23.8002 196.343 23.9659 196.83 23.9659C197.121 23.9659 197.418 23.8913 197.72 23.7422C198.025 23.593 198.28 23.3643 198.485 23.0561C198.694 22.7479 198.798 22.3551 198.798 21.8778ZM205.223 25.1591C204.507 25.1591 203.891 24.9901 203.374 24.652C202.857 24.3139 202.459 23.8482 202.18 23.255C201.902 22.6617 201.763 21.9839 201.763 21.2216C201.763 20.446 201.905 19.7616 202.19 19.1683C202.479 18.5717 202.88 18.1061 203.393 17.7713C203.911 17.4332 204.514 17.2642 205.203 17.2642C205.74 17.2642 206.224 17.3636 206.655 17.5625C207.086 17.7614 207.439 18.0398 207.714 18.3977C207.989 18.7557 208.16 19.1733 208.226 19.6506H207.053C206.963 19.3026 206.764 18.9943 206.456 18.7259C206.151 18.4541 205.74 18.3182 205.223 18.3182C204.766 18.3182 204.365 18.4375 204.02 18.6761C203.679 18.9115 203.412 19.2446 203.219 19.6754C203.031 20.103 202.936 20.6051 202.936 21.1818C202.936 21.7718 203.029 22.2855 203.214 22.723C203.403 23.1605 203.669 23.5002 204.01 23.7422C204.355 23.9841 204.759 24.1051 205.223 24.1051C205.528 24.1051 205.805 24.0521 206.053 23.946C206.302 23.84 206.512 23.6875 206.685 23.4886C206.857 23.2898 206.98 23.0511 207.053 22.7727H208.226C208.16 23.2235 207.996 23.6295 207.734 23.9908C207.475 24.3487 207.132 24.6338 206.705 24.8459C206.28 25.0547 205.786 25.1591 205.223 25.1591ZM213.262 17.3636V18.358H209.305V17.3636H213.262ZM210.458 15.5341H211.631V22.8125C211.631 23.1439 211.679 23.3925 211.776 23.5582C211.875 23.7206 212.001 23.83 212.153 23.8864C212.309 23.9394 212.473 23.9659 212.646 23.9659C212.775 23.9659 212.881 23.9593 212.964 23.946C213.047 23.9295 213.113 23.9162 213.163 23.9062L213.401 24.9602C213.322 24.9901 213.211 25.0199 213.068 25.0497C212.926 25.0829 212.745 25.0994 212.526 25.0994C212.195 25.0994 211.87 25.0282 211.552 24.8857C211.237 24.7431 210.975 24.526 210.766 24.2344C210.561 23.9427 210.458 23.5748 210.458 23.1307V15.5341ZM215.027 25V17.3636H216.2V25H215.027ZM215.624 16.0909C215.395 16.0909 215.198 16.013 215.032 15.8572C214.87 15.7015 214.788 15.5142 214.788 15.2955C214.788 15.0767 214.87 14.8894 215.032 14.7337C215.198 14.5779 215.395 14.5 215.624 14.5C215.852 14.5 216.048 14.5779 216.21 14.7337C216.376 14.8894 216.459 15.0767 216.459 15.2955C216.459 15.5142 216.376 15.7015 216.21 15.8572C216.048 16.013 215.852 16.0909 215.624 16.0909ZM224.594 17.3636L221.77 25H220.577L217.753 17.3636H219.025L221.133 23.4489H221.213L223.321 17.3636H224.594ZM226.142 25V17.3636H227.316V25H226.142ZM226.739 16.0909C226.51 16.0909 226.313 16.013 226.147 15.8572C225.985 15.7015 225.904 15.5142 225.904 15.2955C225.904 15.0767 225.985 14.8894 226.147 14.7337C226.313 14.5779 226.51 14.5 226.739 14.5C226.968 14.5 227.163 14.5779 227.325 14.7337C227.491 14.8894 227.574 15.0767 227.574 15.2955C227.574 15.5142 227.491 15.7015 227.325 15.8572C227.163 16.013 226.968 16.0909 226.739 16.0909ZM232.786 17.3636V18.358H228.828V17.3636H232.786ZM229.982 15.5341H231.155V22.8125C231.155 23.1439 231.203 23.3925 231.299 23.5582C231.398 23.7206 231.524 23.83 231.677 23.8864C231.833 23.9394 231.997 23.9659 232.169 23.9659C232.298 23.9659 232.404 23.9593 232.487 23.946C232.57 23.9295 232.636 23.9162 232.686 23.9062L232.925 24.9602C232.845 24.9901 232.734 25.0199 232.592 25.0497C232.449 25.0829 232.268 25.0994 232.05 25.0994C231.718 25.0994 231.393 25.0282 231.075 24.8857C230.76 24.7431 230.499 24.526 230.29 24.2344C230.084 23.9427 229.982 23.5748 229.982 23.1307V15.5341ZM235.306 27.8636C235.107 27.8636 234.93 27.8471 234.774 27.8139C234.618 27.7841 234.511 27.7543 234.451 27.7244L234.749 26.6903C235.034 26.7633 235.286 26.7898 235.505 26.7699C235.724 26.75 235.918 26.6522 236.087 26.4766C236.259 26.3042 236.416 26.0241 236.559 25.6364L236.778 25.0398L233.954 17.3636H235.227L237.335 23.4489H237.414L239.522 17.3636H240.795L237.553 26.1136C237.407 26.508 237.227 26.8345 237.011 27.093C236.796 27.3549 236.546 27.5488 236.261 27.6747C235.979 27.8007 235.661 27.8636 235.306 27.8636Z" fill="black"/>
<rect x="124.5" y="0.5" width="125" height="39" rx="7.5" stroke="#0066FF"/>
<rect x="258.5" y="0.5" width="166" height="39" rx="7.5" fill="#E6E9F5"/>
<path d="M277.968 28.2846H267.952C267.424 28.2846 267 27.8607 267 27.3328V17.3165C267 16.7886 267.424 16.3647 267.952 16.3647H277.968C278.496 16.3647 278.92 16.7886 278.92 17.3165V27.3328C278.92 27.8607 278.496 28.2846 277.968 28.2846Z" fill="#FF8833"/>
<path fill-rule="evenodd" clip-rule="evenodd" d="M270.748 13.3313C270.724 13.3552 270.714 13.3829 270.714 13.4088V17.7514H269.227V13.4088C269.227 12.5296 269.946 11.8101 270.825 11.8101H274.997C275.876 11.8101 276.596 12.5296 276.596 13.4088V17.6621H275.109V13.4088C275.109 13.3829 275.098 13.3552 275.074 13.3313C275.051 13.3075 275.023 13.2972 274.997 13.2972H270.825C270.8 13.2972 270.772 13.3075 270.748 13.3313Z" fill="#FF8833"/>
<path d="M274.57 20.6922C274.57 19.7999 273.849 19.0786 272.956 19.0786C272.064 19.0786 271.343 19.7999 271.343 20.6922C271.343 21.2945 271.677 21.8225 272.168 22.0976L271.343 25.4884H272.956H274.57L273.744 22.0976C274.235 21.8225 274.57 21.2945 274.57 20.6922Z" fill="#8D33FF"/>
<path fill-rule="evenodd" clip-rule="evenodd" d="M287.954 24.9376C287.704 24.2416 286.936 23.8805 286.24 24.1311C285.544 24.3817 285.183 25.149 285.434 25.8451C285.684 26.5411 286.452 26.9021 287.148 26.6515C287.844 26.4009 288.205 25.6336 287.954 24.9376ZM285.901 23.1902C287.117 22.7525 288.457 23.3832 288.895 24.5988C289.333 25.8144 288.702 27.1547 287.486 27.5924C286.271 28.0301 284.931 27.3994 284.493 26.1838C284.055 24.9682 284.686 23.6279 285.901 23.1902Z" fill="#8D33FF" stroke="#8D33FF" stroke-width="0.5" stroke-miterlimit="10"/>
<path fill-rule="evenodd" clip-rule="evenodd" d="M281.562 11.7192C281.822 11.6256 282.108 11.7604 282.202 12.0202L286.304 23.4136C286.398 23.6734 286.263 23.9598 286.003 24.0534C285.743 24.1469 285.457 24.0121 285.363 23.7523L281.261 12.359C281.168 12.0992 281.302 11.8127 281.562 11.7192Z" fill="#8D33FF" stroke="#8D33FF" stroke-width="0.5" stroke-miterlimit="10" stroke-linecap="round" stroke-linejoin="round"/>
<path d="M281.778 13.0537L283.128 16.8035L281.291 17.4649C281.031 17.5585 280.745 17.4237 280.651 17.1639L279.64 14.355C279.546 14.0952 279.681 13.8087 279.941 13.7152L281.778 13.0537Z" fill="#8D33FF"/>
<path d="M297.233 25V14.8182H300.793C301.502 14.8182 302.087 14.9408 302.548 15.1861C303.008 15.428 303.351 15.7545 303.577 16.1655C303.802 16.5732 303.915 17.0256 303.915 17.5227C303.915 17.9602 303.837 18.3215 303.681 18.6065C303.529 18.8916 303.326 19.117 303.075 19.2827C302.826 19.4484 302.556 19.571 302.264 19.6506V19.75C302.576 19.7699 302.889 19.8793 303.204 20.0781C303.519 20.277 303.782 20.562 303.994 20.9332C304.206 21.3045 304.312 21.7585 304.312 22.2955C304.312 22.8059 304.196 23.2649 303.964 23.6726C303.732 24.0803 303.366 24.4034 302.866 24.642C302.365 24.8807 301.714 25 300.912 25H297.233ZM298.466 23.9062H300.912C301.717 23.9062 302.289 23.7505 302.627 23.4389C302.969 23.1241 303.139 22.7429 303.139 22.2955C303.139 21.9508 303.051 21.6326 302.876 21.3409C302.7 21.0459 302.45 20.8106 302.125 20.6349C301.8 20.456 301.416 20.3665 300.972 20.3665H298.466V23.9062ZM298.466 19.2926H300.753C301.124 19.2926 301.459 19.2197 301.757 19.0739C302.059 18.928 302.297 18.7225 302.473 18.4574C302.652 18.1922 302.741 17.8807 302.741 17.5227C302.741 17.0753 302.586 16.6958 302.274 16.3842C301.963 16.0694 301.469 15.9119 300.793 15.9119H298.466V19.2926ZM310.992 21.8778V17.3636H312.165V25H310.992V23.7074H310.912C310.733 24.0952 310.455 24.425 310.077 24.6967C309.699 24.9652 309.222 25.0994 308.645 25.0994C308.168 25.0994 307.744 24.995 307.373 24.7862C307.001 24.5741 306.71 24.2559 306.498 23.8317C306.285 23.4041 306.179 22.8655 306.179 22.2159V17.3636H307.353V22.1364C307.353 22.6932 307.508 23.1373 307.82 23.4688C308.135 23.8002 308.536 23.9659 309.023 23.9659C309.315 23.9659 309.611 23.8913 309.913 23.7422C310.218 23.593 310.473 23.3643 310.679 23.0561C310.887 22.7479 310.992 22.3551 310.992 21.8778ZM319.723 19.0739L318.669 19.3722C318.603 19.1965 318.505 19.0258 318.376 18.8601C318.25 18.6911 318.078 18.5518 317.859 18.4425C317.64 18.3331 317.36 18.2784 317.019 18.2784C316.551 18.2784 316.162 18.3861 315.85 18.6016C315.542 18.8137 315.388 19.0838 315.388 19.4119C315.388 19.7036 315.494 19.9339 315.706 20.103C315.918 20.272 316.25 20.4129 316.7 20.5256L317.834 20.804C318.517 20.9697 319.026 21.2232 319.36 21.5646C319.695 21.9027 319.862 22.3385 319.862 22.8722C319.862 23.3097 319.736 23.7008 319.485 24.0455C319.236 24.3902 318.888 24.6619 318.441 24.8608C317.993 25.0597 317.473 25.1591 316.879 25.1591C316.101 25.1591 315.456 24.9901 314.945 24.652C314.435 24.3139 314.112 23.8201 313.976 23.1705L315.09 22.892C315.196 23.303 315.396 23.6113 315.691 23.8168C315.99 24.0223 316.379 24.125 316.86 24.125C317.406 24.125 317.841 24.009 318.162 23.777C318.487 23.5417 318.649 23.2599 318.649 22.9318C318.649 22.6667 318.557 22.4446 318.371 22.2656C318.185 22.0833 317.9 21.9474 317.516 21.858L316.243 21.5597C315.544 21.3939 315.03 21.1371 314.702 20.7891C314.377 20.4377 314.215 19.9986 314.215 19.4716C314.215 19.0407 314.336 18.6596 314.578 18.3281C314.823 17.9967 315.156 17.7365 315.577 17.5476C316.001 17.3587 316.482 17.2642 317.019 17.2642C317.774 17.2642 318.368 17.4299 318.798 17.7614C319.233 18.0928 319.541 18.5303 319.723 19.0739ZM321.629 25V17.3636H322.802V25H321.629ZM322.225 16.0909C321.996 16.0909 321.799 16.013 321.634 15.8572C321.471 15.7015 321.39 15.5142 321.39 15.2955C321.39 15.0767 321.471 14.8894 321.634 14.7337C321.799 14.5779 321.996 14.5 322.225 14.5C322.454 14.5 322.649 14.5779 322.812 14.7337C322.978 14.8894 323.06 15.0767 323.06 15.2955C323.06 15.5142 322.978 15.7015 322.812 15.8572C322.649 16.013 322.454 16.0909 322.225 16.0909ZM326.124 20.4062V25H324.951V17.3636H326.084V18.5568H326.184C326.363 18.169 326.635 17.8575 326.999 17.6222C327.364 17.3835 327.834 17.2642 328.411 17.2642C328.928 17.2642 329.381 17.3703 329.768 17.5824C330.156 17.7912 330.458 18.1094 330.673 18.5369C330.889 18.9612 330.996 19.4981 330.996 20.1477V25H329.823V20.2273C329.823 19.6274 329.667 19.16 329.356 18.8253C329.044 18.4872 328.617 18.3182 328.073 18.3182C327.698 18.3182 327.364 18.3994 327.069 18.5618C326.777 18.7242 326.547 18.9612 326.378 19.2727C326.209 19.5843 326.124 19.9621 326.124 20.4062ZM336.342 25.1591C335.606 25.1591 334.971 24.9967 334.438 24.6719C333.908 24.3438 333.498 23.8864 333.21 23.2997C332.925 22.7098 332.782 22.0237 332.782 21.2415C332.782 20.4593 332.925 19.7699 333.21 19.1733C333.498 18.5734 333.899 18.1061 334.413 17.7713C334.93 17.4332 335.533 17.2642 336.223 17.2642C336.62 17.2642 337.013 17.3305 337.401 17.4631C337.789 17.5956 338.142 17.8111 338.46 18.1094C338.778 18.4044 339.032 18.7955 339.221 19.2827C339.409 19.7699 339.504 20.3698 339.504 21.0824V21.5795H333.618V20.5653H338.311C338.311 20.1345 338.225 19.75 338.052 19.4119C337.883 19.0739 337.641 18.8071 337.326 18.6115C337.015 18.416 336.647 18.3182 336.223 18.3182C335.755 18.3182 335.351 18.4342 335.01 18.6662C334.672 18.8949 334.411 19.1932 334.229 19.5611C334.047 19.929 333.956 20.3234 333.956 20.7443V21.4205C333.956 21.9972 334.055 22.486 334.254 22.8871C334.456 23.2848 334.736 23.5881 335.094 23.7969C335.452 24.0024 335.868 24.1051 336.342 24.1051C336.65 24.1051 336.929 24.062 337.177 23.9759C337.429 23.8864 337.646 23.7538 337.828 23.5781C338.011 23.3991 338.152 23.1771 338.251 22.9119L339.385 23.2301C339.265 23.6146 339.065 23.9527 338.783 24.2443C338.501 24.5327 338.153 24.758 337.739 24.9205C337.325 25.0795 336.859 25.1591 336.342 25.1591ZM346.698 19.0739L345.644 19.3722C345.578 19.1965 345.48 19.0258 345.35 18.8601C345.225 18.6911 345.052 18.5518 344.833 18.4425C344.615 18.3331 344.335 18.2784 343.993 18.2784C343.526 18.2784 343.136 18.3861 342.825 18.6016C342.517 18.8137 342.363 19.0838 342.363 19.4119C342.363 19.7036 342.469 19.9339 342.681 20.103C342.893 20.272 343.224 20.4129 343.675 20.5256L344.809 20.804C345.491 20.9697 346 21.2232 346.335 21.5646C346.67 21.9027 346.837 22.3385 346.837 22.8722C346.837 23.3097 346.711 23.7008 346.459 24.0455C346.211 24.3902 345.863 24.6619 345.415 24.8608C344.968 25.0597 344.447 25.1591 343.854 25.1591C343.075 25.1591 342.431 24.9901 341.92 24.652C341.41 24.3139 341.087 23.8201 340.951 23.1705L342.064 22.892C342.17 23.303 342.371 23.6113 342.666 23.8168C342.964 24.0223 343.354 24.125 343.834 24.125C344.381 24.125 344.815 24.009 345.137 23.777C345.462 23.5417 345.624 23.2599 345.624 22.9318C345.624 22.6667 345.531 22.4446 345.346 22.2656C345.16 22.0833 344.875 21.9474 344.49 21.858L343.218 21.5597C342.518 21.3939 342.005 21.1371 341.676 20.7891C341.352 20.4377 341.189 19.9986 341.189 19.4716C341.189 19.0407 341.31 18.6596 341.552 18.3281C341.797 17.9967 342.131 17.7365 342.551 17.5476C342.976 17.3587 343.456 17.2642 343.993 17.2642C344.749 17.2642 345.342 17.4299 345.773 17.7614C346.207 18.0928 346.516 18.5303 346.698 19.0739ZM354.012 19.0739L352.958 19.3722C352.892 19.1965 352.794 19.0258 352.665 18.8601C352.539 18.6911 352.367 18.5518 352.148 18.4425C351.929 18.3331 351.649 18.2784 351.308 18.2784C350.84 18.2784 350.451 18.3861 350.139 18.6016C349.831 18.8137 349.677 19.0838 349.677 19.4119C349.677 19.7036 349.783 19.9339 349.995 20.103C350.207 20.272 350.539 20.4129 350.99 20.5256L352.123 20.804C352.806 20.9697 353.315 21.2232 353.649 21.5646C353.984 21.9027 354.151 22.3385 354.151 22.8722C354.151 23.3097 354.026 23.7008 353.774 24.0455C353.525 24.3902 353.177 24.6619 352.73 24.8608C352.282 25.0597 351.762 25.1591 351.169 25.1591C350.39 25.1591 349.745 24.9901 349.235 24.652C348.724 24.3139 348.401 23.8201 348.265 23.1705L349.379 22.892C349.485 23.303 349.685 23.6113 349.98 23.8168C350.279 24.0223 350.668 24.125 351.149 24.125C351.695 24.125 352.13 24.009 352.451 23.777C352.776 23.5417 352.938 23.2599 352.938 22.9318C352.938 22.6667 352.846 22.4446 352.66 22.2656C352.474 22.0833 352.189 21.9474 351.805 21.858L350.532 21.5597C349.833 21.3939 349.319 21.1371 348.991 20.7891C348.666 20.4377 348.504 19.9986 348.504 19.4716C348.504 19.0407 348.625 18.6596 348.867 18.3281C349.112 17.9967 349.445 17.7365 349.866 17.5476C350.29 17.3587 350.771 17.2642 351.308 17.2642C352.063 17.2642 352.657 17.4299 353.088 17.7614C353.522 18.0928 353.83 18.5303 354.012 19.0739ZM362.739 25.1392C362.069 25.1392 361.492 25.0166 361.009 24.7713C360.525 24.526 360.152 24.1896 359.89 23.7621C359.628 23.3345 359.497 22.8456 359.497 22.2955C359.497 21.8712 359.587 21.495 359.766 21.1669C359.948 20.8355 360.198 20.5289 360.516 20.2472C360.838 19.9621 361.207 19.6771 361.625 19.392L363.097 18.2983C363.385 18.1094 363.615 17.9072 363.788 17.6918C363.963 17.4763 364.051 17.1946 364.051 16.8466C364.051 16.5881 363.937 16.3378 363.708 16.0959C363.483 15.8539 363.186 15.733 362.818 15.733C362.56 15.733 362.331 15.7992 362.132 15.9318C361.937 16.0611 361.782 16.2268 361.67 16.429C361.56 16.6278 361.506 16.8333 361.506 17.0455C361.506 17.2841 361.57 17.526 361.7 17.7713C361.832 18.0133 362 18.2618 362.202 18.517C362.407 18.7689 362.619 19.0275 362.838 19.2926L367.511 25H366.099L362.241 20.3466C361.884 19.9157 361.559 19.5246 361.267 19.1733C360.975 18.822 360.743 18.4756 360.571 18.1342C360.399 17.7929 360.312 17.4233 360.312 17.0256C360.312 16.5682 360.414 16.1671 360.616 15.8224C360.821 15.4744 361.108 15.2043 361.476 15.0121C361.847 14.8165 362.281 14.7188 362.778 14.7188C363.289 14.7188 363.728 14.8182 364.096 15.017C364.464 15.2126 364.747 15.4728 364.946 15.7976C365.145 16.1191 365.244 16.4688 365.244 16.8466C365.244 17.3338 365.123 17.7564 364.881 18.1143C364.639 18.4723 364.31 18.8054 363.892 19.1136L361.864 20.625C361.406 20.9631 361.096 21.2912 360.934 21.6094C360.772 21.9276 360.69 22.1562 360.69 22.2955C360.69 22.6136 360.773 22.9103 360.939 23.1854C361.105 23.4605 361.338 23.6825 361.64 23.8516C361.942 24.0206 362.295 24.1051 362.699 24.1051C363.083 24.1051 363.458 24.0239 363.822 23.8615C364.187 23.6958 364.517 23.4571 364.812 23.1456C365.11 22.834 365.345 22.4595 365.518 22.022C365.693 21.5845 365.781 21.0923 365.781 20.5455H366.915C366.915 21.2216 366.837 21.7734 366.681 22.201C366.525 22.6286 366.35 22.9633 366.154 23.2053C365.959 23.4472 365.801 23.6278 365.682 23.7472C365.642 23.7969 365.606 23.8466 365.572 23.8963C365.539 23.946 365.503 23.9957 365.463 24.0455C365.135 24.4134 364.721 24.6884 364.22 24.8707C363.72 25.0497 363.226 25.1392 362.739 25.1392ZM381.1 18H379.867C379.794 17.6454 379.666 17.3338 379.484 17.0653C379.305 16.7969 379.086 16.5715 378.828 16.3892C378.573 16.2036 378.289 16.0644 377.978 15.9716C377.666 15.8788 377.341 15.8324 377.003 15.8324C376.387 15.8324 375.828 15.9882 375.328 16.2997C374.831 16.6113 374.435 17.0703 374.14 17.6768C373.848 18.2834 373.702 19.0275 373.702 19.9091C373.702 20.7907 373.848 21.5348 374.14 22.1413C374.435 22.7479 374.831 23.2069 375.328 23.5185C375.828 23.83 376.387 23.9858 377.003 23.9858C377.341 23.9858 377.666 23.9394 377.978 23.8466C378.289 23.7538 378.573 23.6162 378.828 23.4339C379.086 23.2483 379.305 23.0213 379.484 22.7528C379.666 22.4811 379.794 22.1695 379.867 21.8182H381.1C381.007 22.3385 380.838 22.8042 380.593 23.2152C380.348 23.6262 380.043 23.9759 379.678 24.2642C379.314 24.5492 378.904 24.7663 378.45 24.9155C377.999 25.0646 377.517 25.1392 377.003 25.1392C376.135 25.1392 375.363 24.9271 374.687 24.5028C374.01 24.0786 373.479 23.4754 373.091 22.6932C372.703 21.911 372.509 20.983 372.509 19.9091C372.509 18.8352 372.703 17.9072 373.091 17.125C373.479 16.3428 374.01 15.7396 374.687 15.3153C375.363 14.8911 376.135 14.679 377.003 14.679C377.517 14.679 377.999 14.7536 378.45 14.9027C378.904 15.0518 379.314 15.2706 379.678 15.5589C380.043 15.844 380.348 16.192 380.593 16.603C380.838 17.0107 381.007 17.4763 381.1 18ZM385.18 25.179C384.696 25.179 384.257 25.0878 383.863 24.9055C383.469 24.7199 383.155 24.4531 382.923 24.1051C382.691 23.7538 382.575 23.3295 382.575 22.8324C382.575 22.3949 382.661 22.0402 382.834 21.7685C383.006 21.4934 383.237 21.2779 383.525 21.1222C383.813 20.9664 384.131 20.8504 384.479 20.7741C384.831 20.6946 385.184 20.6316 385.538 20.5852C386.002 20.5256 386.379 20.4808 386.667 20.451C386.959 20.4179 387.171 20.3632 387.303 20.2869C387.439 20.2107 387.507 20.0781 387.507 19.8892V19.8494C387.507 19.3589 387.373 18.9777 387.104 18.706C386.839 18.4342 386.437 18.2983 385.896 18.2983C385.336 18.2983 384.897 18.4209 384.579 18.6662C384.261 18.9115 384.037 19.1733 383.908 19.4517L382.794 19.054C382.993 18.59 383.258 18.2287 383.589 17.9702C383.924 17.7083 384.289 17.526 384.683 17.4233C385.081 17.3172 385.472 17.2642 385.857 17.2642C386.102 17.2642 386.384 17.294 386.702 17.3537C387.023 17.41 387.333 17.5277 387.631 17.7067C387.933 17.8857 388.183 18.1558 388.382 18.517C388.581 18.8783 388.68 19.3622 388.68 19.9688V25H387.507V23.9659H387.447C387.368 24.1316 387.235 24.3089 387.05 24.4979C386.864 24.6868 386.617 24.8475 386.309 24.9801C386.001 25.1127 385.625 25.179 385.18 25.179ZM385.359 24.125C385.823 24.125 386.214 24.0339 386.533 23.8516C386.854 23.6693 387.096 23.4339 387.259 23.1456C387.424 22.8572 387.507 22.554 387.507 22.2358V21.1619C387.457 21.2216 387.348 21.2763 387.179 21.326C387.013 21.3724 386.821 21.4138 386.602 21.4503C386.387 21.4834 386.176 21.5133 385.971 21.5398C385.769 21.563 385.605 21.5829 385.479 21.5994C385.174 21.6392 384.889 21.7038 384.624 21.7933C384.362 21.8795 384.15 22.0104 383.987 22.1861C383.828 22.3584 383.749 22.5937 383.749 22.892C383.749 23.2997 383.899 23.608 384.201 23.8168C384.506 24.0223 384.892 24.125 385.359 24.125ZM390.822 25V17.3636H391.955V18.517H392.035C392.174 18.1392 392.426 17.8326 392.791 17.5973C393.155 17.362 393.566 17.2443 394.024 17.2443C394.11 17.2443 394.218 17.246 394.347 17.2493C394.476 17.2526 394.574 17.2576 394.64 17.2642V18.4574C394.6 18.4474 394.509 18.4325 394.367 18.4126C394.227 18.3894 394.08 18.3778 393.924 18.3778C393.553 18.3778 393.222 18.4557 392.93 18.6115C392.642 18.764 392.413 18.9761 392.244 19.2479C392.078 19.5163 391.995 19.8229 391.995 20.1676V25H390.822ZM399 25.1591C398.264 25.1591 397.63 24.9967 397.096 24.6719C396.566 24.3438 396.156 23.8864 395.868 23.2997C395.583 22.7098 395.441 22.0237 395.441 21.2415C395.441 20.4593 395.583 19.7699 395.868 19.1733C396.156 18.5734 396.557 18.1061 397.071 17.7713C397.588 17.4332 398.191 17.2642 398.881 17.2642C399.279 17.2642 399.671 17.3305 400.059 17.4631C400.447 17.5956 400.8 17.8111 401.118 18.1094C401.436 18.4044 401.69 18.7955 401.879 19.2827C402.068 19.7699 402.162 20.3698 402.162 21.0824V21.5795H396.276V20.5653H400.969C400.969 20.1345 400.883 19.75 400.71 19.4119C400.541 19.0739 400.299 18.8071 399.985 18.6115C399.673 18.416 399.305 18.3182 398.881 18.3182C398.414 18.3182 398.009 18.4342 397.668 18.6662C397.33 18.8949 397.07 19.1932 396.887 19.5611C396.705 19.929 396.614 20.3234 396.614 20.7443V21.4205C396.614 21.9972 396.713 22.486 396.912 22.8871C397.114 23.2848 397.394 23.5881 397.752 23.7969C398.11 24.0024 398.526 24.1051 399 24.1051C399.308 24.1051 399.587 24.062 399.835 23.9759C400.087 23.8864 400.304 23.7538 400.487 23.5781C400.669 23.3991 400.81 23.1771 400.909 22.9119L402.043 23.2301C401.923 23.6146 401.723 23.9527 401.441 24.2443C401.16 24.5327 400.811 24.758 400.397 24.9205C399.983 25.0795 399.517 25.1591 399 25.1591ZM407.149 25.1591C406.413 25.1591 405.778 24.9967 405.244 24.6719C404.714 24.3438 404.305 23.8864 404.017 23.2997C403.731 22.7098 403.589 22.0237 403.589 21.2415C403.589 20.4593 403.731 19.7699 404.017 19.1733C404.305 18.5734 404.706 18.1061 405.22 17.7713C405.737 17.4332 406.34 17.2642 407.029 17.2642C407.427 17.2642 407.82 17.3305 408.208 17.4631C408.595 17.5956 408.948 17.8111 409.267 18.1094C409.585 18.4044 409.838 18.7955 410.027 19.2827C410.216 19.7699 410.311 20.3698 410.311 21.0824V21.5795H404.424V20.5653H409.117C409.117 20.1345 409.031 19.75 408.859 19.4119C408.69 19.0739 408.448 18.8071 408.133 18.6115C407.821 18.416 407.454 18.3182 407.029 18.3182C406.562 18.3182 406.158 18.4342 405.816 18.6662C405.478 18.8949 405.218 19.1932 405.036 19.5611C404.853 19.929 404.762 20.3234 404.762 20.7443V21.4205C404.762 21.9972 404.862 22.486 405.061 22.8871C405.263 23.2848 405.543 23.5881 405.901 23.7969C406.259 24.0024 406.675 24.1051 407.149 24.1051C407.457 24.1051 407.735 24.062 407.984 23.9759C408.236 23.8864 408.453 23.7538 408.635 23.5781C408.817 23.3991 408.958 23.1771 409.058 22.9119L410.191 23.2301C410.072 23.6146 409.871 23.9527 409.59 24.2443C409.308 24.5327 408.96 24.758 408.546 24.9205C408.131 25.0795 407.666 25.1591 407.149 25.1591ZM412.095 25V17.3636H413.229V18.517H413.308C413.448 18.1392 413.7 17.8326 414.064 17.5973C414.429 17.362 414.84 17.2443 415.297 17.2443C415.383 17.2443 415.491 17.246 415.62 17.2493C415.749 17.2526 415.847 17.2576 415.914 17.2642V18.4574C415.874 18.4474 415.783 18.4325 415.64 18.4126C415.501 18.3894 415.353 18.3778 415.198 18.3778C414.826 18.3778 414.495 18.4557 414.203 18.6115C413.915 18.764 413.686 18.9761 413.517 19.2479C413.352 19.5163 413.269 19.8229 413.269 20.1676V25H412.095Z" fill="black"/>
<rect x="258.5" y="0.5" width="166" height="39" rx="7.5" stroke="#0066FF"/>
<defs>
<clipPath id="clip0_1_1790">
<rect width="24" height="24" fill="white" transform="translate(8 8)"/>
</clipPath>
</defs>
</svg>
