<svg width="352" height="40" viewBox="0 0 352 40" fill="none" xmlns="http://www.w3.org/2000/svg">
<rect width="106" height="40" rx="8" fill="white"/>
<path d="M9.65057 25H8.35795L12.0966 14.8182H13.3693L17.108 25H15.8153L12.7727 16.429H12.6932L9.65057 25ZM10.1278 21.0227H15.3381V22.1165H10.1278V21.0227ZM19.7081 14.8182V25H18.5348V14.8182H19.7081ZM23.0304 14.8182V25H21.8571V14.8182H23.0304ZM32.2191 25.1591C31.5032 25.1591 30.8867 24.9901 30.3697 24.652C29.8526 24.3139 29.4549 23.8482 29.1765 23.255C28.8981 22.6617 28.7589 21.9839 28.7589 21.2216C28.7589 20.446 28.9014 19.7616 29.1864 19.1683C29.4748 18.5717 29.8758 18.1061 30.3896 17.7713C30.9066 17.4332 31.5098 17.2642 32.1992 17.2642C32.7362 17.2642 33.2201 17.3636 33.6509 17.5625C34.0818 17.7614 34.4348 18.0398 34.7099 18.3977C34.985 18.7557 35.1557 19.1733 35.2219 19.6506H34.0487C33.9592 19.3026 33.7603 18.9943 33.4521 18.7259C33.1471 18.4541 32.7362 18.3182 32.2191 18.3182C31.7617 18.3182 31.3607 18.4375 31.016 18.6761C30.6746 18.9115 30.4078 19.2446 30.2156 19.6754C30.0266 20.103 29.9322 20.6051 29.9322 21.1818C29.9322 21.7718 30.025 22.2855 30.2106 22.723C30.3995 23.1605 30.6647 23.5002 31.006 23.7422C31.3507 23.9841 31.7551 24.1051 32.2191 24.1051C32.524 24.1051 32.8008 24.0521 33.0494 23.946C33.2979 23.84 33.5084 23.6875 33.6808 23.4886C33.8531 23.2898 33.9757 23.0511 34.0487 22.7727H35.2219C35.1557 23.2235 34.9916 23.6295 34.7298 23.9908C34.4712 24.3487 34.1282 24.6338 33.7006 24.8459C33.2764 25.0547 32.7826 25.1591 32.2191 25.1591ZM39.1843 25.179C38.7004 25.179 38.2612 25.0878 37.8668 24.9055C37.4724 24.7199 37.1592 24.4531 36.9272 24.1051C36.6952 23.7538 36.5792 23.3295 36.5792 22.8324C36.5792 22.3949 36.6654 22.0402 36.8377 21.7685C37.0101 21.4934 37.2404 21.2779 37.5288 21.1222C37.8171 20.9664 38.1353 20.8504 38.4833 20.7741C38.8346 20.6946 39.1876 20.6316 39.5423 20.5852C40.0063 20.5256 40.3825 20.4808 40.6708 20.451C40.9625 20.4179 41.1746 20.3632 41.3072 20.2869C41.4431 20.2107 41.511 20.0781 41.511 19.8892V19.8494C41.511 19.3589 41.3768 18.9777 41.1083 18.706C40.8432 18.4342 40.4405 18.2983 39.9002 18.2983C39.3401 18.2983 38.9009 18.4209 38.5827 18.6662C38.2646 18.9115 38.0408 19.1733 37.9116 19.4517L36.7979 19.054C36.9968 18.59 37.262 18.2287 37.5934 17.9702C37.9281 17.7083 38.2927 17.526 38.6871 17.4233C39.0849 17.3172 39.476 17.2642 39.8604 17.2642C40.1057 17.2642 40.3874 17.294 40.7056 17.3537C41.0271 17.41 41.337 17.5277 41.6353 17.7067C41.9369 17.8857 42.1871 18.1558 42.386 18.517C42.5849 18.8783 42.6843 19.3622 42.6843 19.9688V25H41.511V23.9659H41.4513C41.3718 24.1316 41.2392 24.3089 41.0536 24.4979C40.868 24.6868 40.6211 24.8475 40.3129 24.9801C40.0046 25.1127 39.6284 25.179 39.1843 25.179ZM39.3633 24.125C39.8273 24.125 40.2184 24.0339 40.5366 23.8516C40.8581 23.6693 41.1 23.4339 41.2624 23.1456C41.4281 22.8572 41.511 22.554 41.511 22.2358V21.1619C41.4613 21.2216 41.3519 21.2763 41.1829 21.326C41.0172 21.3724 40.8249 21.4138 40.6062 21.4503C40.3907 21.4834 40.1803 21.5133 39.9748 21.5398C39.7726 21.563 39.6085 21.5829 39.4826 21.5994C39.1777 21.6392 38.8926 21.7038 38.6275 21.7933C38.3656 21.8795 38.1535 22.0104 37.9911 22.1861C37.832 22.3584 37.7525 22.5937 37.7525 22.892C37.7525 23.2997 37.9033 23.608 38.2049 23.8168C38.5098 24.0223 38.896 24.125 39.3633 24.125ZM48.1468 17.3636V18.358H44.1895V17.3636H48.1468ZM45.3429 15.5341H46.5162V22.8125C46.5162 23.1439 46.5642 23.3925 46.6603 23.5582C46.7598 23.7206 46.8857 23.83 47.0382 23.8864C47.194 23.9394 47.358 23.9659 47.5304 23.9659C47.6596 23.9659 47.7657 23.9593 47.8485 23.946C47.9314 23.9295 47.9977 23.9162 48.0474 23.9062L48.286 24.9602C48.2065 24.9901 48.0955 25.0199 47.9529 25.0497C47.8104 25.0829 47.6298 25.0994 47.411 25.0994C47.0796 25.0994 46.7548 25.0282 46.4366 24.8857C46.1217 24.7431 45.8599 24.526 45.6511 24.2344C45.4456 23.9427 45.3429 23.5748 45.3429 23.1307V15.5341ZM53.0314 25.1591C52.2956 25.1591 51.6609 24.9967 51.1273 24.6719C50.597 24.3438 50.1877 23.8864 49.8993 23.2997C49.6143 22.7098 49.4718 22.0237 49.4718 21.2415C49.4718 20.4593 49.6143 19.7699 49.8993 19.1733C50.1877 18.5734 50.5887 18.1061 51.1025 17.7713C51.6195 17.4332 52.2227 17.2642 52.9121 17.2642C53.3098 17.2642 53.7026 17.3305 54.0904 17.4631C54.4782 17.5956 54.8311 17.8111 55.1493 18.1094C55.4675 18.4044 55.7211 18.7955 55.91 19.2827C56.0989 19.7699 56.1934 20.3698 56.1934 21.0824V21.5795H50.307V20.5653H55.0002C55.0002 20.1345 54.914 19.75 54.7417 19.4119C54.5726 19.0739 54.3307 18.8071 54.0158 18.6115C53.7042 18.416 53.3364 18.3182 52.9121 18.3182C52.4448 18.3182 52.0404 18.4342 51.699 18.6662C51.361 18.8949 51.1008 19.1932 50.9185 19.5611C50.7362 19.929 50.6451 20.3234 50.6451 20.7443V21.4205C50.6451 21.9972 50.7445 22.486 50.9434 22.8871C51.1455 23.2848 51.4256 23.5881 51.7836 23.7969C52.1415 24.0024 52.5575 24.1051 53.0314 24.1051C53.3397 24.1051 53.6181 24.062 53.8667 23.9759C54.1185 23.8864 54.3356 23.7538 54.5179 23.5781C54.7002 23.3991 54.8411 23.1771 54.9405 22.9119L56.074 23.2301C55.9547 23.6146 55.7542 23.9527 55.4725 24.2443C55.1908 24.5327 54.8427 24.758 54.4284 24.9205C54.0141 25.0795 53.5485 25.1591 53.0314 25.1591ZM61.0605 28.0227C60.4938 28.0227 60.0066 27.9498 59.5989 27.804C59.1912 27.6615 58.8515 27.4725 58.5797 27.2372C58.3113 27.0052 58.0975 26.7566 57.9384 26.4915L58.873 25.8352C58.9791 25.9744 59.1133 26.1335 59.2757 26.3125C59.4382 26.4948 59.6602 26.6522 59.9419 26.7848C60.227 26.9207 60.5998 26.9886 61.0605 26.9886C61.677 26.9886 62.1858 26.8395 62.5868 26.5412C62.9879 26.2429 63.1884 25.7756 63.1884 25.1392V23.5881H63.089C63.0028 23.7273 62.8801 23.8996 62.7211 24.1051C62.5653 24.3073 62.3399 24.4879 62.0449 24.647C61.7533 24.8028 61.3588 24.8807 60.8617 24.8807C60.2452 24.8807 59.6917 24.7348 59.2012 24.4432C58.714 24.1515 58.3278 23.7273 58.0428 23.1705C57.7611 22.6136 57.6202 21.9375 57.6202 21.142C57.6202 20.3598 57.7578 19.6787 58.0328 19.0987C58.3079 18.5154 58.6908 18.0646 59.1813 17.7464C59.6718 17.425 60.2386 17.2642 60.8816 17.2642C61.3787 17.2642 61.7731 17.3471 62.0648 17.5128C62.3598 17.6752 62.5852 17.8608 62.7409 18.0696C62.9 18.2751 63.0227 18.4441 63.1088 18.5767H63.2282V17.3636H64.3617V25.2188C64.3617 25.875 64.2125 26.4086 63.9142 26.8196C63.6193 27.2339 63.2215 27.5372 62.7211 27.7294C62.2239 27.925 61.6704 28.0227 61.0605 28.0227ZM61.0208 23.8267C61.4914 23.8267 61.8891 23.719 62.214 23.5036C62.5388 23.2881 62.7857 22.9782 62.9547 22.5739C63.1238 22.1695 63.2083 21.6856 63.2083 21.1222C63.2083 20.572 63.1254 20.0864 62.9597 19.6655C62.794 19.2446 62.5487 18.9148 62.2239 18.6761C61.8991 18.4375 61.498 18.3182 61.0208 18.3182C60.5236 18.3182 60.1093 18.4441 59.7779 18.696C59.4498 18.9479 59.2028 19.286 59.0371 19.7102C58.8747 20.1345 58.7935 20.6051 58.7935 21.1222C58.7935 21.6525 58.8764 22.1214 59.0421 22.5291C59.2111 22.9335 59.4597 23.2517 59.7878 23.4837C60.1193 23.7124 60.5302 23.8267 61.0208 23.8267ZM69.6117 25.1591C68.9223 25.1591 68.3174 24.995 67.7971 24.6669C67.28 24.3388 66.8757 23.8797 66.584 23.2898C66.2956 22.6998 66.1515 22.0104 66.1515 21.2216C66.1515 20.4261 66.2956 19.7318 66.584 19.1385C66.8757 18.5452 67.28 18.0845 67.7971 17.7564C68.3174 17.4283 68.9223 17.2642 69.6117 17.2642C70.3011 17.2642 70.9043 17.4283 71.4213 17.7564C71.9417 18.0845 72.3461 18.5452 72.6344 19.1385C72.9261 19.7318 73.0719 20.4261 73.0719 21.2216C73.0719 22.0104 72.9261 22.6998 72.6344 23.2898C72.3461 23.8797 71.9417 24.3388 71.4213 24.6669C70.9043 24.995 70.3011 25.1591 69.6117 25.1591ZM69.6117 24.1051C70.1354 24.1051 70.5662 23.9709 70.9043 23.7024C71.2424 23.4339 71.4926 23.081 71.655 22.6435C71.8174 22.206 71.8986 21.732 71.8986 21.2216C71.8986 20.7112 71.8174 20.2356 71.655 19.7947C71.4926 19.3539 71.2424 18.9976 70.9043 18.7259C70.5662 18.4541 70.1354 18.3182 69.6117 18.3182C69.088 18.3182 68.6571 18.4541 68.3191 18.7259C67.981 18.9976 67.7308 19.3539 67.5684 19.7947C67.406 20.2356 67.3248 20.7112 67.3248 21.2216C67.3248 21.732 67.406 22.206 67.5684 22.6435C67.7308 23.081 67.981 23.4339 68.3191 23.7024C68.6571 23.9709 69.088 24.1051 69.6117 24.1051ZM74.8629 25V17.3636H75.9964V18.517H76.076C76.2152 18.1392 76.4671 17.8326 76.8317 17.5973C77.1963 17.362 77.6072 17.2443 78.0646 17.2443C78.1508 17.2443 78.2585 17.246 78.3878 17.2493C78.517 17.2526 78.6148 17.2576 78.6811 17.2642V18.4574C78.6413 18.4474 78.5502 18.4325 78.4077 18.4126C78.2685 18.3894 78.121 18.3778 77.9652 18.3778C77.594 18.3778 77.2625 18.4557 76.9709 18.6115C76.6825 18.764 76.4538 18.9761 76.2848 19.2479C76.1191 19.5163 76.0362 19.8229 76.0362 20.1676V25H74.8629ZM80.0719 25V17.3636H81.2452V25H80.0719ZM80.6685 16.0909C80.4398 16.0909 80.2426 16.013 80.0769 15.8572C79.9145 15.7015 79.8333 15.5142 79.8333 15.2955C79.8333 15.0767 79.9145 14.8894 80.0769 14.7337C80.2426 14.5779 80.4398 14.5 80.6685 14.5C80.8972 14.5 81.0927 14.5779 81.2551 14.7337C81.4209 14.8894 81.5037 15.0767 81.5037 15.2955C81.5037 15.5142 81.4209 15.7015 81.2551 15.8572C81.0927 16.013 80.8972 16.0909 80.6685 16.0909ZM86.5959 25.1591C85.8601 25.1591 85.2254 24.9967 84.6918 24.6719C84.1615 24.3438 83.7521 23.8864 83.4638 23.2997C83.1787 22.7098 83.0362 22.0237 83.0362 21.2415C83.0362 20.4593 83.1787 19.7699 83.4638 19.1733C83.7521 18.5734 84.1532 18.1061 84.6669 17.7713C85.1839 17.4332 85.7872 17.2642 86.4766 17.2642C86.8743 17.2642 87.267 17.3305 87.6548 17.4631C88.0426 17.5956 88.3956 17.8111 88.7138 18.1094C89.032 18.4044 89.2855 18.7955 89.4744 19.2827C89.6634 19.7699 89.7578 20.3698 89.7578 21.0824V21.5795H83.8714V20.5653H88.5646C88.5646 20.1345 88.4785 19.75 88.3061 19.4119C88.1371 19.0739 87.8951 18.8071 87.5803 18.6115C87.2687 18.416 86.9008 18.3182 86.4766 18.3182C86.0092 18.3182 85.6049 18.4342 85.2635 18.6662C84.9254 18.8949 84.6652 19.1932 84.483 19.5611C84.3007 19.929 84.2095 20.3234 84.2095 20.7443V21.4205C84.2095 21.9972 84.3089 22.486 84.5078 22.8871C84.71 23.2848 84.9901 23.5881 85.348 23.7969C85.706 24.0024 86.1219 24.1051 86.5959 24.1051C86.9041 24.1051 87.1825 24.062 87.4311 23.9759C87.683 23.8864 87.9001 23.7538 88.0824 23.5781C88.2647 23.3991 88.4055 23.1771 88.505 22.9119L89.6385 23.2301C89.5192 23.6146 89.3187 23.9527 89.0369 24.2443C88.7552 24.5327 88.4072 24.758 87.9929 24.9205C87.5786 25.0795 87.1129 25.1591 86.5959 25.1591ZM96.9517 19.0739L95.8977 19.3722C95.8314 19.1965 95.7337 19.0258 95.6044 18.8601C95.4785 18.6911 95.3061 18.5518 95.0874 18.4425C94.8686 18.3331 94.5885 18.2784 94.2472 18.2784C93.7798 18.2784 93.3904 18.3861 93.0788 18.6016C92.7706 18.8137 92.6165 19.0838 92.6165 19.4119C92.6165 19.7036 92.7225 19.9339 92.9347 20.103C93.1468 20.272 93.4782 20.4129 93.929 20.5256L95.0625 20.804C95.7453 20.9697 96.254 21.2232 96.5888 21.5646C96.9235 21.9027 97.0909 22.3385 97.0909 22.8722C97.0909 23.3097 96.965 23.7008 96.7131 24.0455C96.4645 24.3902 96.1165 24.6619 95.669 24.8608C95.2216 25.0597 94.7012 25.1591 94.108 25.1591C93.3291 25.1591 92.6844 24.9901 92.174 24.652C91.6636 24.3139 91.3404 23.8201 91.2045 23.1705L92.3182 22.892C92.4242 23.303 92.6248 23.6113 92.9197 23.8168C93.218 24.0223 93.6075 24.125 94.0881 24.125C94.6349 24.125 95.0691 24.009 95.3906 23.777C95.7154 23.5417 95.8778 23.2599 95.8778 22.9318C95.8778 22.6667 95.785 22.4446 95.5994 22.2656C95.4138 22.0833 95.1288 21.9474 94.7443 21.858L93.4716 21.5597C92.7723 21.3939 92.2585 21.1371 91.9304 20.7891C91.6056 20.4377 91.4432 19.9986 91.4432 19.4716C91.4432 19.0407 91.5642 18.6596 91.8061 18.3281C92.0514 17.9967 92.3845 17.7365 92.8054 17.5476C93.2296 17.3587 93.7102 17.2642 94.2472 17.2642C95.0028 17.2642 95.5961 17.4299 96.027 17.7614C96.4612 18.0928 96.7694 18.5303 96.9517 19.0739Z" fill="black"/>
<rect x="0.5" y="0.5" width="105" height="39" rx="7.5" stroke="black" stroke-opacity="0.1"/>
<rect x="114" width="126" height="40" rx="8" fill="white"/>
<path d="M132.5 11.5H136.5C136.776 11.5 137 11.7239 137 12V14C137 14.2761 136.776 14.5 136.5 14.5H132.5V11.5Z" fill="#8D33FF"/>
<path fill-rule="evenodd" clip-rule="evenodd" d="M132.5 11C132.638 11 132.75 11.112 132.75 11.2501L132.749 17.2105C132.749 17.3486 132.637 17.4605 132.499 17.4605C132.361 17.4605 132.249 17.3485 132.249 17.2104L132.25 11.2499C132.25 11.1119 132.362 11 132.5 11Z" fill="#8D33FF"/>
<path fill-rule="evenodd" clip-rule="evenodd" d="M125.067 28.2519L132.057 16.0193C132.25 15.6803 132.74 15.6842 132.929 16.026L136.338 22.2127L137.772 19.6778C137.965 19.3364 138.458 19.3402 138.646 19.6846L143.323 28.2601C143.505 28.5933 143.264 28.9996 142.884 28.9996H139.251C139.244 28.9998 139.238 28.9999 139.231 28.9999H125.501C125.117 28.9999 124.876 28.5852 125.067 28.2519Z" fill="#FF8833"/>
<mask id="mask0_1_1766" style="mask-type:alpha" maskUnits="userSpaceOnUse" x="125" y="15" width="19" height="14">
<path fill-rule="evenodd" clip-rule="evenodd" d="M125.067 28.2519L132.057 16.0193C132.25 15.6803 132.74 15.6842 132.929 16.026L136.338 22.2127L137.772 19.6778C137.965 19.3364 138.458 19.3402 138.646 19.6846L143.323 28.2601C143.505 28.5933 143.264 28.9996 142.884 28.9996H139.251C139.244 28.9998 139.238 28.9999 139.231 28.9999H125.501C125.117 28.9999 124.876 28.5852 125.067 28.2519Z" fill="#731DE0"/>
</mask>
<g mask="url(#mask0_1_1766)">
<path d="M136 18.4998H129.5V15.4998H136V18.4998Z" fill="#8D33FF"/>
</g>
<path d="M158.801 17.3636C158.741 16.8598 158.5 16.4688 158.075 16.1903C157.651 15.9119 157.131 15.7727 156.514 15.7727C156.063 15.7727 155.669 15.8456 155.331 15.9915C154.996 16.1373 154.734 16.3378 154.545 16.593C154.36 16.8482 154.267 17.1383 154.267 17.4631C154.267 17.7348 154.332 17.9685 154.461 18.1641C154.594 18.3563 154.763 18.517 154.968 18.6463C155.174 18.7723 155.389 18.8767 155.614 18.9595C155.84 19.0391 156.047 19.1037 156.236 19.1534L157.27 19.4318C157.535 19.5014 157.83 19.5975 158.155 19.7202C158.483 19.8428 158.796 20.0102 159.094 20.2223C159.396 20.4311 159.645 20.6996 159.84 21.0277C160.036 21.3558 160.134 21.7585 160.134 22.2358C160.134 22.786 159.989 23.2831 159.701 23.7273C159.416 24.1714 158.998 24.5244 158.448 24.7862C157.901 25.0481 157.237 25.179 156.455 25.179C155.725 25.179 155.094 25.0613 154.56 24.826C154.03 24.5907 153.612 24.2625 153.308 23.8416C153.006 23.4207 152.835 22.9318 152.795 22.375H154.068C154.101 22.7595 154.231 23.0777 154.456 23.3295C154.685 23.5781 154.973 23.7637 155.321 23.8864C155.672 24.0057 156.05 24.0653 156.455 24.0653C156.925 24.0653 157.348 23.9891 157.722 23.8366C158.097 23.6809 158.393 23.4654 158.612 23.1903C158.831 22.9119 158.94 22.5871 158.94 22.2159C158.94 21.8778 158.846 21.6027 158.657 21.3906C158.468 21.1785 158.219 21.0062 157.911 20.8736C157.603 20.741 157.27 20.625 156.912 20.5256L155.659 20.1676C154.864 19.9389 154.234 19.6125 153.77 19.1882C153.306 18.764 153.074 18.2088 153.074 17.5227C153.074 16.9527 153.228 16.4555 153.536 16.0312C153.848 15.6037 154.265 15.2723 154.789 15.0369C155.316 14.7983 155.904 14.679 156.554 14.679C157.21 14.679 157.794 14.7966 158.304 15.032C158.814 15.264 159.219 15.5821 159.517 15.9865C159.819 16.3909 159.978 16.8499 159.994 17.3636H158.801ZM165.203 25.1591C164.468 25.1591 163.833 24.9967 163.299 24.6719C162.769 24.3438 162.36 23.8864 162.071 23.2997C161.786 22.7098 161.644 22.0237 161.644 21.2415C161.644 20.4593 161.786 19.7699 162.071 19.1733C162.36 18.5734 162.761 18.1061 163.274 17.7713C163.791 17.4332 164.395 17.2642 165.084 17.2642C165.482 17.2642 165.874 17.3305 166.262 17.4631C166.65 17.5956 167.003 17.8111 167.321 18.1094C167.639 18.4044 167.893 18.7955 168.082 19.2827C168.271 19.7699 168.365 20.3698 168.365 21.0824V21.5795H162.479V20.5653H167.172C167.172 20.1345 167.086 19.75 166.914 19.4119C166.744 19.0739 166.503 18.8071 166.188 18.6115C165.876 18.416 165.508 18.3182 165.084 18.3182C164.617 18.3182 164.212 18.4342 163.871 18.6662C163.533 18.8949 163.273 19.1932 163.09 19.5611C162.908 19.929 162.817 20.3234 162.817 20.7443V21.4205C162.817 21.9972 162.916 22.486 163.115 22.8871C163.317 23.2848 163.597 23.5881 163.955 23.7969C164.313 24.0024 164.729 24.1051 165.203 24.1051C165.512 24.1051 165.79 24.062 166.039 23.9759C166.29 23.8864 166.508 23.7538 166.69 23.5781C166.872 23.3991 167.013 23.1771 167.112 22.9119L168.246 23.2301C168.127 23.6146 167.926 23.9527 167.644 24.2443C167.363 24.5327 167.015 24.758 166.6 24.9205C166.186 25.0795 165.72 25.1591 165.203 25.1591ZM171.323 14.8182V25H170.15V14.8182H171.323ZM176.873 17.3636V18.358H172.756V17.3636H176.873ZM173.989 25V16.3097C173.989 15.8722 174.092 15.5076 174.298 15.2159C174.503 14.9242 174.77 14.7055 175.098 14.5597C175.426 14.4138 175.772 14.3409 176.137 14.3409C176.425 14.3409 176.661 14.3641 176.843 14.4105C177.025 14.4569 177.161 14.5 177.251 14.5398L176.913 15.554C176.853 15.5341 176.77 15.5092 176.664 15.4794C176.561 15.4496 176.425 15.4347 176.256 15.4347C175.869 15.4347 175.589 15.5324 175.416 15.728C175.247 15.9235 175.163 16.2102 175.163 16.5881V25H173.989ZM182.496 20.0881V21.1818H178.041V20.0881H182.496ZM191.68 18C191.57 17.6652 191.426 17.3653 191.247 17.1001C191.071 16.8317 190.861 16.603 190.616 16.4141C190.374 16.2251 190.099 16.081 189.79 15.9815C189.482 15.8821 189.144 15.8324 188.776 15.8324C188.173 15.8324 187.624 15.9882 187.131 16.2997C186.637 16.6113 186.244 17.0703 185.952 17.6768C185.661 18.2834 185.515 19.0275 185.515 19.9091C185.515 20.7907 185.662 21.5348 185.957 22.1413C186.252 22.7479 186.652 23.2069 187.155 23.5185C187.659 23.83 188.226 23.9858 188.856 23.9858C189.439 23.9858 189.953 23.8615 190.397 23.6129C190.844 23.361 191.192 23.0064 191.441 22.549C191.693 22.0883 191.819 21.5464 191.819 20.9233L192.197 21.0028H189.134V19.9091H193.012V21.0028C193.012 21.8414 192.833 22.5705 192.475 23.1903C192.12 23.8101 191.63 24.2907 191.003 24.6321C190.38 24.9702 189.664 25.1392 188.856 25.1392C187.954 25.1392 187.162 24.9271 186.479 24.5028C185.8 24.0786 185.269 23.4754 184.888 22.6932C184.51 21.911 184.322 20.983 184.322 19.9091C184.322 19.1037 184.429 18.3795 184.645 17.7365C184.863 17.0902 185.172 16.54 185.569 16.0859C185.967 15.6319 186.438 15.2839 186.981 15.0419C187.525 14.8 188.123 14.679 188.776 14.679C189.313 14.679 189.814 14.7602 190.278 14.9226C190.745 15.0817 191.161 15.3087 191.525 15.6037C191.893 15.8954 192.2 16.245 192.445 16.6527C192.69 17.0571 192.859 17.5062 192.952 18H191.68ZM194.964 25V17.3636H196.098V18.517H196.178C196.317 18.1392 196.569 17.8326 196.933 17.5973C197.298 17.362 197.709 17.2443 198.166 17.2443C198.252 17.2443 198.36 17.246 198.489 17.2493C198.619 17.2526 198.716 17.2576 198.783 17.2642V18.4574C198.743 18.4474 198.652 18.4325 198.509 18.4126C198.37 18.3894 198.223 18.3778 198.067 18.3778C197.696 18.3778 197.364 18.4557 197.072 18.6115C196.784 18.764 196.555 18.9761 196.386 19.2479C196.221 19.5163 196.138 19.8229 196.138 20.1676V25H194.964ZM203.043 25.1591C202.354 25.1591 201.749 24.995 201.229 24.6669C200.712 24.3388 200.307 23.8797 200.016 23.2898C199.727 22.6998 199.583 22.0104 199.583 21.2216C199.583 20.4261 199.727 19.7318 200.016 19.1385C200.307 18.5452 200.712 18.0845 201.229 17.7564C201.749 17.4283 202.354 17.2642 203.043 17.2642C203.733 17.2642 204.336 17.4283 204.853 17.7564C205.373 18.0845 205.778 18.5452 206.066 19.1385C206.358 19.7318 206.504 20.4261 206.504 21.2216C206.504 22.0104 206.358 22.6998 206.066 23.2898C205.778 23.8797 205.373 24.3388 204.853 24.6669C204.336 24.995 203.733 25.1591 203.043 25.1591ZM203.043 24.1051C203.567 24.1051 203.998 23.9709 204.336 23.7024C204.674 23.4339 204.924 23.081 205.087 22.6435C205.249 22.206 205.33 21.732 205.33 21.2216C205.33 20.7112 205.249 20.2356 205.087 19.7947C204.924 19.3539 204.674 18.9976 204.336 18.7259C203.998 18.4541 203.567 18.3182 203.043 18.3182C202.52 18.3182 202.089 18.4541 201.751 18.7259C201.413 18.9976 201.162 19.3539 201 19.7947C200.838 20.2356 200.756 20.7112 200.756 21.2216C200.756 21.732 200.838 22.206 201 22.6435C201.162 23.081 201.413 23.4339 201.751 23.7024C202.089 23.9709 202.52 24.1051 203.043 24.1051ZM209.765 25L207.438 17.3636H208.671L210.322 23.2102H210.401L212.032 17.3636H213.285L214.896 23.1903H214.975L216.626 17.3636H217.859L215.532 25H214.379L212.708 19.1335H212.589L210.918 25H209.765ZM222.731 17.3636V18.358H218.773V17.3636H222.731ZM219.927 15.5341H221.1V22.8125C221.1 23.1439 221.148 23.3925 221.244 23.5582C221.344 23.7206 221.47 23.83 221.622 23.8864C221.778 23.9394 221.942 23.9659 222.114 23.9659C222.244 23.9659 222.35 23.9593 222.433 23.946C222.515 23.9295 222.582 23.9162 222.631 23.9062L222.87 24.9602C222.79 24.9901 222.679 25.0199 222.537 25.0497C222.394 25.0829 222.214 25.0994 221.995 25.0994C221.664 25.0994 221.339 25.0282 221.021 24.8857C220.706 24.7431 220.444 24.526 220.235 24.2344C220.03 23.9427 219.927 23.5748 219.927 23.1307V15.5341ZM225.833 20.4062V25H224.66V14.8182H225.833V18.5568H225.933C226.112 18.1624 226.38 17.8492 226.738 17.6172C227.099 17.3819 227.58 17.2642 228.18 17.2642C228.7 17.2642 229.156 17.3686 229.547 17.5774C229.938 17.7829 230.241 18.0994 230.457 18.527C230.675 18.9512 230.785 19.4915 230.785 20.1477V25H229.612V20.2273C229.612 19.6207 229.454 19.1518 229.139 18.8203C228.828 18.4856 228.395 18.3182 227.842 18.3182C227.457 18.3182 227.112 18.3994 226.808 18.5618C226.506 18.7242 226.267 18.9612 226.092 19.2727C225.919 19.5843 225.833 19.9621 225.833 20.4062Z" fill="black"/>
<rect x="114.5" y="0.5" width="125" height="39" rx="7.5" stroke="black" stroke-opacity="0.1"/>
<rect x="248" width="116" height="40" rx="8" fill="white"/>
<path d="M274.5 21C274.5 25.4183 270.918 29 266.5 29C262.082 29 258.5 25.4183 258.5 21C258.5 16.5817 262.082 13 266.5 13C270.918 13 274.5 16.5817 274.5 21Z" fill="#FF8833"/>
<path d="M261.493 21.5094C261.412 21.5532 261.349 21.587 261.287 21.6207C261.186 21.6746 261.098 21.651 261.036 21.5532C260.973 21.4588 260.993 21.3509 261.091 21.2801C261.379 21.0643 261.703 21.0272 262.043 21.0643C262.092 21.071 262.144 21.0778 262.193 21.0913C262.317 21.1182 262.392 21.2194 262.373 21.3307C262.353 21.4453 262.252 21.5162 262.124 21.4959C262.072 21.4892 262.016 21.4757 261.928 21.4588C261.958 21.678 261.967 21.8837 262.013 22.0827C262.412 23.8868 263.53 25.0098 265.214 25.5257C266.735 25.9911 268.177 25.7449 269.481 24.8041C270.469 24.0892 271.07 23.1045 271.257 21.8635C271.279 21.7185 271.279 21.5701 271.292 21.4049C271.204 21.4217 271.129 21.4386 271.057 21.4487C270.952 21.4622 270.858 21.3914 270.835 21.2801C270.815 21.1722 270.851 21.0811 270.959 21.0575C271.342 20.9631 271.714 20.9699 272.058 21.1924C272.201 21.2835 272.234 21.388 272.165 21.506C272.107 21.6106 271.992 21.6241 271.855 21.5431C271.819 21.5229 271.783 21.5027 271.747 21.4858C271.708 21.7556 271.678 22.0152 271.626 22.2749C271.394 23.4147 270.802 24.3252 269.923 25.0334C268.847 25.9001 267.611 26.2879 266.257 26.1833C264.577 26.0552 263.21 25.3099 262.252 23.8497C261.81 23.1787 261.572 22.4267 261.51 21.6173C261.5 21.5836 261.497 21.5566 261.493 21.5094Z" fill="#8D33FF"/>
<path fill-rule="evenodd" clip-rule="evenodd" d="M271.032 21.2456C271.033 21.2474 271.034 21.2487 271.034 21.2496C271.035 21.2512 271.036 21.2517 271.036 21.2516C271.036 21.2514 271.035 21.251 271.034 21.2506C271.032 21.2503 271.032 21.2503 271.032 21.2503C271.031 21.2503 271.032 21.2503 271.032 21.2503L271.057 21.4487L271.029 21.2507C271.074 21.2444 271.117 21.2357 271.171 21.225C271.196 21.2199 271.224 21.2144 271.255 21.2084L271.267 21.2061C271.191 21.2133 271.113 21.2267 271.032 21.2456ZM271.509 21.2057L271.492 21.4206C271.488 21.4664 271.486 21.5157 271.483 21.5666C271.477 21.6744 271.471 21.7895 271.454 21.8939C271.26 23.1871 270.63 24.2195 269.598 24.9661C268.244 25.9428 266.737 26.201 265.156 25.717C263.407 25.1811 262.234 24.0043 261.818 22.1267C261.785 21.9823 261.768 21.8253 261.752 21.6778C261.745 21.611 261.738 21.5462 261.73 21.4854L261.699 21.2572C261.692 21.2579 261.684 21.2587 261.677 21.2595L261.693 21.4956C261.696 21.5383 261.698 21.5484 261.702 21.5615L261.708 21.5814L261.709 21.602C261.769 22.3809 261.998 23.0997 262.419 23.7398C263.341 25.145 264.65 25.8602 266.272 25.9839C267.574 26.0844 268.76 25.713 269.797 24.8777C270.643 24.1966 271.208 23.326 271.43 22.2352C271.467 22.0521 271.492 21.8714 271.518 21.68C271.528 21.6074 271.538 21.5334 271.549 21.457L271.584 21.2161C271.559 21.2117 271.534 21.2082 271.509 21.2057ZM271.705 21.2454L271.832 21.3047C271.875 21.3247 271.916 21.3481 271.95 21.3673L271.956 21.3708C271.967 21.3767 271.975 21.3813 271.983 21.3848C271.975 21.3782 271.965 21.3703 271.951 21.3614L271.949 21.3602C271.87 21.3092 271.789 21.2714 271.705 21.2454ZM261.416 21.3241C261.356 21.3482 261.299 21.3789 261.243 21.4172C261.29 21.392 261.339 21.3653 261.399 21.3332L261.416 21.3241ZM261.927 21.255L261.966 21.2624C262.006 21.27 262.036 21.2762 262.061 21.2813C262.098 21.289 262.123 21.2941 262.15 21.2976L262.156 21.2983C262.166 21.2999 262.172 21.2993 262.175 21.2987C262.175 21.2986 262.175 21.2986 262.175 21.2986C262.175 21.2983 262.176 21.2981 262.176 21.2979C262.173 21.2954 262.166 21.29 262.151 21.2867L262.145 21.2855L262.14 21.2841C262.107 21.275 262.07 21.2699 262.018 21.2628C261.987 21.2595 261.957 21.2568 261.927 21.255ZM272.166 21.024C271.761 20.7622 271.327 20.7611 270.913 20.8628C270.808 20.8867 270.72 20.9499 270.671 21.0462C270.625 21.1363 270.623 21.2339 270.638 21.3159L270.639 21.3204C270.68 21.5229 270.862 21.6728 271.077 21.6477C271.074 21.7112 271.069 21.77 271.059 21.8323L271.059 21.8338C270.88 23.0222 270.307 23.9589 269.364 24.6419C268.109 25.5468 266.732 25.7812 265.273 25.3345C263.654 24.8386 262.591 23.7697 262.209 22.0395L262.208 22.0378C262.182 21.926 262.17 21.8188 262.157 21.6991C262.357 21.703 262.534 21.5751 262.57 21.3644L262.373 21.3307L262.57 21.3654C262.611 21.1322 262.449 20.9448 262.241 20.8971C262.183 20.8816 262.124 20.8735 262.08 20.8676C262.077 20.8671 262.073 20.8666 262.07 20.8661L262.064 20.8654C261.697 20.8253 261.315 20.8625 260.972 21.1191C260.89 21.1794 260.828 21.2651 260.807 21.3691C260.786 21.4737 260.812 21.5765 260.868 21.6618C260.917 21.7398 260.992 21.8094 261.095 21.8371C261.178 21.8591 261.257 21.8487 261.328 21.8216C261.413 22.5904 261.658 23.3106 262.085 23.9596C263.079 25.4746 264.503 26.2501 266.242 26.3827C267.647 26.4913 268.933 26.0871 270.048 25.1891C270.961 24.4539 271.58 23.5036 271.822 22.3148C271.858 22.1377 271.883 21.9581 271.908 21.7811C271.958 21.7939 272.01 21.7991 272.063 21.7927C272.185 21.7783 272.281 21.7075 272.339 21.6054C272.394 21.5111 272.421 21.3957 272.381 21.2754C272.343 21.1626 272.257 21.082 272.166 21.024Z" fill="#8D33FF"/>
<path d="M265.3 19.0467C265.29 19.7775 265.24 20.341 265.014 20.8737C264.957 21.0103 264.877 21.14 264.783 21.2493C264.608 21.4542 264.389 21.4474 264.211 21.2459C263.996 21.0034 263.895 20.6995 263.832 20.3888C263.65 19.5351 263.647 18.6814 263.882 17.8379C263.939 17.6262 264.037 17.4145 264.157 17.2301C264.356 16.9227 264.638 16.9262 264.853 17.2232C265.071 17.5272 265.166 17.8823 265.219 18.2443C265.263 18.5618 265.283 18.8863 265.3 19.0467Z" fill="#8D33FF"/>
<path fill-rule="evenodd" clip-rule="evenodd" d="M268.177 19.2215C267.989 19.3693 267.887 19.5191 267.855 19.6135C267.79 19.8098 267.577 19.9155 267.381 19.8495C267.184 19.7836 267.079 19.5709 267.145 19.3746C267.238 19.0969 267.455 18.8357 267.712 18.6325C267.976 18.4245 268.315 18.2519 268.692 18.173C269.072 18.0935 269.496 18.1088 269.916 18.284C270.336 18.4594 270.728 18.7847 271.062 19.286C271.177 19.4584 271.13 19.6912 270.958 19.8061C270.786 19.921 270.553 19.8744 270.438 19.7021C270.172 19.3034 269.889 19.0857 269.627 18.9761C269.364 18.8663 269.096 18.8546 268.846 18.9071C268.592 18.9602 268.358 19.0785 268.177 19.2215Z" fill="#8D33FF"/>
<path d="M274.156 10.7471C273.234 10.3943 272.738 9.5686 272.517 9.08609C272.505 9.06061 272.485 9.03883 272.46 9.02351C272.434 9.00818 272.404 9 272.373 9C272.342 9 272.312 9.00818 272.287 9.02351C272.261 9.03883 272.241 9.06061 272.229 9.08609C272.008 9.5686 271.509 10.3969 270.594 10.7471C270.566 10.7579 270.542 10.7758 270.526 10.7985C270.509 10.8212 270.5 10.8478 270.5 10.875C270.5 10.9022 270.509 10.9288 270.526 10.9515C270.542 10.9742 270.566 10.9921 270.594 11.0029C271.515 11.3557 272.012 12.1823 272.231 12.6639C272.243 12.6894 272.263 12.7112 272.289 12.7265C272.314 12.7418 272.344 12.75 272.375 12.75C272.406 12.75 272.436 12.7418 272.462 12.7265C272.487 12.7112 272.507 12.6894 272.519 12.6639C272.742 12.1823 273.24 11.3549 274.158 11.002C274.186 10.9909 274.209 10.9729 274.225 10.9502C274.242 10.9275 274.25 10.901 274.25 10.874C274.25 10.847 274.241 10.8206 274.224 10.7981C274.208 10.7756 274.184 10.7578 274.156 10.7471Z" fill="#8D33FF"/>
<path d="M277.112 13.7479C276.453 13.4959 276.098 12.9061 275.941 12.5615C275.932 12.5433 275.918 12.5277 275.9 12.5168C275.881 12.5058 275.86 12.5 275.838 12.5C275.816 12.5 275.794 12.5058 275.776 12.5168C275.758 12.5277 275.744 12.5433 275.735 12.5615C275.577 12.9061 275.221 13.4978 274.567 13.7479C274.547 13.7556 274.53 13.7684 274.518 13.7846C274.506 13.8009 274.5 13.8199 274.5 13.8393C274.5 13.8587 274.506 13.8777 274.518 13.8939C274.53 13.9102 274.547 13.9229 274.567 13.9306C275.225 14.1827 275.58 14.7731 275.737 15.1171C275.745 15.1353 275.759 15.1508 275.778 15.1618C275.796 15.1727 275.817 15.1786 275.839 15.1786C275.861 15.1786 275.883 15.1727 275.901 15.1618C275.919 15.1508 275.934 15.1353 275.942 15.1171C276.101 14.7731 276.457 14.182 277.113 13.93C277.133 13.9221 277.149 13.9092 277.161 13.893C277.173 13.8768 277.179 13.8578 277.179 13.8386C277.178 13.8193 277.172 13.8004 277.16 13.7843C277.148 13.7683 277.131 13.7556 277.112 13.7479V13.7479Z" fill="#8D33FF"/>
<path d="M287.233 25V14.8182H288.466V19.3523H293.895V14.8182H295.128V25H293.895V20.446H288.466V25H287.233ZM299.684 25.179C299.2 25.179 298.761 25.0878 298.367 24.9055C297.972 24.7199 297.659 24.4531 297.427 24.1051C297.195 23.7538 297.079 23.3295 297.079 22.8324C297.079 22.3949 297.165 22.0402 297.338 21.7685C297.51 21.4934 297.74 21.2779 298.029 21.1222C298.317 20.9664 298.635 20.8504 298.983 20.7741C299.335 20.6946 299.688 20.6316 300.042 20.5852C300.506 20.5256 300.882 20.4808 301.171 20.451C301.462 20.4179 301.675 20.3632 301.807 20.2869C301.943 20.2107 302.011 20.0781 302.011 19.8892V19.8494C302.011 19.3589 301.877 18.9777 301.608 18.706C301.343 18.4342 300.94 18.2983 300.4 18.2983C299.84 18.2983 299.401 18.4209 299.083 18.6662C298.765 18.9115 298.541 19.1733 298.412 19.4517L297.298 19.054C297.497 18.59 297.762 18.2287 298.093 17.9702C298.428 17.7083 298.793 17.526 299.187 17.4233C299.585 17.3172 299.976 17.2642 300.36 17.2642C300.606 17.2642 300.887 17.294 301.206 17.3537C301.527 17.41 301.837 17.5277 302.135 17.7067C302.437 17.8857 302.687 18.1558 302.886 18.517C303.085 18.8783 303.184 19.3622 303.184 19.9688V25H302.011V23.9659H301.951C301.872 24.1316 301.739 24.3089 301.554 24.4979C301.368 24.6868 301.121 24.8475 300.813 24.9801C300.505 25.1127 300.128 25.179 299.684 25.179ZM299.863 24.125C300.327 24.125 300.718 24.0339 301.037 23.8516C301.358 23.6693 301.6 23.4339 301.762 23.1456C301.928 22.8572 302.011 22.554 302.011 22.2358V21.1619C301.961 21.2216 301.852 21.2763 301.683 21.326C301.517 21.3724 301.325 21.4138 301.106 21.4503C300.891 21.4834 300.68 21.5133 300.475 21.5398C300.273 21.563 300.109 21.5829 299.983 21.5994C299.678 21.6392 299.393 21.7038 299.127 21.7933C298.866 21.8795 298.654 22.0104 298.491 22.1861C298.332 22.3584 298.252 22.5937 298.252 22.892C298.252 23.2997 298.403 23.608 298.705 23.8168C299.01 24.0223 299.396 24.125 299.863 24.125ZM305.326 27.8636V17.3636H306.459V18.5767H306.599C306.685 18.4441 306.804 18.2751 306.956 18.0696C307.112 17.8608 307.334 17.6752 307.623 17.5128C307.914 17.3471 308.309 17.2642 308.806 17.2642C309.449 17.2642 310.016 17.425 310.506 17.7464C310.997 18.0679 311.38 18.5237 311.655 19.1136C311.93 19.7036 312.067 20.3996 312.067 21.2017C312.067 22.0104 311.93 22.7114 311.655 23.3047C311.38 23.8946 310.998 24.352 310.511 24.6768C310.024 24.9983 309.462 25.1591 308.826 25.1591C308.335 25.1591 307.943 25.0779 307.648 24.9155C307.353 24.7498 307.126 24.5625 306.966 24.3537C306.807 24.1416 306.685 23.9659 306.599 23.8267H306.499V27.8636H305.326ZM306.479 21.1818C306.479 21.7585 306.564 22.2673 306.733 22.7081C306.902 23.1456 307.149 23.4886 307.474 23.7372C307.798 23.9825 308.196 24.1051 308.667 24.1051C309.157 24.1051 309.567 23.9759 309.895 23.7173C310.226 23.4555 310.475 23.1042 310.64 22.6634C310.809 22.2192 310.894 21.7254 310.894 21.1818C310.894 20.6449 310.811 20.161 310.645 19.7301C310.483 19.2959 310.236 18.9529 309.905 18.701C309.577 18.4458 309.164 18.3182 308.667 18.3182C308.189 18.3182 307.788 18.4392 307.464 18.6811C307.139 18.9197 306.894 19.2545 306.728 19.6854C306.562 20.1129 306.479 20.6117 306.479 21.1818ZM313.857 27.8636V17.3636H314.991V18.5767H315.13C315.216 18.4441 315.335 18.2751 315.488 18.0696C315.644 17.8608 315.866 17.6752 316.154 17.5128C316.446 17.3471 316.84 17.2642 317.337 17.2642C317.98 17.2642 318.547 17.425 319.037 17.7464C319.528 18.0679 319.911 18.5237 320.186 19.1136C320.461 19.7036 320.599 20.3996 320.599 21.2017C320.599 22.0104 320.461 22.7114 320.186 23.3047C319.911 23.8946 319.53 24.352 319.042 24.6768C318.555 24.9983 317.993 25.1591 317.357 25.1591C316.867 25.1591 316.474 25.0779 316.179 24.9155C315.884 24.7498 315.657 24.5625 315.498 24.3537C315.339 24.1416 315.216 23.9659 315.13 23.8267H315.03V27.8636H313.857ZM315.01 21.1818C315.01 21.7585 315.095 22.2673 315.264 22.7081C315.433 23.1456 315.68 23.4886 316.005 23.7372C316.33 23.9825 316.727 24.1051 317.198 24.1051C317.689 24.1051 318.098 23.9759 318.426 23.7173C318.757 23.4555 319.006 23.1042 319.172 22.6634C319.341 22.2192 319.425 21.7254 319.425 21.1818C319.425 20.6449 319.342 20.161 319.177 19.7301C319.014 19.2959 318.767 18.9529 318.436 18.701C318.108 18.4458 317.695 18.3182 317.198 18.3182C316.721 18.3182 316.32 18.4392 315.995 18.6811C315.67 18.9197 315.425 19.2545 315.259 19.6854C315.093 20.1129 315.01 20.6117 315.01 21.1818ZM322.388 25V17.3636H323.562V25H322.388ZM322.985 16.0909C322.756 16.0909 322.559 16.013 322.393 15.8572C322.231 15.7015 322.15 15.5142 322.15 15.2955C322.15 15.0767 322.231 14.8894 322.393 14.7337C322.559 14.5779 322.756 14.5 322.985 14.5C323.214 14.5 323.409 14.5779 323.572 14.7337C323.737 14.8894 323.82 15.0767 323.82 15.2955C323.82 15.5142 323.737 15.7015 323.572 15.8572C323.409 16.013 323.214 16.0909 322.985 16.0909ZM326.884 20.4062V25H325.711V17.3636H326.844V18.5568H326.944C327.123 18.169 327.394 17.8575 327.759 17.6222C328.123 17.3835 328.594 17.2642 329.171 17.2642C329.688 17.2642 330.14 17.3703 330.528 17.5824C330.916 17.7912 331.217 18.1094 331.433 18.5369C331.648 18.9612 331.756 19.4981 331.756 20.1477V25H330.583V20.2273C330.583 19.6274 330.427 19.16 330.115 18.8253C329.804 18.4872 329.376 18.3182 328.833 18.3182C328.458 18.3182 328.123 18.3994 327.828 18.5618C327.537 18.7242 327.306 18.9612 327.137 19.2727C326.968 19.5843 326.884 19.9621 326.884 20.4062ZM337.102 25.1591C336.366 25.1591 335.731 24.9967 335.198 24.6719C334.667 24.3438 334.258 23.8864 333.97 23.2997C333.685 22.7098 333.542 22.0237 333.542 21.2415C333.542 20.4593 333.685 19.7699 333.97 19.1733C334.258 18.5734 334.659 18.1061 335.173 17.7713C335.69 17.4332 336.293 17.2642 336.982 17.2642C337.38 17.2642 337.773 17.3305 338.161 17.4631C338.548 17.5956 338.901 17.8111 339.22 18.1094C339.538 18.4044 339.791 18.7955 339.98 19.2827C340.169 19.7699 340.264 20.3698 340.264 21.0824V21.5795H334.377V20.5653H339.07C339.07 20.1345 338.984 19.75 338.812 19.4119C338.643 19.0739 338.401 18.8071 338.086 18.6115C337.775 18.416 337.407 18.3182 336.982 18.3182C336.515 18.3182 336.111 18.4342 335.769 18.6662C335.431 18.8949 335.171 19.1932 334.989 19.5611C334.807 19.929 334.715 20.3234 334.715 20.7443V21.4205C334.715 21.9972 334.815 22.486 335.014 22.8871C335.216 23.2848 335.496 23.5881 335.854 23.7969C336.212 24.0024 336.628 24.1051 337.102 24.1051C337.41 24.1051 337.688 24.062 337.937 23.9759C338.189 23.8864 338.406 23.7538 338.588 23.5781C338.771 23.3991 338.911 23.1771 339.011 22.9119L340.144 23.2301C340.025 23.6146 339.825 23.9527 339.543 24.2443C339.261 24.5327 338.913 24.758 338.499 24.9205C338.084 25.0795 337.619 25.1591 337.102 25.1591ZM347.458 19.0739L346.404 19.3722C346.337 19.1965 346.24 19.0258 346.11 18.8601C345.984 18.6911 345.812 18.5518 345.593 18.4425C345.374 18.3331 345.094 18.2784 344.753 18.2784C344.286 18.2784 343.896 18.3861 343.585 18.6016C343.276 18.8137 343.122 19.0838 343.122 19.4119C343.122 19.7036 343.228 19.9339 343.441 20.103C343.653 20.272 343.984 20.4129 344.435 20.5256L345.568 20.804C346.251 20.9697 346.76 21.2232 347.095 21.5646C347.429 21.9027 347.597 22.3385 347.597 22.8722C347.597 23.3097 347.471 23.7008 347.219 24.0455C346.97 24.3902 346.622 24.6619 346.175 24.8608C345.727 25.0597 345.207 25.1591 344.614 25.1591C343.835 25.1591 343.19 24.9901 342.68 24.652C342.169 24.3139 341.846 23.8201 341.71 23.1705L342.824 22.892C342.93 23.303 343.131 23.6113 343.426 23.8168C343.724 24.0223 344.113 24.125 344.594 24.125C345.141 24.125 345.575 24.009 345.896 23.777C346.221 23.5417 346.384 23.2599 346.384 22.9318C346.384 22.6667 346.291 22.4446 346.105 22.2656C345.92 22.0833 345.635 21.9474 345.25 21.858L343.977 21.5597C343.278 21.3939 342.764 21.1371 342.436 20.7891C342.111 20.4377 341.949 19.9986 341.949 19.4716C341.949 19.0407 342.07 18.6596 342.312 18.3281C342.557 17.9967 342.89 17.7365 343.311 17.5476C343.735 17.3587 344.216 17.2642 344.753 17.2642C345.509 17.2642 346.102 17.4299 346.533 17.7614C346.967 18.0928 347.275 18.5303 347.458 19.0739ZM354.772 19.0739L353.718 19.3722C353.652 19.1965 353.554 19.0258 353.425 18.8601C353.299 18.6911 353.126 18.5518 352.908 18.4425C352.689 18.3331 352.409 18.2784 352.067 18.2784C351.6 18.2784 351.211 18.3861 350.899 18.6016C350.591 18.8137 350.437 19.0838 350.437 19.4119C350.437 19.7036 350.543 19.9339 350.755 20.103C350.967 20.272 351.299 20.4129 351.749 20.5256L352.883 20.804C353.566 20.9697 354.074 21.2232 354.409 21.5646C354.744 21.9027 354.911 22.3385 354.911 22.8722C354.911 23.3097 354.785 23.7008 354.533 24.0455C354.285 24.3902 353.937 24.6619 353.489 24.8608C353.042 25.0597 352.522 25.1591 351.928 25.1591C351.149 25.1591 350.505 24.9901 349.994 24.652C349.484 24.3139 349.161 23.8201 349.025 23.1705L350.138 22.892C350.245 23.303 350.445 23.6113 350.74 23.8168C351.038 24.0223 351.428 24.125 351.908 24.125C352.455 24.125 352.889 24.009 353.211 23.777C353.536 23.5417 353.698 23.2599 353.698 22.9318C353.698 22.6667 353.605 22.4446 353.42 22.2656C353.234 22.0833 352.949 21.9474 352.565 21.858L351.292 21.5597C350.593 21.3939 350.079 21.1371 349.751 20.7891C349.426 20.4377 349.263 19.9986 349.263 19.4716C349.263 19.0407 349.384 18.6596 349.626 18.3281C349.872 17.9967 350.205 17.7365 350.626 17.5476C351.05 17.3587 351.531 17.2642 352.067 17.2642C352.823 17.2642 353.416 17.4299 353.847 17.7614C354.281 18.0928 354.59 18.5303 354.772 19.0739Z" fill="black"/>
<rect x="248.5" y="0.5" width="115" height="39" rx="7.5" stroke="black" stroke-opacity="0.1"/>
</svg>
