<svg width="162" height="122" viewBox="0 0 162 122" fill="none" xmlns="http://www.w3.org/2000/svg">
<path d="M0 12C0 5.37258 5.37258 0 12 0H150C156.627 0 162 5.37258 162 12V110C162 116.627 156.627 122 150 122H12C5.37259 122 0 116.627 0 110V12Z" fill="white"/>
<path d="M39.8423 44.4205V41.0298L48.3438 27.6364H51.267V32.3295H49.5369L44.1776 40.8111V40.9702H56.2585V44.4205H39.8423ZM49.6165 48V43.3864L49.696 41.8849V27.6364H53.733V48H49.6165ZM61.2599 48.2585C60.6037 48.2585 60.0402 48.0265 59.5696 47.5625C59.1056 47.0919 58.8736 46.5284 58.8736 45.8722C58.8736 45.2225 59.1056 44.6657 59.5696 44.2017C60.0402 43.7377 60.6037 43.5057 61.2599 43.5057C61.8963 43.5057 62.4531 43.7377 62.9304 44.2017C63.4077 44.6657 63.6463 45.2225 63.6463 45.8722C63.6463 46.3097 63.5336 46.7107 63.3082 47.0753C63.0895 47.4332 62.8011 47.7216 62.4432 47.9403C62.0852 48.1525 61.6908 48.2585 61.2599 48.2585ZM67.0842 48V44.8977L74.3327 38.1861C74.9492 37.5895 75.4663 37.0526 75.8839 36.5753C76.3081 36.098 76.6296 35.6307 76.8484 35.1733C77.0671 34.7093 77.1765 34.2088 77.1765 33.6719C77.1765 33.0753 77.0406 32.5616 76.7688 32.1307C76.497 31.6932 76.1258 31.3584 75.6552 31.1264C75.1845 30.8878 74.6509 30.7685 74.0543 30.7685C73.4312 30.7685 72.8877 30.8944 72.4237 31.1463C71.9596 31.3982 71.6017 31.7595 71.3498 32.2301C71.0979 32.7008 70.9719 33.2609 70.9719 33.9105H66.8853C66.8853 32.5781 67.1869 31.4214 67.7901 30.4403C68.3933 29.4593 69.2385 28.7003 70.3256 28.1634C71.4128 27.6264 72.6656 27.358 74.0842 27.358C75.5425 27.358 76.8119 27.6165 77.8924 28.1335C78.9795 28.6439 79.8247 29.3532 80.4279 30.2614C81.0311 31.1695 81.3327 32.2102 81.3327 33.3835C81.3327 34.1525 81.1803 34.9115 80.8754 35.6605C80.5771 36.4096 80.0434 37.2415 79.2745 38.1562C78.5056 39.0644 77.4218 40.1548 76.0231 41.4276L73.0501 44.3409V44.4801H81.6012V48H67.0842Z" fill="#00BB77"/>
<path d="M91.5 31.6C91.5 28.2397 91.5 26.5595 92.154 25.2761C92.7292 24.1471 93.6471 23.2292 94.7761 22.654C96.0595 22 97.7397 22 101.1 22H113.9C117.26 22 118.94 22 120.224 22.654C121.353 23.2292 122.271 24.1471 122.846 25.2761C123.5 26.5595 123.5 28.2397 123.5 31.6V44.4C123.5 47.7603 123.5 49.4405 122.846 50.7239C122.271 51.8529 121.353 52.7708 120.224 53.346C118.94 54 117.26 54 113.9 54H101.1C97.7397 54 96.0595 54 94.7761 53.346C93.6471 52.7708 92.7292 51.8529 92.154 50.7239C91.5 49.4405 91.5 47.7603 91.5 44.4V31.6Z" fill="white"/>
<path d="M92 31.6C92 29.9116 92.0004 28.6754 92.0801 27.6999C92.1593 26.7303 92.3144 26.0626 92.5995 25.5031C93.1268 24.4682 93.9682 23.6268 95.0031 23.0995C95.5626 22.8144 96.2303 22.6593 97.1999 22.5801C98.1754 22.5004 99.4116 22.5 101.1 22.5H113.9C115.588 22.5 116.825 22.5004 117.8 22.5801C118.77 22.6593 119.437 22.8144 119.997 23.0995C121.032 23.6268 121.873 24.4682 122.401 25.5031C122.686 26.0626 122.841 26.7303 122.92 27.6999C123 28.6754 123 29.9116 123 31.6V44.4C123 46.0884 123 47.3246 122.92 48.3001C122.841 49.2697 122.686 49.9374 122.401 50.4969C121.873 51.5318 121.032 52.3732 119.997 52.9005C119.437 53.1856 118.77 53.3407 117.8 53.4199C116.825 53.4996 115.588 53.5 113.9 53.5H101.1C99.4116 53.5 98.1754 53.4996 97.1999 53.4199C96.2303 53.3407 95.5626 53.1856 95.0031 52.9005C93.9682 52.3732 93.1268 51.5318 92.5995 50.4969C92.3144 49.9374 92.1593 49.2697 92.0801 48.3001C92.0004 47.3246 92 46.0884 92 44.4V31.6Z" stroke="black" stroke-opacity="0.1"/>
<g clip-path="url(#clip0_1_1860)">
<path d="M99.3399 27.743C99.1002 27.9947 98.9564 28.3902 98.9564 28.8935V47.0244C98.9564 47.5278 99.1002 47.9232 99.3399 48.1749L99.3998 48.2348L109.562 38.0728V37.8331L99.3998 27.6711L99.3399 27.743Z" fill="url(#paint0_linear_1_1860)"/>
<path d="M112.941 41.4642L109.562 38.0729V37.8332L112.953 34.4419L113.025 34.4898L117.039 36.7667C118.19 37.4138 118.19 38.4803 117.039 39.1394L113.025 41.4163L112.941 41.4642Z" fill="url(#paint1_linear_1_1860)"/>
<path d="M113.025 41.4162L109.562 37.953L99.3399 48.1749C99.7113 48.5704 100.346 48.6303 101.042 48.2228L113.025 41.4162Z" fill="url(#paint2_linear_1_1860)"/>
<path d="M113.025 34.5018L101.042 27.6952C100.334 27.2998 99.7113 27.3477 99.3399 27.7432L109.562 37.9651L113.025 34.5018Z" fill="url(#paint3_linear_1_1860)"/>
</g>
<path d="M43.6144 64.7729C44.0472 63.695 44.2636 63.1561 44.5728 62.9969C44.8409 62.8588 45.1593 62.8588 45.4275 62.9969C45.7366 63.1561 45.9531 63.695 46.3859 64.7729L47.414 67.333L50.1665 67.5197C51.3253 67.5982 51.9048 67.6375 52.1517 67.8824C52.3659 68.0947 52.4643 68.3975 52.4158 68.6952C52.3599 69.0384 51.9143 69.4108 51.0229 70.1555L48.9058 71.9244L49.5789 74.5999C49.8622 75.7263 50.0039 76.2895 49.8474 76.6001C49.7116 76.8694 49.4541 77.0565 49.156 77.1024C48.8122 77.1553 48.3204 76.8465 47.3366 76.2289L45.0001 74.762L42.6636 76.2289C41.6799 76.8465 41.188 77.1553 40.8443 77.1024C40.5462 77.0565 40.2886 76.8694 40.1529 76.6001C39.9963 76.2895 40.138 75.7263 40.4214 74.5999L41.0945 71.9244L38.9773 70.1555C38.086 69.4108 37.6403 69.0384 37.5844 68.6952C37.5359 68.3975 37.6343 68.0947 37.8485 67.8824C38.0955 67.6375 38.6749 67.5982 39.8338 67.5197L42.5863 67.333L43.6144 64.7729Z" fill="#FF8833"/>
<path d="M61.6144 64.7729C62.0472 63.695 62.2636 63.1561 62.5728 62.9969C62.8409 62.8588 63.1593 62.8588 63.4275 62.9969C63.7366 63.1561 63.9531 63.695 64.3859 64.7729L65.414 67.333L68.1665 67.5197C69.3253 67.5982 69.9048 67.6375 70.1517 67.8824C70.3659 68.0947 70.4643 68.3975 70.4158 68.6952C70.3599 69.0384 69.9143 69.4108 69.0229 70.1555L66.9058 71.9244L67.5789 74.5999C67.8622 75.7263 68.0039 76.2895 67.8474 76.6001C67.7116 76.8694 67.4541 77.0565 67.156 77.1024C66.8122 77.1553 66.3204 76.8465 65.3366 76.2289L63.0001 74.762L60.6636 76.2289C59.6799 76.8465 59.188 77.1553 58.8443 77.1024C58.5462 77.0565 58.2886 76.8694 58.1529 76.6001C57.9963 76.2895 58.138 75.7263 58.4214 74.5999L59.0945 71.9244L56.9773 70.1555C56.086 69.4108 55.6403 69.0384 55.5844 68.6952C55.5359 68.3975 55.6343 68.0947 55.8485 67.8824C56.0955 67.6375 56.6749 67.5982 57.8338 67.5197L60.5863 67.333L61.6144 64.7729Z" fill="#FF8833"/>
<path d="M79.6144 64.7729C80.0472 63.695 80.2636 63.1561 80.5728 62.9969C80.8409 62.8588 81.1593 62.8588 81.4275 62.9969C81.7366 63.1561 81.9531 63.695 82.3859 64.7729L83.414 67.333L86.1665 67.5197C87.3253 67.5982 87.9048 67.6375 88.1517 67.8824C88.3659 68.0947 88.4643 68.3975 88.4158 68.6952C88.3599 69.0384 87.9143 69.4108 87.0229 70.1555L84.9058 71.9244L85.5789 74.5999C85.8622 75.7263 86.0039 76.2895 85.8474 76.6001C85.7116 76.8694 85.4541 77.0565 85.156 77.1024C84.8122 77.1553 84.3204 76.8465 83.3366 76.2289L81.0001 74.762L78.6636 76.2289C77.6799 76.8465 77.188 77.1553 76.8443 77.1024C76.5462 77.0565 76.2886 76.8694 76.1529 76.6001C75.9963 76.2895 76.138 75.7263 76.4214 74.5999L77.0945 71.9244L74.9773 70.1555C74.086 69.4108 73.6403 69.0384 73.5844 68.6952C73.5359 68.3975 73.6343 68.0947 73.8485 67.8824C74.0955 67.6375 74.6749 67.5982 75.8338 67.5197L78.5863 67.333L79.6144 64.7729Z" fill="#FF8833"/>
<path d="M97.6144 64.7729C98.0472 63.695 98.2636 63.1561 98.5728 62.9969C98.8409 62.8588 99.1593 62.8588 99.4275 62.9969C99.7366 63.1561 99.9531 63.695 100.386 64.7729L101.414 67.333L104.166 67.5197C105.325 67.5982 105.905 67.6375 106.152 67.8824C106.366 68.0947 106.464 68.3975 106.416 68.6952C106.36 69.0384 105.914 69.4108 105.023 70.1555L102.906 71.9244L103.579 74.5999C103.862 75.7263 104.004 76.2895 103.847 76.6001C103.712 76.8694 103.454 77.0565 103.156 77.1024C102.812 77.1553 102.32 76.8465 101.337 76.2289L99.0001 74.762L96.6636 76.2289C95.6799 76.8465 95.188 77.1553 94.8443 77.1024C94.5462 77.0565 94.2886 76.8694 94.1529 76.6001C93.9963 76.2895 94.138 75.7263 94.4214 74.5999L95.0945 71.9244L92.9773 70.1555C92.086 69.4108 91.6403 69.0384 91.5844 68.6952C91.5359 68.3975 91.6343 68.0947 91.8485 67.8824C92.0955 67.6375 92.6749 67.5982 93.8338 67.5197L96.5863 67.333L97.6144 64.7729Z" fill="#FF8833"/>
<path fill-rule="evenodd" clip-rule="evenodd" d="M118.489 68.6067L117.149 65.2698C117.094 65.1345 117.045 65.0122 117 64.9014C116.955 65.0122 116.906 65.1345 116.852 65.2698L115.512 68.6067L111.924 68.8499C111.779 68.8598 111.647 68.8688 111.528 68.8773C111.619 68.9543 111.72 69.0389 111.832 69.1323L114.592 71.4379L113.714 74.9251C113.679 75.0665 113.647 75.1944 113.618 75.3105C113.72 75.2472 113.831 75.1772 113.955 75.0997L117 73.1877L120.046 75.0997C120.169 75.1772 120.281 75.2472 120.382 75.3105C120.353 75.1944 120.321 75.0665 120.286 74.9251L119.409 71.4379L122.168 69.1323C122.28 69.0389 122.381 68.9543 122.473 68.8773C122.353 68.8688 122.222 68.8598 122.076 68.8499L118.489 68.6067ZM114.586 67.333L111.834 67.5196C110.675 67.5982 110.095 67.6375 109.849 67.8824C109.634 68.0947 109.536 68.3975 109.584 68.6952C109.64 69.0384 110.086 69.4108 110.977 70.1555L113.094 71.9244L112.421 74.5999C112.138 75.7263 111.996 76.2895 112.153 76.6001C112.289 76.8694 112.546 77.0565 112.844 77.1024C113.188 77.1553 113.68 76.8465 114.664 76.2289L117 74.762L119.337 76.2289C120.32 76.8465 120.812 77.1553 121.156 77.1024C121.454 77.0565 121.712 76.8694 121.847 76.6001C122.004 76.2895 121.862 75.7263 121.579 74.5999L120.906 71.9244L123.023 70.1555C123.914 69.4108 124.36 69.0384 124.416 68.6952C124.464 68.3975 124.366 68.0947 124.152 67.8824C123.905 67.6375 123.325 67.5982 122.166 67.5196L119.414 67.333L118.386 64.7729C117.953 63.695 117.737 63.1561 117.427 62.9969C117.159 62.8588 116.841 62.8588 116.573 62.9969C116.264 63.1561 116.047 63.695 115.614 64.7729L114.586 67.333Z" fill="#FF8833"/>
<mask id="mask0_1_1860" style="mask-type:alpha" maskUnits="userSpaceOnUse" x="109" y="62" width="16" height="16">
<path d="M115.614 64.7729C116.047 63.695 116.264 63.1561 116.573 62.9969C116.841 62.8588 117.159 62.8588 117.427 62.9969C117.737 63.1561 117.953 63.695 118.386 64.7729L119.414 67.333L122.166 67.5197C123.325 67.5982 123.905 67.6375 124.152 67.8824C124.366 68.0947 124.464 68.3975 124.416 68.6952C124.36 69.0384 123.914 69.4108 123.023 70.1555L120.906 71.9244L121.579 74.5999C121.862 75.7263 122.004 76.2895 121.847 76.6001C121.712 76.8694 121.454 77.0565 121.156 77.1024C120.812 77.1553 120.32 76.8465 119.337 76.2289L117 74.762L114.664 76.2289C113.68 76.8465 113.188 77.1553 112.844 77.1024C112.546 77.0565 112.289 76.8694 112.153 76.6001C111.996 76.2895 112.138 75.7263 112.421 74.5999L113.094 71.9244L110.977 70.1555C110.086 69.4108 109.64 69.0384 109.584 68.6952C109.536 68.3975 109.634 68.0947 109.849 67.8824C110.095 67.6375 110.675 67.5982 111.834 67.5197L114.586 67.333L115.614 64.7729Z" fill="#FF8833"/>
</mask>
<g mask="url(#mask0_1_1860)">
<rect x="109" y="62" width="7.5" height="16" fill="#FF8833"/>
</g>
<path d="M48.9943 97.1392C48.3381 97.1392 47.7531 97.0265 47.2393 96.8011C46.7289 96.5758 46.3229 96.2625 46.0213 95.8615C45.723 95.4571 45.5606 94.9882 45.5341 94.4545H46.7869C46.8134 94.7827 46.9261 95.0661 47.125 95.3047C47.3239 95.54 47.584 95.7223 47.9055 95.8516C48.227 95.9808 48.5833 96.0455 48.9744 96.0455C49.4119 96.0455 49.7997 95.9692 50.1378 95.8168C50.4759 95.6643 50.741 95.4522 50.9332 95.1804C51.1255 94.9086 51.2216 94.5938 51.2216 94.2358C51.2216 93.8613 51.1288 93.5315 50.9432 93.2464C50.7576 92.9581 50.4858 92.7327 50.1278 92.5703C49.7699 92.4079 49.3324 92.3267 48.8153 92.3267H48V91.233H48.8153C49.2197 91.233 49.5743 91.16 49.8793 91.0142C50.1875 90.8684 50.4278 90.6629 50.6001 90.3977C50.7758 90.1326 50.8636 89.821 50.8636 89.4631C50.8636 89.1184 50.7874 88.8184 50.6349 88.5632C50.4825 88.308 50.267 88.1091 49.9886 87.9666C49.7135 87.8241 49.3887 87.7528 49.0142 87.7528C48.6629 87.7528 48.3314 87.8175 48.0199 87.9467C47.7116 88.0727 47.4598 88.2566 47.2642 88.4986C47.0687 88.7372 46.9626 89.0256 46.946 89.3636H45.7528C45.7727 88.83 45.9335 88.3627 46.2351 87.9616C46.5367 87.5573 46.9311 87.2424 47.4183 87.017C47.9089 86.7917 48.4474 86.679 49.0341 86.679C49.6638 86.679 50.2041 86.8066 50.6548 87.0618C51.1056 87.3137 51.4519 87.6468 51.6939 88.0611C51.9358 88.4754 52.0568 88.9228 52.0568 89.4034C52.0568 89.9768 51.906 90.4657 51.6044 90.87C51.3061 91.2744 50.9001 91.5545 50.3864 91.7102V91.7898C51.0294 91.8958 51.5315 92.1693 51.8928 92.6101C52.254 93.0476 52.4347 93.5895 52.4347 94.2358C52.4347 94.7893 52.2839 95.2865 51.9822 95.7273C51.6839 96.1648 51.2763 96.5095 50.7592 96.7614C50.2422 97.0133 49.6539 97.1392 48.9943 97.1392ZM58.0476 86.8182V97H56.8146V88.1108H56.755L54.2692 89.7614V88.5085L56.8146 86.8182H58.0476ZM62.0895 94.2159L62.0696 92.7642H62.3082L65.6491 89.3636H67.1009L63.5412 92.9631H63.4418L62.0895 94.2159ZM60.9957 97V86.8182H62.169V97H60.9957ZM65.848 97L62.8651 93.2216L63.7003 92.4062L67.3395 97H65.848ZM72.5485 97V89.3636H73.682V90.517H73.7615C73.9007 90.1392 74.1526 89.8326 74.5172 89.5973C74.8818 89.362 75.2928 89.2443 75.7502 89.2443C75.8364 89.2443 75.9441 89.246 76.0733 89.2493C76.2026 89.2526 76.3004 89.2576 76.3667 89.2642V90.4574C76.3269 90.4474 76.2357 90.4325 76.0932 90.4126C75.954 90.3894 75.8065 90.3778 75.6507 90.3778C75.2795 90.3778 74.9481 90.4557 74.6564 90.6115C74.3681 90.764 74.1394 90.9761 73.9703 91.2479C73.8046 91.5163 73.7218 91.8229 73.7218 92.1676V97H72.5485ZM80.0046 97.179C79.5207 97.179 79.0816 97.0878 78.6871 96.9055C78.2927 96.7199 77.9795 96.4531 77.7475 96.1051C77.5155 95.7538 77.3995 95.3295 77.3995 94.8324C77.3995 94.3949 77.4857 94.0402 77.658 93.7685C77.8304 93.4934 78.0607 93.2779 78.3491 93.1222C78.6374 92.9664 78.9556 92.8504 79.3036 92.7741C79.6549 92.6946 80.0079 92.6316 80.3626 92.5852C80.8266 92.5256 81.2028 92.4808 81.4911 92.451C81.7828 92.4179 81.9949 92.3632 82.1275 92.2869C82.2634 92.2107 82.3313 92.0781 82.3313 91.8892V91.8494C82.3313 91.3589 82.1971 90.9777 81.9286 90.706C81.6635 90.4342 81.2608 90.2983 80.7205 90.2983C80.1604 90.2983 79.7212 90.4209 79.4031 90.6662C79.0849 90.9115 78.8612 91.1733 78.7319 91.4517L77.6183 91.054C77.8171 90.59 78.0823 90.2287 78.4137 89.9702C78.7485 89.7083 79.113 89.526 79.5075 89.4233C79.9052 89.3172 80.2963 89.2642 80.6808 89.2642C80.926 89.2642 81.2077 89.294 81.5259 89.3537C81.8474 89.41 82.1573 89.5277 82.4556 89.7067C82.7572 89.8857 83.0075 90.1558 83.2063 90.517C83.4052 90.8783 83.5046 91.3622 83.5046 91.9688V97H82.3313V95.9659H82.2717C82.1921 96.1316 82.0595 96.3089 81.8739 96.4979C81.6883 96.6868 81.4414 96.8475 81.1332 96.9801C80.8249 97.1127 80.4487 97.179 80.0046 97.179ZM80.1836 96.125C80.6476 96.125 81.0387 96.0339 81.3569 95.8516C81.6784 95.6693 81.9203 95.4339 82.0827 95.1456C82.2485 94.8572 82.3313 94.554 82.3313 94.2358V93.1619C82.2816 93.2216 82.1722 93.2763 82.0032 93.326C81.8375 93.3724 81.6452 93.4138 81.4265 93.4503C81.2111 93.4834 81.0006 93.5133 80.7951 93.5398C80.5929 93.563 80.4289 93.5829 80.3029 93.5994C79.998 93.6392 79.7129 93.7038 79.4478 93.7933C79.186 93.8795 78.9738 94.0104 78.8114 94.1861C78.6523 94.3584 78.5728 94.5937 78.5728 94.892C78.5728 95.2997 78.7236 95.608 79.0252 95.8168C79.3301 96.0223 79.7163 96.125 80.1836 96.125ZM88.9672 89.3636V90.358H85.0098V89.3636H88.9672ZM86.1632 87.5341H87.3365V94.8125C87.3365 95.1439 87.3845 95.3925 87.4806 95.5582C87.5801 95.7206 87.706 95.83 87.8585 95.8864C88.0143 95.9394 88.1783 95.9659 88.3507 95.9659C88.4799 95.9659 88.586 95.9593 88.6689 95.946C88.7517 95.9295 88.818 95.9162 88.8677 95.9062L89.1064 96.9602C89.0268 96.9901 88.9158 97.0199 88.7733 97.0497C88.6307 97.0829 88.4501 97.0994 88.2314 97.0994C87.8999 97.0994 87.5751 97.0282 87.2569 96.8857C86.9421 96.7431 86.6802 96.526 86.4714 96.2344C86.2659 95.9427 86.1632 95.5748 86.1632 95.1307V87.5341ZM90.7321 97V89.3636H91.9054V97H90.7321ZM91.3287 88.0909C91.1 88.0909 90.9028 88.013 90.737 87.8572C90.5746 87.7015 90.4934 87.5142 90.4934 87.2955C90.4934 87.0767 90.5746 86.8894 90.737 86.7337C90.9028 86.5779 91.1 86.5 91.3287 86.5C91.5574 86.5 91.7529 86.5779 91.9153 86.7337C92.081 86.8894 92.1639 87.0767 92.1639 87.2955C92.1639 87.5142 92.081 87.7015 91.9153 87.8572C91.7529 88.013 91.5574 88.0909 91.3287 88.0909ZM95.2276 92.4062V97H94.0543V89.3636H95.1879V90.5568H95.2873C95.4663 90.169 95.738 89.8575 96.1026 89.6222C96.4672 89.3835 96.9379 89.2642 97.5146 89.2642C98.0316 89.2642 98.484 89.3703 98.8718 89.5824C99.2596 89.7912 99.5612 90.1094 99.7766 90.5369C99.9921 90.9612 100.1 91.4981 100.1 92.1477V97H98.9265V92.2273C98.9265 91.6274 98.7707 91.16 98.4592 90.8253C98.1476 90.4872 97.7201 90.3182 97.1765 90.3182C96.802 90.3182 96.4672 90.3994 96.1722 90.5618C95.8806 90.7242 95.6502 90.9612 95.4812 91.2727C95.3121 91.5843 95.2276 91.9621 95.2276 92.4062ZM105.326 100.023C104.759 100.023 104.272 99.9498 103.865 99.804C103.457 99.6615 103.117 99.4725 102.845 99.2372C102.577 99.0052 102.363 98.7566 102.204 98.4915L103.139 97.8352C103.245 97.9744 103.379 98.1335 103.541 98.3125C103.704 98.4948 103.926 98.6522 104.208 98.7848C104.493 98.9207 104.865 98.9886 105.326 98.9886C105.943 98.9886 106.451 98.8395 106.852 98.5412C107.253 98.2429 107.454 97.7756 107.454 97.1392V95.5881H107.355C107.268 95.7273 107.146 95.8996 106.987 96.1051C106.831 96.3073 106.606 96.4879 106.311 96.647C106.019 96.8028 105.624 96.8807 105.127 96.8807C104.511 96.8807 103.957 96.7348 103.467 96.4432C102.98 96.1515 102.593 95.7273 102.308 95.1705C102.027 94.6136 101.886 93.9375 101.886 93.142C101.886 92.3598 102.023 91.6787 102.298 91.0987C102.574 90.5154 102.956 90.0646 103.447 89.7464C103.937 89.425 104.504 89.2642 105.147 89.2642C105.644 89.2642 106.039 89.3471 106.33 89.5128C106.625 89.6752 106.851 89.8608 107.007 90.0696C107.166 90.2751 107.288 90.4441 107.374 90.5767H107.494V89.3636H108.627V97.2188C108.627 97.875 108.478 98.4086 108.18 98.8196C107.885 99.2339 107.487 99.5372 106.987 99.7294C106.49 99.925 105.936 100.023 105.326 100.023ZM105.286 95.8267C105.757 95.8267 106.155 95.719 106.48 95.5036C106.804 95.2881 107.051 94.9782 107.22 94.5739C107.389 94.1695 107.474 93.6856 107.474 93.1222C107.474 92.572 107.391 92.0864 107.225 91.6655C107.06 91.2446 106.814 90.9148 106.49 90.6761C106.165 90.4375 105.764 90.3182 105.286 90.3182C104.789 90.3182 104.375 90.4441 104.044 90.696C103.715 90.9479 103.468 91.286 103.303 91.7102C103.14 92.1345 103.059 92.6051 103.059 93.1222C103.059 93.6525 103.142 94.1214 103.308 94.5291C103.477 94.9335 103.725 95.2517 104.053 95.4837C104.385 95.7124 104.796 95.8267 105.286 95.8267ZM116.184 91.0739L115.13 91.3722C115.064 91.1965 114.966 91.0258 114.837 90.8601C114.711 90.6911 114.539 90.5518 114.32 90.4425C114.101 90.3331 113.821 90.2784 113.48 90.2784C113.012 90.2784 112.623 90.3861 112.311 90.6016C112.003 90.8137 111.849 91.0838 111.849 91.4119C111.849 91.7036 111.955 91.9339 112.167 92.103C112.379 92.272 112.711 92.4129 113.161 92.5256L114.295 92.804C114.978 92.9697 115.486 93.2232 115.821 93.5646C116.156 93.9027 116.323 94.3385 116.323 94.8722C116.323 95.3097 116.197 95.7008 115.945 96.0455C115.697 96.3902 115.349 96.6619 114.901 96.8608C114.454 97.0597 113.934 97.1591 113.34 97.1591C112.561 97.1591 111.917 96.9901 111.406 96.652C110.896 96.3139 110.573 95.8201 110.437 95.1705L111.551 94.892C111.657 95.303 111.857 95.6113 112.152 95.8168C112.45 96.0223 112.84 96.125 113.32 96.125C113.867 96.125 114.302 96.009 114.623 95.777C114.948 95.5417 115.11 95.2599 115.11 94.9318C115.11 94.6667 115.017 94.4446 114.832 94.2656C114.646 94.0833 114.361 93.9474 113.977 93.858L112.704 93.5597C112.005 93.3939 111.491 93.1371 111.163 92.7891C110.838 92.4377 110.676 91.9986 110.676 91.4716C110.676 91.0407 110.797 90.6596 111.039 90.3281C111.284 89.9967 111.617 89.7365 112.038 89.5476C112.462 89.3587 112.943 89.2642 113.48 89.2642C114.235 89.2642 114.829 89.4299 115.259 89.7614C115.694 90.0928 116.002 90.5303 116.184 91.0739Z" fill="black" fill-opacity="0.4"/>
<path d="M12 1H150V-1H12V1ZM161 12V110H163V12H161ZM150 121H12V123H150V121ZM1 110V12H-1V110H1ZM12 121C5.92487 121 1 116.075 1 110H-1C-1 117.18 4.8203 123 12 123V121ZM161 110C161 116.075 156.075 121 150 121V123C157.18 123 163 117.18 163 110H161ZM150 1C156.075 1 161 5.92487 161 12H163C163 4.8203 157.18 -1 150 -1V1ZM12 -1C4.8203 -1 -1 4.8203 -1 12H1C1 5.92487 5.92487 1 12 1V-1Z" fill="black" fill-opacity="0.1"/>
<defs>
<linearGradient id="paint0_linear_1_1860" x1="108.651" y1="28.6962" x2="94.8891" y2="42.4577" gradientUnits="userSpaceOnUse">
<stop stop-color="#00A0FF"/>
<stop offset="0.007" stop-color="#00A1FF"/>
<stop offset="0.26" stop-color="#00BEFF"/>
<stop offset="0.512" stop-color="#00D2FF"/>
<stop offset="0.76" stop-color="#00DFFF"/>
<stop offset="1" stop-color="#00E3FF"/>
</linearGradient>
<linearGradient id="paint1_linear_1_1860" x1="118.523" y1="37.959" x2="98.6816" y2="37.959" gradientUnits="userSpaceOnUse">
<stop stop-color="#FFE000"/>
<stop offset="0.409" stop-color="#FFBD00"/>
<stop offset="0.775" stop-color="#FFA500"/>
<stop offset="1" stop-color="#FF9C00"/>
</linearGradient>
<linearGradient id="paint2_linear_1_1860" x1="111.14" y1="39.8441" x2="92.4784" y2="58.5056" gradientUnits="userSpaceOnUse">
<stop stop-color="#FF3A44"/>
<stop offset="1" stop-color="#C31162"/>
</linearGradient>
<linearGradient id="paint3_linear_1_1860" x1="96.7658" y1="21.6999" x2="105.099" y2="30.0331" gradientUnits="userSpaceOnUse">
<stop stop-color="#32A071"/>
<stop offset="0.069" stop-color="#2DA771"/>
<stop offset="0.476" stop-color="#15CF74"/>
<stop offset="0.801" stop-color="#06E775"/>
<stop offset="1" stop-color="#00F076"/>
</linearGradient>
<clipPath id="clip0_1_1860">
<rect width="21.3333" height="21.3333" fill="white" transform="translate(97.7222 27.3333)"/>
</clipPath>
</defs>
</svg>
