<svg width="18" height="12" viewBox="0 0 18 12" fill="none" xmlns="http://www.w3.org/2000/svg">
<path d="M0.666687 0.999837C0.666687 0.5396 1.03978 0.166504 1.50002 0.166504H16.5C16.9603 0.166504 17.3334 0.5396 17.3334 0.999837C17.3334 1.46008 16.9603 1.83317 16.5 1.83317H1.50002C1.03978 1.83317 0.666687 1.46008 0.666687 0.999837Z" fill="black"/>
<path d="M0.666687 5.99984C0.666687 5.5396 1.03978 5.1665 1.50002 5.1665H16.5C16.9603 5.1665 17.3334 5.5396 17.3334 5.99984C17.3334 6.46008 16.9603 6.83317 16.5 6.83317H1.50002C1.03978 6.83317 0.666687 6.46008 0.666687 5.99984Z" fill="black"/>
<path d="M1.50002 10.1665C1.03978 10.1665 0.666687 10.5396 0.666687 10.9998C0.666687 11.4601 1.03978 11.8332 1.50002 11.8332H16.5C16.9603 11.8332 17.3334 11.4601 17.3334 10.9998C17.3334 10.5396 16.9603 10.1665 16.5 10.1665H1.50002Z" fill="black"/>
</svg>
