<svg width="20" height="20" viewBox="0 0 20 20" fill="none" xmlns="http://www.w3.org/2000/svg">
<path fill-rule="evenodd" clip-rule="evenodd" d="M4.86495 10C4.86495 7.16393 7.16401 4.86487 10.0001 4.86487C12.8362 4.86487 15.1352 7.16393 15.1352 10C15.1352 12.8361 12.8362 15.1351 10.0001 15.1351C7.16401 15.1351 4.86495 12.8361 4.86495 10ZM6.66677 10C6.66677 11.841 8.15915 13.3333 10.0001 13.3333C11.8411 13.3333 13.3334 11.841 13.3334 10C13.3334 8.15905 11.8411 6.66667 10.0001 6.66667C8.15915 6.66667 6.66677 8.15905 6.66677 10Z" fill="black"/>
<path d="M15.3381 5.86197C16.0008 5.86197 16.5381 5.32474 16.5381 4.66199C16.5381 3.99924 16.0008 3.46197 15.3381 3.46197C14.6754 3.46197 14.1381 3.99924 14.1381 4.66199C14.1381 5.32474 14.6754 5.86197 15.3381 5.86197Z" fill="black"/>
<path fill-rule="evenodd" clip-rule="evenodd" d="M10.0001 0C7.28422 0 6.94368 0.0115116 5.87707 0.0601777C4.81269 0.108725 4.08575 0.277786 3.44968 0.525007C2.79209 0.780524 2.23442 1.12246 1.67845 1.67839C1.12252 2.23436 0.780585 2.79203 0.525068 3.44962C0.277847 4.08569 0.108786 4.81263 0.0602388 5.87701C0.0115726 6.94362 6.10352e-05 7.28416 6.10352e-05 10C6.10352e-05 12.7158 0.0115726 13.0564 0.0602388 14.123C0.108786 15.1874 0.277847 15.9143 0.525068 16.5504C0.780585 17.208 1.12252 17.7656 1.67845 18.3216C2.23442 18.8775 2.79209 19.2195 3.44968 19.475C4.08575 19.7222 4.81269 19.8913 5.87707 19.9398C6.94368 19.9885 7.28422 20 10.0001 20C12.7159 20 13.0564 19.9885 14.123 19.9398C15.1874 19.8913 15.9144 19.7222 16.5504 19.475C17.208 19.2195 17.7657 18.8775 18.3217 18.3216C18.8776 17.7656 19.2195 17.208 19.4751 16.5504C19.7223 15.9143 19.8913 15.1874 19.9399 14.123C19.9886 13.0564 20.0001 12.7158 20.0001 10C20.0001 7.28416 19.9886 6.94362 19.9399 5.87701C19.8913 4.81263 19.7223 4.08569 19.4751 3.44962C19.2195 2.79203 18.8776 2.23436 18.3217 1.67839C17.7657 1.12246 17.208 0.780524 16.5504 0.525007C15.9144 0.277786 15.1874 0.108725 14.123 0.0601777C13.0564 0.0115116 12.7159 0 10.0001 0ZM10.0001 1.8018C12.6702 1.8018 12.9865 1.812 14.0409 1.86011C15.0159 1.90457 15.5454 2.06748 15.8978 2.20443C16.3645 2.38584 16.6977 2.60253 17.0476 2.95248C17.3975 3.3024 17.6142 3.63552 17.7956 4.10229C17.9326 4.45466 18.0955 4.98416 18.1399 5.95915C18.1881 7.01361 18.1983 7.3299 18.1983 10C18.1983 12.6701 18.1881 12.9864 18.1399 14.0409C18.0955 15.0159 17.9326 15.5453 17.7956 15.8977C17.6142 16.3645 17.3975 16.6976 17.0476 17.0475C16.6977 17.3975 16.3645 17.6142 15.8978 17.7956C15.5454 17.9325 15.0159 18.0954 14.0409 18.1399C12.9866 18.188 12.6704 18.1982 10.0001 18.1982C7.32975 18.1982 7.01354 18.188 5.9592 18.1399C4.98421 18.0954 4.45471 17.9325 4.10234 17.7956C3.63557 17.6142 3.30245 17.3975 2.95253 17.0475C2.60262 16.6976 2.38589 16.3645 2.20448 15.8977C2.06753 15.5453 1.90462 15.0159 1.86017 14.0409C1.81205 12.9864 1.80185 12.6701 1.80185 10C1.80185 7.3299 1.81205 7.01361 1.86017 5.95915C1.90462 4.98416 2.06753 4.45466 2.20448 4.10229C2.38589 3.63552 2.60258 3.3024 2.95253 2.95248C3.30245 2.60253 3.63557 2.38584 4.10234 2.20443C4.45471 2.06748 4.98421 1.90457 5.9592 1.86011C7.01366 1.812 7.32995 1.8018 10.0001 1.8018Z" fill="black"/>
</svg>
