<svg width="20" height="16" viewBox="0 0 20 16" fill="none" xmlns="http://www.w3.org/2000/svg">
<path fill-rule="evenodd" clip-rule="evenodd" d="M6.00006 11.2819V14.7181C6.00006 15.1638 5.95364 15.3255 5.86649 15.4884C5.77934 15.6514 5.65144 15.7793 5.48848 15.8664C5.32552 15.9536 5.16387 16 4.71811 16H3.00006C1.3432 16 5.72205e-05 14.6569 5.72205e-05 13C5.72205e-05 11.6938 0.834865 10.5825 2.00006 10.1707V8C2.00006 3.58172 5.58178 0 10.0001 0C14.4183 0 18.0001 3.58172 18.0001 8V10.1707C19.1652 10.5825 20.0001 11.6938 20.0001 13C20.0001 14.6569 18.6569 16 17.0001 16H15.282C14.8362 16 14.6746 15.9536 14.5116 15.8664C14.3487 15.7793 14.2208 15.6514 14.1336 15.4884C14.0465 15.3255 14.0001 15.1638 14.0001 14.7181V11.2819C14.0001 10.8362 14.0465 10.6745 14.1336 10.5116C14.2208 10.3486 14.3487 10.2207 14.5116 10.1336C14.6746 10.0464 14.8362 10 15.282 10H16.0001V8C16.0001 4.68629 13.3138 2 10.0001 2C6.68635 2 4.00006 4.68629 4.00006 8V10H4.71811C5.16387 10 5.32552 10.0464 5.48848 10.1336C5.65144 10.2207 5.77934 10.3486 5.86649 10.5116C5.95364 10.6745 6.00006 10.8362 6.00006 11.2819Z" fill="white"/>
</svg>
