<svg width="16" height="14" viewBox="0 0 16 14" fill="none" xmlns="http://www.w3.org/2000/svg">
<path fill-rule="evenodd" clip-rule="evenodd" d="M-5.72205e-05 5C-5.72205e-05 4.44772 0.447658 4 0.999943 4H10.9999C11.5522 4 11.9999 4.44772 11.9999 5C11.9999 5.55229 11.5522 6 10.9999 6H0.999942C0.447658 6 -5.72205e-05 5.55229 -5.72205e-05 5ZM-5.72205e-05 1C-5.72205e-05 0.447715 0.447658 0 0.999943 0H14.9999C15.5522 0 15.9999 0.447715 15.9999 1C15.9999 1.55228 15.5522 2 14.9999 2H0.999943C0.447658 2 -5.72205e-05 1.55228 -5.72205e-05 1ZM-5.72205e-05 9C-5.72205e-05 8.44772 0.447658 8 0.999943 8H14.9999C15.5522 8 15.9999 8.44772 15.9999 9C15.9999 9.55229 15.5522 10 14.9999 10H0.999943C0.447658 10 -5.72205e-05 9.55229 -5.72205e-05 9ZM-5.72205e-05 13C-5.72205e-05 12.4477 0.447658 12 0.999943 12H7.99994C8.55223 12 8.99994 12.4477 8.99994 13C8.99994 13.5523 8.55223 14 7.99994 14H0.999943C0.447658 14 -5.72205e-05 13.5523 -5.72205e-05 13Z" fill="black"/>
</svg>
