<svg width="116" height="56" viewBox="0 0 116 56" fill="none" xmlns="http://www.w3.org/2000/svg">
<rect width="116" height="56" rx="28" fill="white"/>
<rect x="4" y="4" width="48" height="48" rx="24" fill="#0066FF"/>
<path fill-rule="evenodd" clip-rule="evenodd" d="M24.0001 30.2819V33.7181C24.0001 34.1638 23.9536 34.3255 23.8665 34.4884C23.7793 34.6514 23.6514 34.7793 23.4885 34.8664C23.3255 34.9536 23.1639 35 22.7181 35H21.0001C19.3432 35 18.0001 33.6569 18.0001 32C18.0001 30.6938 18.8349 29.5825 20.0001 29.1707V27C20.0001 22.5817 23.5818 19 28.0001 19C32.4183 19 36.0001 22.5817 36.0001 27V29.1707C37.1652 29.5825 38.0001 30.6938 38.0001 32C38.0001 33.6569 36.6569 35 35.0001 35H33.282C32.8362 35 32.6746 34.9536 32.5116 34.8664C32.3487 34.7793 32.2208 34.6514 32.1336 34.4884C32.0465 34.3255 32.0001 34.1638 32.0001 33.7181V30.2819C32.0001 29.8362 32.0465 29.6745 32.1336 29.5116C32.2208 29.3486 32.3487 29.2207 32.5116 29.1336C32.6746 29.0464 32.8362 29 33.282 29H34.0001V27C34.0001 23.6863 31.3138 21 28.0001 21C24.6863 21 22.0001 23.6863 22.0001 27V29H22.7181C23.1639 29 23.3255 29.0464 23.4885 29.1336C23.6514 29.2207 23.7793 29.3486 23.8665 29.5116C23.9536 29.6745 24.0001 29.8362 24.0001 30.2819Z" fill="white"/>
<path fill-rule="evenodd" clip-rule="evenodd" d="M79.9999 26C79.9999 25.4477 80.4477 25 80.9999 25H90.9999C91.5522 25 91.9999 25.4477 91.9999 26C91.9999 26.5523 91.5522 27 90.9999 27H80.9999C80.4477 27 79.9999 26.5523 79.9999 26ZM79.9999 22C79.9999 21.4477 80.4477 21 80.9999 21H94.9999C95.5522 21 95.9999 21.4477 95.9999 22C95.9999 22.5523 95.5522 23 94.9999 23H80.9999C80.4477 23 79.9999 22.5523 79.9999 22ZM79.9999 30C79.9999 29.4477 80.4477 29 80.9999 29H94.9999C95.5522 29 95.9999 29.4477 95.9999 30C95.9999 30.5523 95.5522 31 94.9999 31H80.9999C80.4477 31 79.9999 30.5523 79.9999 30ZM79.9999 34C79.9999 33.4477 80.4477 33 80.9999 33H87.9999C88.5522 33 88.9999 33.4477 88.9999 34C88.9999 34.5523 88.5522 35 87.9999 35H80.9999C80.4477 35 79.9999 34.5523 79.9999 34Z" fill="black"/>
<rect x="0.5" y="0.5" width="115" height="55" rx="27.5" stroke="black" stroke-opacity="0.1"/>
</svg>
