<svg width="18" height="18" viewBox="0 0 18 18" fill="none" xmlns="http://www.w3.org/2000/svg">
<path d="M11.5001 6.49984C11.5001 7.88055 10.3808 8.99984 9.00005 8.99984C7.61934 8.99984 6.50005 7.88055 6.50005 6.49984C6.50005 5.11913 7.61934 3.99984 9.00005 3.99984C10.3808 3.99984 11.5001 5.11913 11.5001 6.49984Z" fill="black"/>
<path fill-rule="evenodd" clip-rule="evenodd" d="M17.3334 8.99984C17.3334 13.6022 13.6024 17.3332 9.00005 17.3332C4.39768 17.3332 0.666718 13.6022 0.666718 8.99984C0.666718 4.39746 4.39768 0.666504 9.00005 0.666504C13.6024 0.666504 17.3334 4.39746 17.3334 8.99984ZM2.33338 8.99984C2.33338 10.3905 2.75918 11.6817 3.48752 12.7502C4.9566 11.4534 6.88643 10.6665 9.00005 10.6665C11.1137 10.6665 13.0435 11.4534 14.5126 12.7502C15.2409 11.6817 15.6667 10.3905 15.6667 8.99984C15.6667 5.31794 12.6819 2.33317 9.00005 2.33317C5.31815 2.33317 2.33338 5.31794 2.33338 8.99984ZM9.00005 15.6665C7.30931 15.6665 5.76557 15.0371 4.59034 13.9998C5.76557 12.9626 7.30931 12.3332 9.00005 12.3332C10.6908 12.3332 12.2345 12.9626 13.4098 13.9998C12.2345 15.0371 10.6908 15.6665 9.00005 15.6665Z" fill="black"/>
</svg>
