<svg width="21" height="16" viewBox="0 0 21 16" fill="none" xmlns="http://www.w3.org/2000/svg">
<path fill-rule="evenodd" clip-rule="evenodd" d="M6.5 11.2819V14.7181C6.5 15.1638 6.45359 15.3255 6.36643 15.4884C6.27928 15.6514 6.15139 15.7793 5.98842 15.8664C5.82546 15.9536 5.66382 16 5.21806 16H3.5C1.84315 16 0.5 14.6569 0.5 13C0.5 11.6938 1.33481 10.5825 2.5 10.1707V8C2.5 3.58172 6.08172 0 10.5 0C14.9183 0 18.5 3.58172 18.5 8V10.1707C19.6652 10.5825 20.5 11.6938 20.5 13C20.5 14.6569 19.1569 16 17.5 16H15.7819C15.3362 16 15.1745 15.9536 15.0116 15.8664C14.8486 15.7793 14.7207 15.6514 14.6336 15.4884C14.5464 15.3255 14.5 15.1638 14.5 14.7181V11.2819C14.5 10.8362 14.5464 10.6745 14.6336 10.5116C14.7207 10.3486 14.8486 10.2207 15.0116 10.1336C15.1745 10.0464 15.3362 10 15.7819 10H16.5V8C16.5 4.68629 13.8137 2 10.5 2C7.18629 2 4.5 4.68629 4.5 8V10H5.21806C5.66382 10 5.82546 10.0464 5.98842 10.1336C6.15139 10.2207 6.27928 10.3486 6.36643 10.5116C6.45359 10.6745 6.5 10.8362 6.5 11.2819Z" fill="black"/>
</svg>
