<svg width="23" height="18" viewBox="0 0 23 18" fill="none" xmlns="http://www.w3.org/2000/svg">
<path d="M7.38104 17.7655C15.5167 17.7655 19.9685 11.0188 19.9685 5.17803C19.9685 4.98822 19.9685 4.79842 19.9599 4.60861C20.8226 3.98744 21.5732 3.20234 22.1685 2.31371C21.3748 2.66744 20.5206 2.90038 19.6234 3.01254C20.5379 2.46901 21.2367 1.59763 21.5732 0.56234C20.7191 1.07136 19.7701 1.43371 18.7607 1.63214C17.9497 0.769399 16.8022 0.234497 15.534 0.234497C13.0924 0.234497 11.1081 2.21881 11.1081 4.66038C11.1081 5.00548 11.1512 5.34195 11.2203 5.66979C7.54496 5.48861 4.28378 3.71999 2.10104 1.04548C1.72143 1.70116 1.50575 2.46038 1.50575 3.27136C1.50575 4.80705 2.29084 6.16156 3.4728 6.95528C2.7481 6.9294 2.06653 6.73097 1.47124 6.40312C1.47124 6.42038 1.47124 6.43763 1.47124 6.46352C1.47124 8.60312 2.99829 10.3976 5.01712 10.8031C4.64614 10.9067 4.2579 10.9584 3.85241 10.9584C3.56771 10.9584 3.29163 10.9325 3.02418 10.8808C3.58496 12.6408 5.22418 13.9176 7.15673 13.9521C5.63829 15.1427 3.73163 15.8502 1.66104 15.8502C1.30731 15.8502 0.953588 15.8329 0.60849 15.7898C2.55829 17.0321 4.88771 17.7655 7.38104 17.7655Z" fill="black"/>
</svg>
