<svg width="162" height="122" viewBox="0 0 162 122" fill="none" xmlns="http://www.w3.org/2000/svg">
<path d="M0 12C0 5.37258 5.37258 0 12 0H150C156.627 0 162 5.37258 162 12V110C162 116.627 156.627 122 150 122H12C5.37259 122 0 116.627 0 110V12Z" fill="white"/>
<path d="M40.8423 44.4205V41.0298L49.3438 27.6364H52.267V32.3295H50.5369L45.1776 40.8111V40.9702H57.2585V44.4205H40.8423ZM50.6165 48V43.3864L50.696 41.8849V27.6364H54.733V48H50.6165ZM62.2599 48.2585C61.6037 48.2585 61.0402 48.0265 60.5696 47.5625C60.1056 47.0919 59.8736 46.5284 59.8736 45.8722C59.8736 45.2225 60.1056 44.6657 60.5696 44.2017C61.0402 43.7377 61.6037 43.5057 62.2599 43.5057C62.8963 43.5057 63.4531 43.7377 63.9304 44.2017C64.4077 44.6657 64.6463 45.2225 64.6463 45.8722C64.6463 46.3097 64.5336 46.7107 64.3082 47.0753C64.0895 47.4332 63.8011 47.7216 63.4432 47.9403C63.0852 48.1525 62.6908 48.2585 62.2599 48.2585ZM68.1239 48L76.5657 31.2955V31.1562H66.7319V27.6364H81.0202V31.206L72.5685 48H68.1239Z" fill="#0066FF"/>
<path d="M90.5 31.6C90.5 28.2397 90.5 26.5595 91.154 25.2761C91.7292 24.1471 92.6471 23.2292 93.7761 22.654C95.0595 22 96.7397 22 100.1 22H112.9C116.26 22 117.94 22 119.224 22.654C120.353 23.2292 121.271 24.1471 121.846 25.2761C122.5 26.5595 122.5 28.2397 122.5 31.6V44.4C122.5 47.7603 122.5 49.4405 121.846 50.7239C121.271 51.8529 120.353 52.7708 119.224 53.346C117.94 54 116.26 54 112.9 54H100.1C96.7397 54 95.0595 54 93.7761 53.346C92.6471 52.7708 91.7292 51.8529 91.154 50.7239C90.5 49.4405 90.5 47.7603 90.5 44.4V31.6Z" fill="url(#paint0_linear_1_1859)"/>
<path d="M91 31.6C91 29.9116 91.0004 28.6754 91.0801 27.6999C91.1593 26.7303 91.3144 26.0626 91.5995 25.5031C92.1268 24.4682 92.9682 23.6268 94.0031 23.0995C94.5626 22.8144 95.2303 22.6593 96.1999 22.5801C97.1754 22.5004 98.4116 22.5 100.1 22.5H112.9C114.588 22.5 115.825 22.5004 116.8 22.5801C117.77 22.6593 118.437 22.8144 118.997 23.0995C120.032 23.6268 120.873 24.4682 121.401 25.5031C121.686 26.0626 121.841 26.7303 121.92 27.6999C122 28.6754 122 29.9116 122 31.6V44.4C122 46.0884 122 47.3246 121.92 48.3001C121.841 49.2697 121.686 49.9374 121.401 50.4969C120.873 51.5318 120.032 52.3732 118.997 52.9005C118.437 53.1856 117.77 53.3407 116.8 53.4199C115.825 53.4996 114.588 53.5 112.9 53.5H100.1C98.4116 53.5 97.1754 53.4996 96.1999 53.4199C95.2303 53.3407 94.5626 53.1856 94.0031 52.9005C92.9682 52.3732 92.1268 51.5318 91.5995 50.4969C91.3144 49.9374 91.1593 49.2697 91.0801 48.3001C91.0004 47.3246 91 46.0884 91 44.4V31.6Z" stroke="white" stroke-opacity="0.2"/>
<path d="M100.906 45.2965L100.909 45.2975L99.8296 47.1674C99.4355 47.8499 98.5627 48.0838 97.8801 47.6897C97.1976 47.2957 96.9637 46.4228 97.3578 45.7403L98.2294 44.2306C98.3657 44.0346 98.7021 43.6966 99.3749 43.7601C100.117 43.8406 101.54 44.3554 100.906 45.2965ZM116.219 40.5205H112.852C112.623 40.5051 112.523 40.4233 112.483 40.3757L112.481 40.3713L108.877 34.1293L108.872 34.1325L108.656 33.8226C108.302 33.2809 107.74 34.6663 107.74 34.6663C107.068 36.21 107.835 37.9652 108.102 38.4956L113.108 47.1654C113.502 47.848 114.375 48.0819 115.057 47.6878C115.74 47.2937 115.974 46.4209 115.58 45.7383L114.328 43.5704C114.304 43.5179 114.261 43.3752 114.518 43.3747H116.219C117.007 43.3747 117.646 42.7357 117.646 41.9476C117.646 41.1594 117.007 40.5205 116.219 40.5205ZM109.68 42.4606C109.68 42.4606 109.859 43.3746 109.164 43.3746H108.469L96.7187 43.3747C95.9305 43.3747 95.2916 42.7357 95.2916 41.9476C95.2916 41.1594 95.9305 40.5205 96.7187 40.5205H99.9183C100.435 40.4906 100.557 40.1924 100.557 40.1924L100.56 40.1938L104.737 32.9599L104.735 32.9596C104.812 32.8199 104.748 32.6878 104.737 32.6669L103.358 30.278C102.964 29.5954 103.198 28.7226 103.88 28.3285C104.563 27.9344 105.435 28.1683 105.83 28.8509L106.469 29.9589L107.108 28.8528C107.502 28.1703 108.375 27.9364 109.057 28.3305C109.74 28.7246 109.974 29.5974 109.58 30.2799L103.768 40.3461C103.742 40.4074 103.735 40.5036 103.924 40.5205H107.398H107.398C107.398 40.5205 109.406 40.5856 109.68 42.4606Z" fill="white"/>
<path d="M43.6144 64.7729C44.0472 63.695 44.2636 63.1561 44.5728 62.9969C44.8409 62.8588 45.1593 62.8588 45.4275 62.9969C45.7366 63.1561 45.9531 63.695 46.3859 64.7729L47.414 67.333L50.1665 67.5197C51.3253 67.5982 51.9048 67.6375 52.1517 67.8824C52.3659 68.0947 52.4643 68.3975 52.4158 68.6952C52.3599 69.0384 51.9143 69.4108 51.0229 70.1555L48.9058 71.9244L49.5789 74.5999C49.8622 75.7263 50.0039 76.2895 49.8474 76.6001C49.7116 76.8694 49.4541 77.0565 49.156 77.1024C48.8122 77.1553 48.3204 76.8465 47.3366 76.2289L45.0001 74.762L42.6636 76.2289C41.6799 76.8465 41.188 77.1553 40.8443 77.1024C40.5462 77.0565 40.2886 76.8694 40.1529 76.6001C39.9963 76.2895 40.138 75.7263 40.4214 74.5999L41.0945 71.9244L38.9773 70.1555C38.086 69.4108 37.6403 69.0384 37.5844 68.6952C37.5359 68.3975 37.6343 68.0947 37.8485 67.8824C38.0955 67.6375 38.6749 67.5982 39.8338 67.5197L42.5863 67.333L43.6144 64.7729Z" fill="#FF8833"/>
<path d="M61.6144 64.7729C62.0472 63.695 62.2636 63.1561 62.5728 62.9969C62.8409 62.8588 63.1593 62.8588 63.4275 62.9969C63.7366 63.1561 63.9531 63.695 64.3859 64.7729L65.414 67.333L68.1665 67.5197C69.3253 67.5982 69.9048 67.6375 70.1517 67.8824C70.3659 68.0947 70.4643 68.3975 70.4158 68.6952C70.3599 69.0384 69.9143 69.4108 69.0229 70.1555L66.9058 71.9244L67.5789 74.5999C67.8622 75.7263 68.0039 76.2895 67.8474 76.6001C67.7116 76.8694 67.4541 77.0565 67.156 77.1024C66.8122 77.1553 66.3204 76.8465 65.3366 76.2289L63.0001 74.762L60.6636 76.2289C59.6799 76.8465 59.188 77.1553 58.8443 77.1024C58.5462 77.0565 58.2886 76.8694 58.1529 76.6001C57.9963 76.2895 58.138 75.7263 58.4214 74.5999L59.0945 71.9244L56.9773 70.1555C56.086 69.4108 55.6403 69.0384 55.5844 68.6952C55.5359 68.3975 55.6343 68.0947 55.8485 67.8824C56.0955 67.6375 56.6749 67.5982 57.8338 67.5197L60.5863 67.333L61.6144 64.7729Z" fill="#FF8833"/>
<path d="M79.6144 64.7729C80.0472 63.695 80.2636 63.1561 80.5728 62.9969C80.8409 62.8588 81.1593 62.8588 81.4275 62.9969C81.7366 63.1561 81.9531 63.695 82.3859 64.7729L83.414 67.333L86.1665 67.5197C87.3253 67.5982 87.9048 67.6375 88.1517 67.8824C88.3659 68.0947 88.4643 68.3975 88.4158 68.6952C88.3599 69.0384 87.9143 69.4108 87.0229 70.1555L84.9058 71.9244L85.5789 74.5999C85.8622 75.7263 86.0039 76.2895 85.8474 76.6001C85.7116 76.8694 85.4541 77.0565 85.156 77.1024C84.8122 77.1553 84.3204 76.8465 83.3366 76.2289L81.0001 74.762L78.6636 76.2289C77.6799 76.8465 77.188 77.1553 76.8443 77.1024C76.5462 77.0565 76.2886 76.8694 76.1529 76.6001C75.9963 76.2895 76.138 75.7263 76.4214 74.5999L77.0945 71.9244L74.9773 70.1555C74.086 69.4108 73.6403 69.0384 73.5844 68.6952C73.5359 68.3975 73.6343 68.0947 73.8485 67.8824C74.0955 67.6375 74.6749 67.5982 75.8338 67.5197L78.5863 67.333L79.6144 64.7729Z" fill="#FF8833"/>
<path d="M97.6144 64.7729C98.0472 63.695 98.2636 63.1561 98.5728 62.9969C98.8409 62.8588 99.1593 62.8588 99.4275 62.9969C99.7366 63.1561 99.9531 63.695 100.386 64.7729L101.414 67.333L104.166 67.5197C105.325 67.5982 105.905 67.6375 106.152 67.8824C106.366 68.0947 106.464 68.3975 106.416 68.6952C106.36 69.0384 105.914 69.4108 105.023 70.1555L102.906 71.9244L103.579 74.5999C103.862 75.7263 104.004 76.2895 103.847 76.6001C103.712 76.8694 103.454 77.0565 103.156 77.1024C102.812 77.1553 102.32 76.8465 101.337 76.2289L99.0001 74.762L96.6636 76.2289C95.6799 76.8465 95.188 77.1553 94.8443 77.1024C94.5462 77.0565 94.2886 76.8694 94.1529 76.6001C93.9963 76.2895 94.138 75.7263 94.4214 74.5999L95.0945 71.9244L92.9773 70.1555C92.086 69.4108 91.6403 69.0384 91.5844 68.6952C91.5359 68.3975 91.6343 68.0947 91.8485 67.8824C92.0955 67.6375 92.6749 67.5982 93.8338 67.5197L96.5863 67.333L97.6144 64.7729Z" fill="#FF8833"/>
<path fill-rule="evenodd" clip-rule="evenodd" d="M118.489 68.6067L117.149 65.2698C117.094 65.1345 117.045 65.0122 117 64.9014C116.955 65.0122 116.906 65.1345 116.852 65.2698L115.512 68.6067L111.924 68.8499C111.779 68.8598 111.647 68.8688 111.528 68.8773C111.619 68.9543 111.72 69.0389 111.832 69.1323L114.592 71.4379L113.714 74.9251C113.679 75.0665 113.647 75.1944 113.618 75.3105C113.72 75.2472 113.831 75.1772 113.955 75.0997L117 73.1877L120.046 75.0997C120.169 75.1772 120.281 75.2472 120.382 75.3105C120.353 75.1944 120.321 75.0665 120.286 74.9251L119.409 71.4379L122.168 69.1323C122.28 69.0389 122.381 68.9543 122.473 68.8773C122.353 68.8688 122.222 68.8598 122.076 68.8499L118.489 68.6067ZM114.586 67.333L111.834 67.5196C110.675 67.5982 110.095 67.6375 109.849 67.8824C109.634 68.0947 109.536 68.3975 109.584 68.6952C109.64 69.0384 110.086 69.4108 110.977 70.1555L113.094 71.9244L112.421 74.5999C112.138 75.7263 111.996 76.2895 112.153 76.6001C112.289 76.8694 112.546 77.0565 112.844 77.1024C113.188 77.1553 113.68 76.8465 114.664 76.2289L117 74.762L119.337 76.2289C120.32 76.8465 120.812 77.1553 121.156 77.1024C121.454 77.0565 121.712 76.8694 121.847 76.6001C122.004 76.2895 121.862 75.7263 121.579 74.5999L120.906 71.9244L123.023 70.1555C123.914 69.4108 124.36 69.0384 124.416 68.6952C124.464 68.3975 124.366 68.0947 124.152 67.8824C123.905 67.6375 123.325 67.5982 122.166 67.5196L119.414 67.333L118.386 64.7729C117.953 63.695 117.737 63.1561 117.427 62.9969C117.159 62.8588 116.841 62.8588 116.573 62.9969C116.264 63.1561 116.047 63.695 115.614 64.7729L114.586 67.333Z" fill="#FF8833"/>
<mask id="mask0_1_1859" style="mask-type:alpha" maskUnits="userSpaceOnUse" x="109" y="62" width="16" height="16">
<path d="M115.614 64.7729C116.047 63.695 116.264 63.1561 116.573 62.9969C116.841 62.8588 117.159 62.8588 117.427 62.9969C117.737 63.1561 117.953 63.695 118.386 64.7729L119.414 67.333L122.166 67.5197C123.325 67.5982 123.905 67.6375 124.152 67.8824C124.366 68.0947 124.464 68.3975 124.416 68.6952C124.36 69.0384 123.914 69.4108 123.023 70.1555L120.906 71.9244L121.579 74.5999C121.862 75.7263 122.004 76.2895 121.847 76.6001C121.712 76.8694 121.454 77.0565 121.156 77.1024C120.812 77.1553 120.32 76.8465 119.337 76.2289L117 74.762L114.664 76.2289C113.68 76.8465 113.188 77.1553 112.844 77.1024C112.546 77.0565 112.289 76.8694 112.153 76.6001C111.996 76.2895 112.138 75.7263 112.421 74.5999L113.094 71.9244L110.977 70.1555C110.086 69.4108 109.64 69.0384 109.584 68.6952C109.536 68.3975 109.634 68.0947 109.849 67.8824C110.095 67.6375 110.675 67.5982 111.834 67.5197L114.586 67.333L115.614 64.7729Z" fill="#FF8833"/>
</mask>
<g mask="url(#mask0_1_1859)">
<rect x="109" y="62" width="9.5" height="16" fill="#FF8833"/>
</g>
<path d="M47.2358 97.1392C46.6525 97.1392 46.1271 97.0232 45.6598 96.7912C45.1925 96.5592 44.8179 96.241 44.5362 95.8366C44.2545 95.4323 44.1004 94.9716 44.0739 94.4545H45.267C45.3134 94.9152 45.5223 95.2964 45.8935 95.598C46.268 95.8963 46.7154 96.0455 47.2358 96.0455C47.6534 96.0455 48.0246 95.9477 48.3494 95.7521C48.6776 95.5566 48.9344 95.2881 49.12 94.9467C49.3089 94.602 49.4034 94.2126 49.4034 93.7784C49.4034 93.3343 49.3056 92.9382 49.1101 92.5902C48.9179 92.2389 48.6527 91.9621 48.3146 91.7599C47.9766 91.5578 47.5904 91.455 47.1562 91.4517C46.8447 91.4484 46.5249 91.4964 46.1967 91.5959C45.8686 91.692 45.5985 91.8163 45.3864 91.9688L44.233 91.8295L44.8494 86.8182H50.1392V87.9119H45.8835L45.5256 90.9148H45.5852C45.794 90.7491 46.0559 90.6115 46.3707 90.5021C46.6856 90.3928 47.0137 90.3381 47.3551 90.3381C47.9782 90.3381 48.5334 90.4872 49.0206 90.7855C49.5111 91.0805 49.8956 91.4848 50.174 91.9986C50.4557 92.5123 50.5966 93.099 50.5966 93.7585C50.5966 94.4081 50.4508 94.9882 50.1591 95.4986C49.8707 96.0057 49.473 96.4067 48.9659 96.7017C48.4588 96.9934 47.8821 97.1392 47.2358 97.1392ZM55.8926 97.1392C55.1435 97.1392 54.5055 96.9354 53.9785 96.5277C53.4515 96.1167 53.0488 95.5218 52.7704 94.7429C52.492 93.9607 52.3528 93.0161 52.3528 91.9091C52.3528 90.8087 52.492 89.8691 52.7704 89.0902C53.0521 88.308 53.4565 87.7114 53.9835 87.3004C54.5138 86.8861 55.1502 86.679 55.8926 86.679C56.635 86.679 57.2697 86.8861 57.7967 87.3004C58.327 87.7114 58.7314 88.308 59.0098 89.0902C59.2915 89.8691 59.4324 90.8087 59.4324 91.9091C59.4324 93.0161 59.2931 93.9607 59.0147 94.7429C58.7363 95.5218 58.3336 96.1167 57.8066 96.5277C57.2797 96.9354 56.6416 97.1392 55.8926 97.1392ZM55.8926 96.0455C56.635 96.0455 57.2117 95.6875 57.6227 94.9716C58.0337 94.2557 58.2392 93.2348 58.2392 91.9091C58.2392 91.0275 58.1447 90.2768 57.9558 89.657C57.7702 89.0372 57.5017 88.5649 57.1504 88.2401C56.8024 87.9152 56.3831 87.7528 55.8926 87.7528C55.1568 87.7528 54.5817 88.1158 54.1674 88.8416C53.7531 89.5642 53.546 90.5866 53.546 91.9091C53.546 92.7907 53.6388 93.5398 53.8244 94.1562C54.01 94.7727 54.2768 95.2417 54.6248 95.5632C54.9761 95.8847 55.3987 96.0455 55.8926 96.0455ZM61.5005 97V86.8182H62.7335V91.8693H62.8528L67.4267 86.8182H69.0375L64.7619 91.4119L69.0375 97H67.546L64.0062 92.267L62.7335 93.6989V97H61.5005ZM74.4118 97V89.3636H75.5453V90.517H75.6248C75.764 90.1392 76.0159 89.8326 76.3805 89.5973C76.7451 89.362 77.1561 89.2443 77.6135 89.2443C77.6996 89.2443 77.8074 89.246 77.9366 89.2493C78.0659 89.2526 78.1636 89.2576 78.2299 89.2642V90.4574C78.1902 90.4474 78.099 90.4325 77.9565 90.4126C77.8173 90.3894 77.6698 90.3778 77.514 90.3778C77.1428 90.3778 76.8114 90.4557 76.5197 90.6115C76.2314 90.764 76.0027 90.9761 75.8336 91.2479C75.6679 91.5163 75.585 91.8229 75.585 92.1676V97H74.4118ZM81.8679 97.179C81.384 97.179 80.9448 97.0878 80.5504 96.9055C80.156 96.7199 79.8428 96.4531 79.6108 96.1051C79.3788 95.7538 79.2628 95.3295 79.2628 94.8324C79.2628 94.3949 79.349 94.0402 79.5213 93.7685C79.6937 93.4934 79.924 93.2779 80.2124 93.1222C80.5007 92.9664 80.8189 92.8504 81.1669 92.7741C81.5182 92.6946 81.8712 92.6316 82.2259 92.5852C82.6899 92.5256 83.0661 92.4808 83.3544 92.451C83.6461 92.4179 83.8582 92.3632 83.9908 92.2869C84.1267 92.2107 84.1946 92.0781 84.1946 91.8892V91.8494C84.1946 91.3589 84.0604 90.9777 83.7919 90.706C83.5268 90.4342 83.1241 90.2983 82.5838 90.2983C82.0237 90.2983 81.5845 90.4209 81.2663 90.6662C80.9482 90.9115 80.7244 91.1733 80.5952 91.4517L79.4815 91.054C79.6804 90.59 79.9455 90.2287 80.277 89.9702C80.6117 89.7083 80.9763 89.526 81.3707 89.4233C81.7685 89.3172 82.1596 89.2642 82.544 89.2642C82.7893 89.2642 83.071 89.294 83.3892 89.3537C83.7107 89.41 84.0206 89.5277 84.3189 89.7067C84.6205 89.8857 84.8707 90.1558 85.0696 90.517C85.2685 90.8783 85.3679 91.3622 85.3679 91.9688V97H84.1946V95.9659H84.1349C84.0554 96.1316 83.9228 96.3089 83.7372 96.4979C83.5516 96.6868 83.3047 96.8475 82.9964 96.9801C82.6882 97.1127 82.312 97.179 81.8679 97.179ZM82.0469 96.125C82.5109 96.125 82.902 96.0339 83.2202 95.8516C83.5417 95.6693 83.7836 95.4339 83.946 95.1456C84.1117 94.8572 84.1946 94.554 84.1946 94.2358V93.1619C84.1449 93.2216 84.0355 93.2763 83.8665 93.326C83.7008 93.3724 83.5085 93.4138 83.2898 93.4503C83.0743 93.4834 82.8639 93.5133 82.6584 93.5398C82.4562 93.563 82.2921 93.5829 82.1662 93.5994C81.8613 93.6392 81.5762 93.7038 81.3111 93.7933C81.0492 93.8795 80.8371 94.0104 80.6747 94.1861C80.5156 94.3584 80.4361 94.5937 80.4361 94.892C80.4361 95.2997 80.5869 95.608 80.8885 95.8168C81.1934 96.0223 81.5795 96.125 82.0469 96.125ZM90.8304 89.3636V90.358H86.873V89.3636H90.8304ZM88.0265 87.5341H89.1998V94.8125C89.1998 95.1439 89.2478 95.3925 89.3439 95.5582C89.4434 95.7206 89.5693 95.83 89.7218 95.8864C89.8775 95.9394 90.0416 95.9659 90.214 95.9659C90.3432 95.9659 90.4493 95.9593 90.5321 95.946C90.615 95.9295 90.6813 95.9162 90.731 95.9062L90.9696 96.9602C90.8901 96.9901 90.7791 97.0199 90.6365 97.0497C90.494 97.0829 90.3134 97.0994 90.0946 97.0994C89.7632 97.0994 89.4384 97.0282 89.1202 96.8857C88.8053 96.7431 88.5435 96.526 88.3347 96.2344C88.1292 95.9427 88.0265 95.5748 88.0265 95.1307V87.5341ZM92.5953 97V89.3636H93.7686V97H92.5953ZM93.1919 88.0909C92.9632 88.0909 92.766 88.013 92.6003 87.8572C92.4379 87.7015 92.3567 87.5142 92.3567 87.2955C92.3567 87.0767 92.4379 86.8894 92.6003 86.7337C92.766 86.5779 92.9632 86.5 93.1919 86.5C93.4206 86.5 93.6162 86.5779 93.7786 86.7337C93.9443 86.8894 94.0272 87.0767 94.0272 87.2955C94.0272 87.5142 93.9443 87.7015 93.7786 87.8572C93.6162 88.013 93.4206 88.0909 93.1919 88.0909ZM97.0909 92.4062V97H95.9176V89.3636H97.0511V90.5568H97.1506C97.3295 90.169 97.6013 89.8575 97.9659 89.6222C98.3305 89.3835 98.8011 89.2642 99.3778 89.2642C99.8949 89.2642 100.347 89.3703 100.735 89.5824C101.123 89.7912 101.424 90.1094 101.64 90.5369C101.855 90.9612 101.963 91.4981 101.963 92.1477V97H100.79V92.2273C100.79 91.6274 100.634 91.16 100.322 90.8253C100.011 90.4872 99.5833 90.3182 99.0398 90.3182C98.6652 90.3182 98.3305 90.3994 98.0355 90.5618C97.7438 90.7242 97.5135 90.9612 97.3445 91.2727C97.1754 91.5843 97.0909 91.9621 97.0909 92.4062ZM107.189 100.023C106.623 100.023 106.135 99.9498 105.728 99.804C105.32 99.6615 104.98 99.4725 104.709 99.2372C104.44 99.0052 104.226 98.7566 104.067 98.4915L105.002 97.8352C105.108 97.9744 105.242 98.1335 105.405 98.3125C105.567 98.4948 105.789 98.6522 106.071 98.7848C106.356 98.9207 106.729 98.9886 107.189 98.9886C107.806 98.9886 108.315 98.8395 108.716 98.5412C109.117 98.2429 109.317 97.7756 109.317 97.1392V95.5881H109.218C109.132 95.7273 109.009 95.8996 108.85 96.1051C108.694 96.3073 108.469 96.4879 108.174 96.647C107.882 96.8028 107.488 96.8807 106.991 96.8807C106.374 96.8807 105.821 96.7348 105.33 96.4432C104.843 96.1515 104.457 95.7273 104.172 95.1705C103.89 94.6136 103.749 93.9375 103.749 93.142C103.749 92.3598 103.887 91.6787 104.162 91.0987C104.437 90.5154 104.82 90.0646 105.31 89.7464C105.801 89.425 106.367 89.2642 107.01 89.2642C107.508 89.2642 107.902 89.3471 108.194 89.5128C108.489 89.6752 108.714 89.8608 108.87 90.0696C109.029 90.2751 109.152 90.4441 109.238 90.5767H109.357V89.3636H110.491V97.2188C110.491 97.875 110.341 98.4086 110.043 98.8196C109.748 99.2339 109.35 99.5372 108.85 99.7294C108.353 99.925 107.799 100.023 107.189 100.023ZM107.15 95.8267C107.62 95.8267 108.018 95.719 108.343 95.5036C108.668 95.2881 108.915 94.9782 109.084 94.5739C109.253 94.1695 109.337 93.6856 109.337 93.1222C109.337 92.572 109.254 92.0864 109.089 91.6655C108.923 91.2446 108.678 90.9148 108.353 90.6761C108.028 90.4375 107.627 90.3182 107.15 90.3182C106.653 90.3182 106.238 90.4441 105.907 90.696C105.579 90.9479 105.332 91.286 105.166 91.7102C105.004 92.1345 104.922 92.6051 104.922 93.1222C104.922 93.6525 105.005 94.1214 105.171 94.5291C105.34 94.9335 105.589 95.2517 105.917 95.4837C106.248 95.7124 106.659 95.8267 107.15 95.8267ZM118.047 91.0739L116.993 91.3722C116.927 91.1965 116.829 91.0258 116.7 90.8601C116.574 90.6911 116.402 90.5518 116.183 90.4425C115.964 90.3331 115.684 90.2784 115.343 90.2784C114.876 90.2784 114.486 90.3861 114.175 90.6016C113.866 90.8137 113.712 91.0838 113.712 91.4119C113.712 91.7036 113.818 91.9339 114.03 92.103C114.242 92.272 114.574 92.4129 115.025 92.5256L116.158 92.804C116.841 92.9697 117.35 93.2232 117.684 93.5646C118.019 93.9027 118.187 94.3385 118.187 94.8722C118.187 95.3097 118.061 95.7008 117.809 96.0455C117.56 96.3902 117.212 96.6619 116.765 96.8608C116.317 97.0597 115.797 97.1591 115.204 97.1591C114.425 97.1591 113.78 96.9901 113.27 96.652C112.759 96.3139 112.436 95.8201 112.3 95.1705L113.414 94.892C113.52 95.303 113.72 95.6113 114.015 95.8168C114.314 96.0223 114.703 96.125 115.184 96.125C115.731 96.125 116.165 96.009 116.486 95.777C116.811 95.5417 116.974 95.2599 116.974 94.9318C116.974 94.6667 116.881 94.4446 116.695 94.2656C116.51 94.0833 116.224 93.9474 115.84 93.858L114.567 93.5597C113.868 93.3939 113.354 93.1371 113.026 92.7891C112.701 92.4377 112.539 91.9986 112.539 91.4716C112.539 91.0407 112.66 90.6596 112.902 90.3281C113.147 89.9967 113.48 89.7365 113.901 89.5476C114.325 89.3587 114.806 89.2642 115.343 89.2642C116.099 89.2642 116.692 89.4299 117.123 89.7614C117.557 90.0928 117.865 90.5303 118.047 91.0739Z" fill="black" fill-opacity="0.4"/>
<path d="M12 1H150V-1H12V1ZM161 12V110H163V12H161ZM150 121H12V123H150V121ZM1 110V12H-1V110H1ZM12 121C5.92487 121 1 116.075 1 110H-1C-1 117.18 4.8203 123 12 123V121ZM161 110C161 116.075 156.075 121 150 121V123C157.18 123 163 117.18 163 110H161ZM150 1C156.075 1 161 5.92487 161 12H163C163 4.8203 157.18 -1 150 -1V1ZM12 -1C4.8203 -1 -1 4.8203 -1 12H1C1 5.92487 5.92487 1 12 1V-1Z" fill="black" fill-opacity="0.1"/>
<defs>
<linearGradient id="paint0_linear_1_1859" x1="106.5" y1="54" x2="106.5" y2="22" gradientUnits="userSpaceOnUse">
<stop stop-color="#1D76F2"/>
<stop offset="1" stop-color="#1AC2FB"/>
</linearGradient>
</defs>
</svg>
