<svg width="17" height="14" viewBox="0 0 17 14" fill="none" xmlns="http://www.w3.org/2000/svg">
<path fill-rule="evenodd" clip-rule="evenodd" d="M0.5 5C0.5 4.44772 0.947715 4 1.5 4H11.5C12.0523 4 12.5 4.44772 12.5 5C12.5 5.55229 12.0523 6 11.5 6H1.5C0.947715 6 0.5 5.55229 0.5 5ZM0.5 1C0.5 0.447715 0.947715 0 1.5 0H15.5C16.0523 0 16.5 0.447715 16.5 1C16.5 1.55228 16.0523 2 15.5 2H1.5C0.947715 2 0.5 1.55228 0.5 1ZM0.5 9C0.5 8.44772 0.947715 8 1.5 8H15.5C16.0523 8 16.5 8.44772 16.5 9C16.5 9.55229 16.0523 10 15.5 10H1.5C0.947715 10 0.5 9.55229 0.5 9ZM0.5 13C0.5 12.4477 0.947715 12 1.5 12H8.5C9.05228 12 9.5 12.4477 9.5 13C9.5 13.5523 9.05228 14 8.5 14H1.5C0.947715 14 0.5 13.5523 0.5 13Z" fill="white"/>
</svg>
